<mxfile host="app.diagrams.net" modified="2023-04-10T13:11:29.499Z" agent="Mozilla/5.0 (Windows NT 10.0; Win64; x64) AppleWebKit/537.36 (KHTML, like Gecko) Chrome/111.0.0.0 Safari/537.36" etag="ShmEXyejJJngmhLb9vPH" version="21.1.5" type="device">
  <diagram name="Page-1" id="mNO3gUTfWxwpgm6huwHa">
    <mxGraphModel dx="3825" dy="1773" grid="1" gridSize="10" guides="1" tooltips="1" connect="1" arrows="1" fold="1" page="1" pageScale="1" pageWidth="1200" pageHeight="1600" math="0" shadow="0">
      <root>
        <mxCell id="0" />
        <mxCell id="1" parent="0" />
        <mxCell id="QA4w8l9ihHuYLS0JhNd--16" value="" style="edgeStyle=orthogonalEdgeStyle;rounded=0;orthogonalLoop=1;jettySize=auto;html=1;strokeWidth=2;labelBackgroundColor=none;fontColor=default;" parent="1" source="QA4w8l9ihHuYLS0JhNd--1" target="QA4w8l9ihHuYLS0JhNd--9" edge="1">
          <mxGeometry relative="1" as="geometry" />
        </mxCell>
        <mxCell id="QA4w8l9ihHuYLS0JhNd--1" value="&lt;font style=&quot;font-size: 21px;&quot;&gt;&lt;b&gt;Input&lt;/b&gt;&amp;nbsp;&lt;br&gt;256x256x3&lt;/font&gt;" style="rounded=1;whiteSpace=wrap;html=1;strokeWidth=2;labelBackgroundColor=none;" parent="1" vertex="1">
          <mxGeometry x="220" y="150" width="190" height="60" as="geometry" />
        </mxCell>
        <mxCell id="QA4w8l9ihHuYLS0JhNd--17" value="" style="edgeStyle=orthogonalEdgeStyle;rounded=0;orthogonalLoop=1;jettySize=auto;html=1;strokeWidth=2;labelBackgroundColor=none;fontColor=default;" parent="1" source="QA4w8l9ihHuYLS0JhNd--9" target="QA4w8l9ihHuYLS0JhNd--11" edge="1">
          <mxGeometry relative="1" as="geometry" />
        </mxCell>
        <mxCell id="QA4w8l9ihHuYLS0JhNd--9" value="&lt;font style=&quot;font-size: 21px;&quot;&gt;&lt;b&gt;Encoder_1&lt;/b&gt;&amp;nbsp;&lt;br&gt;128x128x64&lt;/font&gt;" style="rounded=1;whiteSpace=wrap;html=1;strokeWidth=2;labelBackgroundColor=none;" parent="1" vertex="1">
          <mxGeometry x="220" y="250" width="190" height="60" as="geometry" />
        </mxCell>
        <mxCell id="QA4w8l9ihHuYLS0JhNd--18" value="" style="edgeStyle=orthogonalEdgeStyle;rounded=0;orthogonalLoop=1;jettySize=auto;html=1;strokeWidth=2;labelBackgroundColor=none;fontColor=default;" parent="1" source="QA4w8l9ihHuYLS0JhNd--11" target="QA4w8l9ihHuYLS0JhNd--12" edge="1">
          <mxGeometry relative="1" as="geometry" />
        </mxCell>
        <mxCell id="QA4w8l9ihHuYLS0JhNd--11" value="&lt;font style=&quot;font-size: 21px;&quot;&gt;&lt;b&gt;Encoder_2&lt;/b&gt;&amp;nbsp;&lt;br&gt;64x64x128&lt;/font&gt;" style="rounded=1;whiteSpace=wrap;html=1;strokeWidth=2;labelBackgroundColor=none;" parent="1" vertex="1">
          <mxGeometry x="220" y="350" width="190" height="60" as="geometry" />
        </mxCell>
        <mxCell id="QA4w8l9ihHuYLS0JhNd--19" value="" style="edgeStyle=orthogonalEdgeStyle;rounded=0;orthogonalLoop=1;jettySize=auto;html=1;strokeWidth=2;labelBackgroundColor=none;fontColor=default;" parent="1" source="QA4w8l9ihHuYLS0JhNd--12" target="QA4w8l9ihHuYLS0JhNd--13" edge="1">
          <mxGeometry relative="1" as="geometry" />
        </mxCell>
        <mxCell id="QA4w8l9ihHuYLS0JhNd--12" value="&lt;font style=&quot;font-size: 21px;&quot;&gt;&lt;b&gt;Encoder_3&lt;/b&gt;&amp;nbsp;&lt;br&gt;32x32x256&lt;/font&gt;" style="rounded=1;whiteSpace=wrap;html=1;strokeWidth=2;labelBackgroundColor=none;" parent="1" vertex="1">
          <mxGeometry x="220" y="450" width="190" height="60" as="geometry" />
        </mxCell>
        <mxCell id="QA4w8l9ihHuYLS0JhNd--15" value="" style="edgeStyle=orthogonalEdgeStyle;rounded=0;orthogonalLoop=1;jettySize=auto;html=1;entryX=0;entryY=0.5;entryDx=0;entryDy=0;exitX=0.5;exitY=1;exitDx=0;exitDy=0;strokeWidth=2;labelBackgroundColor=none;fontColor=default;" parent="1" source="QA4w8l9ihHuYLS0JhNd--13" target="QA4w8l9ihHuYLS0JhNd--14" edge="1">
          <mxGeometry relative="1" as="geometry" />
        </mxCell>
        <mxCell id="QA4w8l9ihHuYLS0JhNd--76" value="" style="edgeStyle=orthogonalEdgeStyle;rounded=0;orthogonalLoop=1;jettySize=auto;html=1;entryX=0;entryY=0.5;entryDx=0;entryDy=0;strokeWidth=2;labelBackgroundColor=none;fontColor=default;" parent="1" source="QA4w8l9ihHuYLS0JhNd--13" target="QA4w8l9ihHuYLS0JhNd--28" edge="1">
          <mxGeometry relative="1" as="geometry">
            <mxPoint x="525" y="579.9999999999998" as="targetPoint" />
            <Array as="points">
              <mxPoint x="630" y="580" />
              <mxPoint x="630" y="580" />
            </Array>
          </mxGeometry>
        </mxCell>
        <mxCell id="QA4w8l9ihHuYLS0JhNd--13" value="&lt;font style=&quot;font-size: 21px;&quot;&gt;&lt;b&gt;Encoder_4&lt;/b&gt;&amp;nbsp;&lt;br&gt;16x16x512&lt;/font&gt;" style="rounded=1;whiteSpace=wrap;html=1;strokeWidth=2;labelBackgroundColor=none;" parent="1" vertex="1">
          <mxGeometry x="220" y="550" width="190" height="60" as="geometry" />
        </mxCell>
        <mxCell id="QA4w8l9ihHuYLS0JhNd--29" value="" style="edgeStyle=orthogonalEdgeStyle;rounded=0;orthogonalLoop=1;jettySize=auto;html=1;strokeWidth=2;labelBackgroundColor=none;fontColor=default;" parent="1" source="QA4w8l9ihHuYLS0JhNd--14" target="QA4w8l9ihHuYLS0JhNd--28" edge="1">
          <mxGeometry relative="1" as="geometry" />
        </mxCell>
        <mxCell id="QA4w8l9ihHuYLS0JhNd--14" value="&lt;font style=&quot;font-size: 21px;&quot;&gt;&lt;b&gt;Bridge&lt;br&gt;&lt;/b&gt;16x16x1024&lt;/font&gt;" style="rounded=1;whiteSpace=wrap;html=1;strokeWidth=2;labelBackgroundColor=none;" parent="1" vertex="1">
          <mxGeometry x="470" y="630" width="190" height="60" as="geometry" />
        </mxCell>
        <mxCell id="QA4w8l9ihHuYLS0JhNd--63" value="" style="edgeStyle=orthogonalEdgeStyle;rounded=0;orthogonalLoop=1;jettySize=auto;html=1;strokeWidth=2;labelBackgroundColor=none;fontColor=default;" parent="1" source="QA4w8l9ihHuYLS0JhNd--28" target="QA4w8l9ihHuYLS0JhNd--62" edge="1">
          <mxGeometry relative="1" as="geometry" />
        </mxCell>
        <mxCell id="QA4w8l9ihHuYLS0JhNd--28" value="&lt;span style=&quot;font-size: 21px;&quot;&gt;32x32x512&lt;br&gt;&lt;b&gt;Decoder_1&lt;/b&gt;&lt;br&gt;&lt;/span&gt;" style="rounded=1;whiteSpace=wrap;html=1;strokeWidth=2;labelBackgroundColor=none;" parent="1" vertex="1">
          <mxGeometry x="710" y="550" width="190" height="60" as="geometry" />
        </mxCell>
        <mxCell id="QA4w8l9ihHuYLS0JhNd--65" value="" style="edgeStyle=orthogonalEdgeStyle;rounded=0;orthogonalLoop=1;jettySize=auto;html=1;strokeWidth=2;labelBackgroundColor=none;fontColor=default;" parent="1" source="QA4w8l9ihHuYLS0JhNd--62" target="QA4w8l9ihHuYLS0JhNd--64" edge="1">
          <mxGeometry relative="1" as="geometry" />
        </mxCell>
        <mxCell id="QA4w8l9ihHuYLS0JhNd--62" value="&lt;span style=&quot;font-size: 21px;&quot;&gt;64x64x256&lt;br&gt;&lt;b&gt;Decoder_2&lt;/b&gt;&lt;br&gt;&lt;/span&gt;" style="rounded=1;whiteSpace=wrap;html=1;strokeWidth=2;labelBackgroundColor=none;" parent="1" vertex="1">
          <mxGeometry x="710" y="450" width="190" height="60" as="geometry" />
        </mxCell>
        <mxCell id="QA4w8l9ihHuYLS0JhNd--72" value="" style="edgeStyle=orthogonalEdgeStyle;rounded=0;orthogonalLoop=1;jettySize=auto;html=1;strokeWidth=2;labelBackgroundColor=none;fontColor=default;" parent="1" source="QA4w8l9ihHuYLS0JhNd--64" target="QA4w8l9ihHuYLS0JhNd--71" edge="1">
          <mxGeometry relative="1" as="geometry" />
        </mxCell>
        <mxCell id="QA4w8l9ihHuYLS0JhNd--64" value="&lt;span style=&quot;font-size: 21px;&quot;&gt;128x128x128&lt;br&gt;&lt;b&gt;Decoder_3&lt;/b&gt;&lt;br&gt;&lt;/span&gt;" style="rounded=1;whiteSpace=wrap;html=1;strokeWidth=2;labelBackgroundColor=none;" parent="1" vertex="1">
          <mxGeometry x="710" y="355" width="190" height="60" as="geometry" />
        </mxCell>
        <mxCell id="QA4w8l9ihHuYLS0JhNd--74" value="" style="edgeStyle=orthogonalEdgeStyle;rounded=0;orthogonalLoop=1;jettySize=auto;html=1;strokeWidth=2;labelBackgroundColor=none;fontColor=default;" parent="1" source="QA4w8l9ihHuYLS0JhNd--71" target="QA4w8l9ihHuYLS0JhNd--73" edge="1">
          <mxGeometry relative="1" as="geometry" />
        </mxCell>
        <mxCell id="QA4w8l9ihHuYLS0JhNd--71" value="&lt;span style=&quot;font-size: 21px;&quot;&gt;256x256x64&lt;br&gt;&lt;b&gt;Decoder_4&lt;/b&gt;&lt;br&gt;&lt;/span&gt;" style="rounded=1;whiteSpace=wrap;html=1;strokeWidth=2;labelBackgroundColor=none;" parent="1" vertex="1">
          <mxGeometry x="710" y="250" width="190" height="60" as="geometry" />
        </mxCell>
        <mxCell id="QA4w8l9ihHuYLS0JhNd--73" value="&lt;span style=&quot;font-size: 21px;&quot;&gt;256x256x1&lt;br&gt;&lt;b&gt;conv 3x3&lt;/b&gt;&lt;br&gt;&lt;/span&gt;" style="rounded=1;whiteSpace=wrap;html=1;strokeWidth=2;labelBackgroundColor=none;" parent="1" vertex="1">
          <mxGeometry x="710" y="150" width="190" height="60" as="geometry" />
        </mxCell>
        <mxCell id="QA4w8l9ihHuYLS0JhNd--77" value="" style="edgeStyle=orthogonalEdgeStyle;rounded=0;orthogonalLoop=1;jettySize=auto;html=1;entryX=0;entryY=0.5;entryDx=0;entryDy=0;strokeWidth=2;labelBackgroundColor=none;fontColor=default;" parent="1" edge="1">
          <mxGeometry relative="1" as="geometry">
            <mxPoint x="410" y="479.40999999999997" as="sourcePoint" />
            <mxPoint x="710" y="479.40999999999997" as="targetPoint" />
          </mxGeometry>
        </mxCell>
        <mxCell id="QA4w8l9ihHuYLS0JhNd--78" value="" style="edgeStyle=orthogonalEdgeStyle;rounded=0;orthogonalLoop=1;jettySize=auto;html=1;entryX=0;entryY=0.5;entryDx=0;entryDy=0;strokeWidth=2;labelBackgroundColor=none;fontColor=default;" parent="1" edge="1">
          <mxGeometry relative="1" as="geometry">
            <mxPoint x="410" y="279.40999999999997" as="sourcePoint" />
            <mxPoint x="710" y="279.40999999999997" as="targetPoint" />
          </mxGeometry>
        </mxCell>
        <mxCell id="QA4w8l9ihHuYLS0JhNd--79" value="" style="edgeStyle=orthogonalEdgeStyle;rounded=0;orthogonalLoop=1;jettySize=auto;html=1;entryX=0;entryY=0.5;entryDx=0;entryDy=0;strokeWidth=2;labelBackgroundColor=none;fontColor=default;" parent="1" edge="1">
          <mxGeometry relative="1" as="geometry">
            <mxPoint x="410" y="379.40999999999997" as="sourcePoint" />
            <mxPoint x="710" y="379.40999999999997" as="targetPoint" />
          </mxGeometry>
        </mxCell>
        <mxCell id="QA4w8l9ihHuYLS0JhNd--86" value="" style="group;strokeWidth=2;labelBackgroundColor=none;" parent="1" vertex="1" connectable="0">
          <mxGeometry x="950" y="120" width="330" height="610" as="geometry" />
        </mxCell>
        <mxCell id="QA4w8l9ihHuYLS0JhNd--61" value="" style="group;strokeWidth=2;labelBackgroundColor=none;" parent="QA4w8l9ihHuYLS0JhNd--86" vertex="1" connectable="0">
          <mxGeometry width="330" height="550" as="geometry" />
        </mxCell>
        <mxCell id="QA4w8l9ihHuYLS0JhNd--45" value="" style="rounded=1;whiteSpace=wrap;html=1;fillColor=none;strokeWidth=2;labelBackgroundColor=none;" parent="QA4w8l9ihHuYLS0JhNd--61" vertex="1">
          <mxGeometry x="60" y="20" width="270" height="530" as="geometry" />
        </mxCell>
        <mxCell id="QA4w8l9ihHuYLS0JhNd--47" value="&lt;span style=&quot;border-color: var(--border-color); font-size: 21px;&quot;&gt;2Mx2Nx(C/2)&lt;br style=&quot;border-color: var(--border-color);&quot;&gt;&lt;b&gt;Conv 3x3&lt;/b&gt;&lt;br style=&quot;border-color: var(--border-color);&quot;&gt;&lt;/span&gt;" style="rounded=1;whiteSpace=wrap;html=1;strokeWidth=2;labelBackgroundColor=none;" parent="QA4w8l9ihHuYLS0JhNd--61" vertex="1">
          <mxGeometry x="100" y="250" width="190" height="60" as="geometry" />
        </mxCell>
        <mxCell id="QA4w8l9ihHuYLS0JhNd--48" value="&lt;span style=&quot;border-color: var(--border-color); font-size: 21px;&quot;&gt;2Mx2Nx(C/2)&lt;br&gt;&lt;b&gt;Conv 3x3&lt;/b&gt;&lt;br style=&quot;border-color: var(--border-color);&quot;&gt;&lt;/span&gt;" style="rounded=1;whiteSpace=wrap;html=1;strokeWidth=2;labelBackgroundColor=none;" parent="QA4w8l9ihHuYLS0JhNd--61" vertex="1">
          <mxGeometry x="100" y="190" width="190" height="60" as="geometry" />
        </mxCell>
        <mxCell id="QA4w8l9ihHuYLS0JhNd--49" value="&lt;span style=&quot;border-color: var(--border-color); font-size: 19px;&quot;&gt;2Mx2Nx(C/2)&lt;br&gt;&lt;b&gt;Batch-Norm&lt;/b&gt;&lt;br style=&quot;border-color: var(--border-color);&quot;&gt;&lt;/span&gt;" style="rounded=1;whiteSpace=wrap;html=1;strokeWidth=2;labelBackgroundColor=none;" parent="QA4w8l9ihHuYLS0JhNd--61" vertex="1">
          <mxGeometry x="100" y="130" width="190" height="60" as="geometry" />
        </mxCell>
        <mxCell id="QA4w8l9ihHuYLS0JhNd--50" value="&lt;font style=&quot;font-size: 19px;&quot;&gt;&lt;span style=&quot;border-color: var(--border-color);&quot;&gt;2Mx2Nx(C/2)&lt;br&gt;&lt;b&gt;Activation (relu)&lt;/b&gt;&lt;br style=&quot;border-color: var(--border-color);&quot;&gt;&lt;/span&gt;&lt;/font&gt;" style="rounded=1;whiteSpace=wrap;html=1;strokeWidth=2;labelBackgroundColor=none;" parent="QA4w8l9ihHuYLS0JhNd--61" vertex="1">
          <mxGeometry x="100" y="70" width="190" height="60" as="geometry" />
        </mxCell>
        <mxCell id="QA4w8l9ihHuYLS0JhNd--52" value="&lt;font style=&quot;font-size: 21px;&quot;&gt;&lt;span style=&quot;border-color: var(--border-color);&quot;&gt;MxNxC&lt;br&gt;&lt;/span&gt;&lt;b style=&quot;border-color: var(--border-color);&quot;&gt;Input&lt;/b&gt;&amp;nbsp;&lt;br style=&quot;border-color: var(--border-color);&quot;&gt;&lt;/font&gt;" style="rounded=1;whiteSpace=wrap;html=1;strokeWidth=2;labelBackgroundColor=none;" parent="QA4w8l9ihHuYLS0JhNd--61" vertex="1">
          <mxGeometry x="100" y="460" width="190" height="60" as="geometry" />
        </mxCell>
        <mxCell id="QA4w8l9ihHuYLS0JhNd--53" value="&lt;b&gt;&lt;font style=&quot;font-size: 24px;&quot;&gt;Decoder&lt;/font&gt;&lt;/b&gt;" style="rounded=1;whiteSpace=wrap;html=1;fillColor=none;strokeColor=none;strokeWidth=2;labelBackgroundColor=none;" parent="QA4w8l9ihHuYLS0JhNd--61" vertex="1">
          <mxGeometry x="135" y="30" width="120" height="30" as="geometry" />
        </mxCell>
        <mxCell id="QA4w8l9ihHuYLS0JhNd--54" value="&lt;span style=&quot;border-color: var(--border-color); font-size: 21px;&quot;&gt;2Mx2Nx(C/2)&lt;br&gt;&lt;/span&gt;&lt;b style=&quot;border-color: var(--border-color); font-size: 21px;&quot;&gt;ConvTranspose&lt;br style=&quot;border-color: var(--border-color);&quot;&gt;&lt;/b&gt;" style="rounded=1;whiteSpace=wrap;html=1;strokeWidth=2;labelBackgroundColor=none;" parent="QA4w8l9ihHuYLS0JhNd--61" vertex="1">
          <mxGeometry x="100" y="370" width="190" height="60" as="geometry" />
        </mxCell>
        <mxCell id="QA4w8l9ihHuYLS0JhNd--56" value="" style="edgeStyle=orthogonalEdgeStyle;rounded=0;orthogonalLoop=1;jettySize=auto;html=1;strokeWidth=2;labelBackgroundColor=none;fontColor=default;" parent="QA4w8l9ihHuYLS0JhNd--61" source="QA4w8l9ihHuYLS0JhNd--52" target="QA4w8l9ihHuYLS0JhNd--54" edge="1">
          <mxGeometry relative="1" as="geometry" />
        </mxCell>
        <mxCell id="QA4w8l9ihHuYLS0JhNd--55" value="&lt;font style=&quot;font-size: 21px;&quot;&gt;2Mx2NxC&lt;br&gt;&lt;b&gt;Concatenate&lt;/b&gt;&lt;b style=&quot;font-size: 21px;&quot;&gt;&amp;nbsp;&lt;/b&gt;&lt;br&gt;&lt;/font&gt;" style="rounded=1;whiteSpace=wrap;html=1;strokeWidth=2;labelBackgroundColor=none;" parent="QA4w8l9ihHuYLS0JhNd--61" vertex="1">
          <mxGeometry x="100" y="310" width="190" height="60" as="geometry" />
        </mxCell>
        <mxCell id="QA4w8l9ihHuYLS0JhNd--60" value="" style="edgeStyle=orthogonalEdgeStyle;rounded=0;orthogonalLoop=1;jettySize=auto;html=1;strokeWidth=3;labelBackgroundColor=none;fontColor=default;" parent="QA4w8l9ihHuYLS0JhNd--61" target="QA4w8l9ihHuYLS0JhNd--55" edge="1">
          <mxGeometry relative="1" as="geometry">
            <mxPoint y="340" as="sourcePoint" />
          </mxGeometry>
        </mxCell>
        <mxCell id="QA4w8l9ihHuYLS0JhNd--87" value="" style="group;strokeWidth=2;labelBackgroundColor=none;" parent="1" vertex="1" connectable="0">
          <mxGeometry x="-140" y="165" width="300" height="520" as="geometry" />
        </mxCell>
        <mxCell id="QA4w8l9ihHuYLS0JhNd--43" value="" style="group;strokeWidth=2;labelBackgroundColor=none;" parent="QA4w8l9ihHuYLS0JhNd--87" vertex="1" connectable="0">
          <mxGeometry width="300" height="520" as="geometry" />
        </mxCell>
        <mxCell id="QA4w8l9ihHuYLS0JhNd--37" value="" style="rounded=1;whiteSpace=wrap;html=1;fillColor=none;strokeWidth=2;labelBackgroundColor=none;" parent="QA4w8l9ihHuYLS0JhNd--43" vertex="1">
          <mxGeometry y="-25" width="270" height="520" as="geometry" />
        </mxCell>
        <mxCell id="QA4w8l9ihHuYLS0JhNd--40" value="" style="edgeStyle=orthogonalEdgeStyle;rounded=0;orthogonalLoop=1;jettySize=auto;html=1;strokeWidth=3;exitX=1;exitY=0.5;exitDx=0;exitDy=0;labelBackgroundColor=none;fontColor=default;" parent="QA4w8l9ihHuYLS0JhNd--43" source="QA4w8l9ihHuYLS0JhNd--30" edge="1">
          <mxGeometry relative="1" as="geometry">
            <mxPoint x="340" y="175" as="targetPoint" />
            <Array as="points">
              <mxPoint x="230" y="175" />
              <mxPoint x="320" y="175" />
            </Array>
          </mxGeometry>
        </mxCell>
        <mxCell id="QA4w8l9ihHuYLS0JhNd--30" value="&lt;font style=&quot;font-size: 21px;&quot;&gt;&lt;b&gt;Conv 3x3&lt;br&gt;&lt;/b&gt;MxNx2C&lt;/font&gt;" style="rounded=1;whiteSpace=wrap;html=1;strokeWidth=2;labelBackgroundColor=none;" parent="QA4w8l9ihHuYLS0JhNd--43" vertex="1">
          <mxGeometry x="40" y="150" width="190" height="60" as="geometry" />
        </mxCell>
        <mxCell id="QA4w8l9ihHuYLS0JhNd--31" value="&lt;font style=&quot;font-size: 21px;&quot;&gt;&lt;b&gt;Conv 3x3&lt;br&gt;&lt;/b&gt;MxNx2C&lt;/font&gt;" style="rounded=1;whiteSpace=wrap;html=1;strokeWidth=2;labelBackgroundColor=none;" parent="QA4w8l9ihHuYLS0JhNd--43" vertex="1">
          <mxGeometry x="40" y="210" width="190" height="60" as="geometry" />
        </mxCell>
        <mxCell id="QA4w8l9ihHuYLS0JhNd--32" value="&lt;font style=&quot;font-size: 19px;&quot;&gt;&lt;b&gt;Batch-Norm&lt;br&gt;&lt;/b&gt;MxNx2C&lt;/font&gt;" style="rounded=1;whiteSpace=wrap;html=1;strokeWidth=2;labelBackgroundColor=none;" parent="QA4w8l9ihHuYLS0JhNd--43" vertex="1">
          <mxGeometry x="40" y="270" width="190" height="60" as="geometry" />
        </mxCell>
        <mxCell id="QA4w8l9ihHuYLS0JhNd--33" value="&lt;font style=&quot;font-size: 19px;&quot;&gt;&lt;b&gt;Activation (relu)&lt;br&gt;&lt;/b&gt;MxNx2C&lt;/font&gt;" style="rounded=1;whiteSpace=wrap;html=1;strokeWidth=2;labelBackgroundColor=none;" parent="QA4w8l9ihHuYLS0JhNd--43" vertex="1">
          <mxGeometry x="40" y="330" width="190" height="60" as="geometry" />
        </mxCell>
        <mxCell id="QA4w8l9ihHuYLS0JhNd--34" value="&lt;font style=&quot;font-size: 19px;&quot;&gt;&lt;b&gt;max-pooling 2x2&lt;br&gt;&lt;/b&gt;(M/2)x(N/2)x2C&lt;/font&gt;" style="rounded=1;whiteSpace=wrap;html=1;strokeWidth=2;labelBackgroundColor=none;" parent="QA4w8l9ihHuYLS0JhNd--43" vertex="1">
          <mxGeometry x="40" y="390" width="190" height="60" as="geometry" />
        </mxCell>
        <mxCell id="vlSNPFUABqCGarVpqag_-1" value="" style="edgeStyle=orthogonalEdgeStyle;rounded=0;orthogonalLoop=1;jettySize=auto;html=1;strokeWidth=2;labelBackgroundColor=none;fontColor=default;" edge="1" parent="QA4w8l9ihHuYLS0JhNd--43" source="QA4w8l9ihHuYLS0JhNd--35" target="QA4w8l9ihHuYLS0JhNd--30">
          <mxGeometry relative="1" as="geometry" />
        </mxCell>
        <mxCell id="QA4w8l9ihHuYLS0JhNd--35" value="&lt;font style=&quot;font-size: 21px;&quot;&gt;&lt;b&gt;Input&lt;/b&gt;&amp;nbsp;&lt;br&gt;MxNxC&lt;/font&gt;" style="rounded=1;whiteSpace=wrap;html=1;strokeWidth=2;labelBackgroundColor=none;" parent="QA4w8l9ihHuYLS0JhNd--43" vertex="1">
          <mxGeometry x="40" y="55" width="190" height="60" as="geometry" />
        </mxCell>
        <mxCell id="QA4w8l9ihHuYLS0JhNd--42" value="&lt;b&gt;&lt;font style=&quot;font-size: 24px;&quot;&gt;Encoder&lt;/font&gt;&lt;/b&gt;" style="rounded=1;whiteSpace=wrap;html=1;fillColor=none;strokeColor=none;strokeWidth=2;labelBackgroundColor=none;" parent="QA4w8l9ihHuYLS0JhNd--43" vertex="1">
          <mxGeometry x="75" y="10" width="120" height="30" as="geometry" />
        </mxCell>
        <mxCell id="QA4w8l9ihHuYLS0JhNd--89" value="" style="group;rotation=-90;labelBackgroundColor=none;" parent="1" vertex="1" connectable="0">
          <mxGeometry x="480" y="605" width="343" height="515" as="geometry" />
        </mxCell>
        <mxCell id="QA4w8l9ihHuYLS0JhNd--90" value="" style="group;rotation=-90;labelBackgroundColor=none;" parent="QA4w8l9ihHuYLS0JhNd--89" vertex="1" connectable="0">
          <mxGeometry x="-32" y="33" width="375" height="461.25" as="geometry" />
        </mxCell>
        <mxCell id="QA4w8l9ihHuYLS0JhNd--91" value="" style="rounded=1;whiteSpace=wrap;html=1;fillColor=none;rotation=-90;labelBackgroundColor=none;" parent="QA4w8l9ihHuYLS0JhNd--90" vertex="1">
          <mxGeometry x="-4.92" y="50.55" width="267.66" height="361.56" as="geometry" />
        </mxCell>
        <mxCell id="QA4w8l9ihHuYLS0JhNd--93" value="&lt;font style=&quot;font-size: 21px;&quot;&gt;&lt;b&gt;Conv 3x3&lt;br&gt;&lt;/b&gt;MxNx2C&lt;/font&gt;" style="rounded=1;whiteSpace=wrap;html=1;rotation=-90;strokeWidth=2;labelBackgroundColor=none;" parent="QA4w8l9ihHuYLS0JhNd--90" vertex="1">
          <mxGeometry x="-25" y="210" width="190" height="60" as="geometry" />
        </mxCell>
        <mxCell id="QA4w8l9ihHuYLS0JhNd--94" value="&lt;font style=&quot;font-size: 21px;&quot;&gt;&lt;b&gt;Conv 3x3&lt;br&gt;&lt;/b&gt;MxNx2C&lt;/font&gt;" style="rounded=1;whiteSpace=wrap;html=1;rotation=-90;strokeWidth=2;labelBackgroundColor=none;" parent="QA4w8l9ihHuYLS0JhNd--90" vertex="1">
          <mxGeometry x="35" y="210" width="190" height="60" as="geometry" />
        </mxCell>
        <mxCell id="QA4w8l9ihHuYLS0JhNd--95" value="&lt;font style=&quot;font-size: 19px;&quot;&gt;&lt;b&gt;Batch-Norm&lt;br&gt;&lt;/b&gt;MxNx2C&lt;/font&gt;" style="rounded=1;whiteSpace=wrap;html=1;rotation=-90;strokeWidth=2;labelBackgroundColor=none;" parent="QA4w8l9ihHuYLS0JhNd--90" vertex="1">
          <mxGeometry x="95" y="210" width="190" height="60" as="geometry" />
        </mxCell>
        <mxCell id="QA4w8l9ihHuYLS0JhNd--96" value="&lt;font style=&quot;font-size: 19px;&quot;&gt;&lt;b&gt;Activation (relu)&lt;br&gt;&lt;/b&gt;MxNx2C&lt;/font&gt;" style="rounded=1;whiteSpace=wrap;html=1;rotation=-90;strokeWidth=2;labelBackgroundColor=none;" parent="QA4w8l9ihHuYLS0JhNd--90" vertex="1">
          <mxGeometry x="155" y="210" width="190" height="60" as="geometry" />
        </mxCell>
        <mxCell id="QA4w8l9ihHuYLS0JhNd--98" value="&lt;font style=&quot;font-size: 21px;&quot;&gt;&lt;b&gt;Input&lt;/b&gt;&amp;nbsp;&lt;br&gt;MxNxC&lt;/font&gt;" style="rounded=1;whiteSpace=wrap;html=1;rotation=-90;strokeWidth=2;labelBackgroundColor=none;" parent="QA4w8l9ihHuYLS0JhNd--90" vertex="1">
          <mxGeometry x="-85" y="210" width="190" height="60" as="geometry" />
        </mxCell>
        <mxCell id="QA4w8l9ihHuYLS0JhNd--101" value="&lt;b&gt;&lt;font style=&quot;font-size: 21px;&quot;&gt;Bridge&lt;/font&gt;&lt;/b&gt;" style="rounded=1;whiteSpace=wrap;html=1;strokeColor=none;fillColor=none;strokeWidth=2;labelBackgroundColor=none;" parent="QA4w8l9ihHuYLS0JhNd--90" vertex="1">
          <mxGeometry x="68.91" y="107" width="120" height="27" as="geometry" />
        </mxCell>
        <mxCell id="vlSNPFUABqCGarVpqag_-2" value="" style="shape=image;verticalLabelPosition=bottom;labelBackgroundColor=none;verticalAlign=top;aspect=fixed;imageAspect=0;image=data:image/png,iVBORw0KGgoAAAANSUhEUgAAAggAAABkCAYAAADjVchrAAAAAXNSR0IArs4c6QAAIABJREFUeF7sfQecXFd1/vfq9Nmq3VWXbMty7w1jMOBQU0hCGiQhvTdID6RCOunJLyENTBok2EkgCSEQIMZgsGXLVW4qtvpK26e/ee3/+25583a0K620s7L/MA9krXbevHLPved85zvlGnEcx+gf/RHoj0B/BPoj0B+B/gj0RyA1Asb5Bgizs7MYHh5eUghzc3MYGhpakYAqlQoKhQIsy1rR+f2TejcCQRCIi9m2vaKLhmGIer2Ocrm8ovPPdNLMzAxGRkbOdFr/8yVGoNVqgT5BLpfDStbbSs7pD/TKRmCpsVzN+E5PT2N0dHTJm5/us+4v1Go1ZDIZOI6zshf5EjprKTvSbrfFGuGY9PJIj/PZyGepZ+Az+r4vbOBqD77rwsICBgcHT7lUTwHCZz/7Wdx6662gAdm9e7f4ufv4u7/7O7z1rW9d8p3+/u//Ht/+7d++ovd9//vfj6/+6q9OFsjJkyfBP1dcccWKvv/lfhKN7NGjR3HppZcKWfHvlRpwTu4oijA2NraiYeS9PvrRj+K7vuu7kvM//elP48Ybb0SpVBJye+CBB4Tstm3bdsZrvuMd78Bv/uZvnvG8L9UT5ufnxZhdeOGFeOihh4TsOI4rOe677z4hu9tuuw0f+tCH8C3f8i2nfO3+++8XsqDy+ad/+ie85S1vWcmlX9TncK4TpF588cUv2HNSv73+9a/H8ePHceWVV4rn+P3f/328/e1vh2maZ/1cf/7nf44f/uEfXvJ7733ve/GDP/iDK7rm3XffjWuuuUbMJx40mtTl/DfnFg3I//7v/+LVr371iq53Nif9z//8D1772teezVd6eu5///d/4+abb8YXvvAFfOVXfqW49p49e4QNu/rqq3t6r3//93/HZZddJubgcrL71Kc+hTvuuOOM933iiSdw+PBhMZ/08Z//+Z9Ch7/85S/Hvn378PTTTwsbvJxDrr/XbDbxN3/zN/ixH/uxU+7bM4DwiU98QjwQJyXRzfve9z6xCOiprFu3Drt27cI3fMM34Ed+5Efwl3/5l0II99xzj3ggKim+xA/90A/hne98J/bv3y+8U/5u586dYvFwQPk3J/Itt9yCH/iBH8Av/MIvJAaFE5p/fvEXfxEcqCNHjohrv/nNb8YHP/hB8SwvfelLxeLkpOSg8H48Hn30UXz+85/H13zN12D9+vWClSDTwe9de+21SwKdM0rwRXwCFSUB1iWXXIKXvexloILgpBwfHxfjzOPyyy/H7bffLn6mgqDM6GFQlldddRXIClCBcIzoBXFifuu3fisMw8DnPvc5PPbYY8KwEJUeOnQIv/EbvyGuoY/XvOY14t6/9Eu/hP/7v//D93//9+NXfuVXxDX+4R/+QShz/o7X0/LhdwkgX/KSl4AL5LnnnhPyXAqIvoiHf9WP9vjjj4u5zjXwsY99TMx1yojA+zOf+YyYx5zPjzzyiJABWTkq/X/8x38UY8nx+47v+A5hmP7gD/4g+WzHjh1ivN/znvcI2XN9/cRP/AT+5E/+BASFlCvHmzIqFougEeJ9uSa5tl7MBwEq5yGBD+f2Rz7yEbHOqWD/9V//VRiJ66+/Hv/yL/8i3pV6SwPaL37xiwKI8eCc5Do4duwYqPA5ltQR+uDvvvZrvxZPPvkkPM8Tn3GNfPM3f7PQfZy/f/iHf4hXvvKVeMMb3iB+x7+5fpZyjv7iL/4iWVtcUzxoGAjwvvd7vxcf/vCHcfDgQfzXf/0Xtm/fLuTAa/F+lA8N34YNG4QTwHelftNrnOfzd1yDX/VVXyXGgMczzzwjgMfP/dzPgev03/7t3/Dud79bXINjwzHi8apXvUrokLvuugtTU1NCN1DH64NA9AMf+MAix6B7jtx00034j//4D3BO87m1naAO51z87u/+bvE8dCg4177xG79R3If6+8477xS/oz247rrrxM80dPT8007oxz/+ceGMkHXk83Dua/l88pOfFDaC48B33rRpE/L5vNBJGzduFLYpzWpT79Bu8dn4PX7GNcW/Ob8oF8ri+eefF7LloeXDtfm2t71NyOibvumbxDjyPJ7POXnixAmx9r7v+75PrG3qNwIYrkV+zuPP/uzPxPvzfpwPP/3TP50MKW0lAR3nIGXPeUaAz3lNmZNt4n15EPA9++yz4udv+7ZvE+NMOXL8BwYGEiDdM4DAFyc44IThwRtxEdJA0KBwMb7iFa8QC4OC5YKlt0iB/e7v/i6onPgZDQnBxpve9CYxMTlQNFz8mQeNEq93OoDAAebC5YTgpObk4YKmIuN9+GycYBQAFyfvt2XLFjz11FNioCiAX//1Xxf3oUK84YYbwIn8pXLQ+/zJn/xJYYh5kHbmBCKC5OSlh07ZcLx40Ihs3bpVjBkR7s/+7M8KhE3QxfH7nu/5HkF3kULjz1zsBHmcwL/8y78sFNpSAIHf//mf/3n89V//NcgyUE5ckLwHAcKBAwfEwqV8eH8e9DYoC57DucP7f7mxRhogUAFRhgTOnK80MPQeuNYefvhhTExMCOVFGfzar/2aMFY0GPRiqCTpMVER/+qv/qqQ9ebNm4Xi47kEGZTl6173OgGoqaioHC+44IJErlzPnEeTk5Pi2lTUL9ZDAwQ+KwEl5ysB6dd//dcLo0C9QkVMJU66lU4OjSHnGhkVGtk//uM/FuPA71JRcxyp/Amu9RwkYCPDQxkQlNGIUylTUdPY6nVAEMHx4hjzHN6Pc57/1sfv/d7v4aKLLhLrjn90SI86jLqJip+gjUaRxoEsHIEBZclno+HlNX7qp34Kv/M7vyPuQxBAXUpjSj1Hg8b50Q0QaFy+7uu+ThiiP/3TPxXXpqHm2NBY86DMqSf4/tQd1PWcEzxobLie6TRyjS53cHy5/smuUPdyLpIZJlj4rd/6LRCc0fBSj/OZyZTxHpyjfP8HH3xQzFvaA20jKB/qE+0AUn702vkuP/MzPyOMMHU/z6NMCZQpD4IgsqI01ASEBBXUYXQ6NcNDkM1n4bgRgPN5qR95Lb4nr0vnkmPB+9KAUz60izTctE3UsTTkBBp0pPlsBGt0tKh7Ccw5N2gnKVde841vfKM4h4CQdo3zhU52GiBQnxLM8160cWQIKXuOE8eG84vvwesQHGjGmPLj2PM97733XjEWHFMePQMI9DQIEPjiSwEELg4eXIQEBERN73rXuwRqo4C6AQIHntejQLl46QkRkZLm4iI6E0Dgy9LoawVHY8IFxufgtTmBuIA5wJz8NFR79+4VYITeAycHFxmNKe9F5PqlcnQDBL4XDQIRLQ2wZnb0+3IiciwIlsjwdAMEKiJ+RkXzt3/7t2AYiaidKJ2LaDmAQKXAseWi5KKhfIjKCTb5jJQPva9//ud/Foqbi4eLgAuA84Dzhgbry+0gQOAcdl1XKHEqVCpayo/rj2NGpcS5TNlRoXHeE1TRUBHc0cOiUaDsKHOCMH1QiaXXD40LjQK/Q+X0FV/xFeJ83pcGkWxUNpsVsnuxHmmAwLnO9U0QxTAKjRx1C9c955g2HmQKuO7pHXOecqw5fgRi9Pyo2MnecKy0fqNxoYLnmBG80ekg40LgRo+boTGOHcEJD+on6kK9fmgw9MHPCEhoIAkAybjx0N4x1wHXGQ0p2TnKnbQ412oaIJCFIDCh3AgQCMIJBPnOHAsa8W6AQABEEMI59aM/+qOJsSYgoq7kQcPznd/5ncJ4EcjQoPG6ZGToLBB8kWk63aEBAseKhpsGmwCOThmNM9+HRovvQIBA40tjx3dhuIz3onwajYZgQgn2yG6SRdAOEO9PncU1Q9lyLCkLznOCbA0QCIB5cMxpgPleNPpcIzrXjQCB64cAmzqIsvyrv/orAZI4BrRpBDUECFx3afnwM55HXUfZUe58Z3r7+qCTTF3HEAHnDW0f5xpDUXwfyoVjTNBOPZAGCASGBCE//uM/LuTJdyWjQ6BG+8kxor6k/Kin+b4cV16Pdpnzm2NClkkfPQMIVOq8uKZCuhmEboBAz4WITQuIg5tmENIAgeiGwudBRcRFTfCwXIihW8FxMDVAIKrjYifdQgoxDRB4fXrTnAxUfpwMPHg/3vdL5egGCJwkRMT0gojOuwECFSIVFxfimQACvVIado4fPScapeUAAuXChU7Zkm0iQOC8IY1LQ0RFqMNBRL8EIPzD71AZUXkRbH65HVQMVExUUvQCCBQInPh7PYepoLnweXAsqZgoi7SCWylAoAEk80Aly4PX+v8ZIFBZ0oDS4Ogx0nOIBoiGk94cjTgVbDdAILNAGlof9GopAx5kKDg+pG2pRwieaGC0fusGCNoALQUQCNxoYFYKEAgUuH7JnnYDBH7G56KxIMPBg2EqepJcW0sBBIIchh8IKMgU0XDRqOlwEnUpWQTqRjIcBPwMS/BnvifZDJ1rsdwa7QYINLY0vPRyKQd6vLyens+0BZqNSQMEghzej44mD+oSUuX6IBCiHAkuaAypm9L2h16zBgik3wkQKJvTAQQtH9oWAiU+L8eWAEIDimq1mgC4swUIHP/f/u3fFvOU70L5UWY8uP66QwwECASJBEAcfwIPzl/OY+pLypoMBNkhjidDYJyndMCoa6nnOf9pP3sOEHhBCojog2CBiJXUESkPGh4iNh465kcvk5/TIBP1cAHRuNAAUJERyZOV4LU4WYim+aKMDREB8TPSJ5p6ZsyVE4aMA+kuKjOiSaJYTgpOKk4afp9GjtejB0DjRGRGQ8PJyHP5PSJtPjMRLFEw0dWX0kEKjYudE48TnJOEi4vyIYJOHwz3EI1yfHRYgIuAYJCf0VBTMVLmVFCcfFRqHGsqFXpZpDrpHeiD6JygQB9aPgQnlB0XMOVANEwakbImZcj5wcVM5cRrk6GgB/DldJAV4FxPL2RSkvRceFAJ0IhRmXJNco5TKfIcGjYaDyp9eseUHec4PVyt+Hlt/uG4d68frk3KgOELykivHxqJdPz5xSYPnavBecrnpge3FEAgeKBeImCm8aOBpPdGgERDStaB85v6aSn9Ru+VcW2OHb9P/cfwHT1B6jeuOY45DfYf/dEfCfqea0+vH50fwPHj2iITRNlwXelcG83UaIqd64AGnPKl00SdSIaE9+H9aRD4DpwDfCbKmUCR8qJRoGdJfUivnQeZVDISXLP6oDEkWGeYgfqC70ODSkBAT5cMDUMYNFD6oANG+v10lWl0CjkGpMNp2AioqHf5DhogEGBxfBhy5DOQUeBYkOGhkSPDQaeP40JHhvLRXrJ+Fs51hj2p2+is8t8Evhw3Oqmc03w3jgHXDEMGPE/rtzSDQMNNXcY/2rZwDHjQjnBsCEg4zlyLXEMEGnxW/kw5UXYMw/A5+F0CEo4FQydkt7mWydpRv1E+HH/KlOCP48/1S1BC/agP3o92UB90sqkraRM5D/isdN6o56n3adP4jrS/ZPJpkyl3Mu86LNQzBuFsFQKRCoXOCcRJrTNoz/Y6vThfPwuvxcH7ciz3Od04cmFxAtOr4gLlJO4f/RH4chgBGnyGDegZ0gOkJ/ZiYxM1IKdyp8EhuPlSPxi64UFH53yC0zQD96U+xnw/ARBI4TCZSWf+r/WLE7kzuYYIip4I0d+ZSjHW8pmIwHWCC43fSnsxnM0z9cK7Ykyff873QW+HYQmiTqLSL8WDoJCsxmqPB3Y9jEOHj632Mv3vLzECQ4Nl3PEqGj8ZOjnXg54ZnYKVHGQNqBvIWNFrJfvwYuu9Qp1AcECPm96wThRfyfutxTnMg9Gh5tVcn/ZhuYMMMg+GKLT3vpp7rfS7ZC84zrrCa6Xfe7GdRzZCs++nezYBEJjhTyqfdEj/WJsR6EXDShrnvve+NvJhLJ8Z2qs9vvWtP4IPfkhW3PSP3o7AtddeiQfv/ziMVQIEGhXmupyvg3Dmy6ldLal7xvdXe3Tnh6z2ev3vd0aATBhzmM50nBEgyDynpRG7Nnr/vwiyt4s0PqtV3wcIZ5qKL+znvQII3/bWH8YHP/jvL+zLfIne/dprr8KuBwgQVncsCxAMremW13fnpOuoeFb70Ofwyj3Vd2fRkX9NAcJayegcxne1X+mpfPgwZyGjcwMId5FBkDP5rOfzSmCyIbF/98Asda+lEojkGMhvpxcqfxfz2mIhdlajvm5inA3ee+lnkMLmd1MdzfSAJxfqnhL6TZZ/efEJn+8shLfcxOszCKtdkst/vw8Q1m5se3XlngMEVeWR1nfUKytZq8udl/xeOVZpzaB/TquTtI4yDBNxHCnlu5gn0fpQ6BKh/0xAnNvRnmk9muhENfhLGyOtK9U3E31H5yexxFIviguk32DxFdPv0UuAIMZTvYO+B195Rep0GbV8Ohml5+op8kpVvaQxX7etOp2MpJmR1TPdMtIW6NT1kpoxyY2VjBadrD9cStrybbQ9OgeA8HZ8WMR8NECIll3XooZWvE2U0H2dQVcTK+5MJ/5EMcuBtPgTgM53pdFeCjYs/l03EF8ORMiB1vc0YAjQIA21eE4+oro0gcUiyBKbgBEhjvi9SAAPsTQi/SwmYvFl9TTJxQT66Bw8h/frA4Re2Yc1vU4fIKzp8Pbk4r0FCA8CNLJi0cp1uuTBD7RFSq1v7aB0GwqY1ANKZwjHRRrylB1PdNPi+63Ew1r6EZXLpO4j7y0egTorDVTELQzxiKF4JvFyagjkuYk6ExZY63J+RoOWAg2LdJ20FVLlxaI6oDchBisFgCijpWGOvLl6tkRPSydS2Jr04PPzREbSBgnpJ+PRmQ36fh17sVhGaTtypgmezDBhg+TZ4m04zvoXSj5y3JWNEYLUXwgR89m1H5ySkZpyQLTIuHVNsSixe6wWOcsQw8oBghjg1ISQ4NJkxqN0wCNliMXvO8Y4/bTC8MYaGCwveF3q0i2ADgA4tZb5TMJa9BwpXKyFpY26XlzqNaRnYSoPQ8tVMRcUkAAgCfBQSJETsM8gnI1IXpBz+wDhBRn2s7ppbwHCQ8saH61sO2Qk9ZRmFmj0qeY6xkev+cQwawWuFLtwKOh4CF2zvOMl7UW3PhMKdRlQIT8705EYJ/Wg4nGUcVrEhJiShe0YLu3z8Pcd3cd313fl7zvjRScQ5w0gaAOtWYZEbwscJGWmAaB0UhPslljoNJ8cC+N1BiCy5GDL+3Q7sPLUlQG/xJ4pLJDIQV9VA76UjDSo5exIQIMAP/r1UvaI72YQIMgP3//+s85BSAEEgxfWtH0XAtMPqgZKCkIOg57GWlBL0UOLxjc1omeDxuRonJ5nWrTIu4R6OuZBn7oIsqTdC41QFTIX56vFIxF7+rk0c9EJjZxpMZ/u836IYTWjd/rv9gHC2o1tr668NgBBGYSl1rNWAgn1rjTdIkSQ8gKVM7S8LtPGQiuU5R2jU3TUmfTdkizs4pHX6nap50ueJK3rhBOrPlkRr79WAEGxPPoZ1N+aDZYkUOc5E+DQ4XkXscfagKZfNdH7WoUr435a1qJ7Yi8zRsKxFGwV7eRpWJDTLBTphCuWZpGMUrlwBAfaBknDpBii9D17CRAQw2RcLIWN0nhIxMsUMutQbgoLLRevWZTlcLrBknc6fUxwZehs8bh3vnNK7CiVe5GOQ6YR6pIAQglPXE/QVYlmSfDDSuKaZ1KkfYBwphE698/7AOHcx+58fbO3AEGFGAQzHSlduoQB1/RvCvxral7qRXks0tmpf2hPcCljJFV4OtfgTMZjJfqu+5z0O3Wun4CFLp2nw8eSeO88dSePq/tN0snaaw8QtPO5KGyQFkCUZniUDeliZhI6PjXcp8tM0yxAOhqw9JyXY8N5sZy8O7PlVFkzhKPD4d12Zkkw0zX3pDXueN3abmvWQOKXXgAEdaOYeQIK+SyKlagH481MtYAkwlGTUYUOOpOwM2lPP3Bnr2pWmlR06pWXW2zy96cupW6ySJ6RUI9d6E1OZEnEUSZ9gHD2sj2f3+gDhPM52ud2rzUBCGlKOQkOLw6RKq0v1jD1nfbmdPxeBhtSxihFK59Z3y1n0M8wRumvLXEJYWwWJ0Wl9NqpOV9nctUi7fB1J25r6l78fq0AgjJ83Z5zOrdAaWNKopNZInV2RzLaPHdM+NIevb6RHpWVALOzkJcGNF2DnoQZugBnN1hY7k7J/BRIpnOWJLg7ITJ+0psQg879EBdPPdai8VP0SWriJHH4LoQjxazQ1YooqzMrkpUDhFNXUXqadMeQktftgo3iKtL6d1gtBY7iSCf+6BeX6LoPEM4sxxf6jD5AeKElcOb79xYgqBwEwSCoRcpHSMVwkyfS+k6wCNr8pJ9XnaDogqVAwfJ6arFe6vh/nesv+d3T2CyZ37U0nZ1yaxbFzCVLT+Oarl7o5F1LmjyV3L2kEVsjgKBlpADIKaX3KXu0CMQtsj/paojFXrb4+iJ7tBh9dbuM3TN1RTaoS16y6m4xQkg71EsBFykj5YcvIX/N6MvX6TDZ+ro9YxDkw6Xi6amHOac64FPWvr7gypDZ6RZX+qXPrGLO/gwdzxKwRuRmaICgqCQx+mqGLopV8nSZPtIHCGc/7uf7G32AcL5H/OzvtyYAQTMIXTpOZ793pxvI9MQzJwamzLsyxGcKH6xkPFamL1dypaXOSah3fphyQmUCtkq6Trz2tHetcwDWCCAsIaMOeFtEKyizdWbeZvH7a55BkvSLy9HSjvGZ6iu7mYdzlcTy35POqf48ZUcNVUovzHYaMaXsE8dRlcmuikHoXgDpWH2Sa7DETmjLVRacEuvXWcBdCKobCMh/y9maDnVImyyFKs8Jl6bwl0pq6brn6UR4OmQoUbrG46rXgXovtb5khrHiI1mNsdqjn4Ow2hFc/vt9gLB2Y9urK68pQFA6ZXEoUOqXDrvY7e0vVZ69srfteHVSmUsPXesUpdvEnVWel3RzFY2/RG5WykfR5mFFnu0KHjed8E2XR1ZwLM67EAnqyvj84jt7XeYoHVYxKqf0qVA2IFU23w3OZN+BxS+atkm8eoeCXxoQ6B4V+v6GqAqQ59Jzl/NE9rHQTuspz9plj4RE1fusRFantUfd9E4q76IDFzpM2Z13fiDZNvy0NrDTallVMQhHuYN2k0qEJQBBMrH1iy5T0rjcA6RfeCnBC5KMtJcpM0C1UBeVEorfh0I46YHoOPVdyF0IiZY8lhmfqW+daa10Z//qUIPOQ1j0DuJh+iGGM43pi+XzPkB4sUhi+edYE4AgSr/kPcX65bpVlUpptjShf09Jvl6515humSIVWvpdTZGgxtwBbYC1auru2aL1nSxxlKWOyxqPbm9Sna9vv7yvrUGACsTqhxB9nPiZatKkbIV8t7VgEOSTLgI9XTJK+tuknT/lQKa/u6IZnq6QSF1Pvp98CpHQmDLs4ndKlpJt0aBOOq+UqBjFVJJg8iwJ8NMsDD9ZafmqmrfqYgm7kJ6ji8akc49VMQimptBEyO1cCzNOFcdy5YXJ5Naxs0WoqrN4pRCIGFUOgPynWmcqLKLSUiJEMAWi4+8l1a9zKMWUO0swk36bdGMncXkRI6NyUaAjQSf9JMUVLcoXwUl9gPAiEMIZHmFNAAI9Ys0EppqoLaLbU8+1khLpFY1kktDdAQZKnSUhSxok6pRuh0jor8RT1fn3Gm10OXdnwZgu9dwdF+pU9kQCFHV/laTIa7yzpwyCzKVIgzj9nOciozN76p1Gf5KwUey18PU6ml+CBAUadPmhtkQJ6kq6RXSwoGLExdWU3UgSC85RVovtkTZImt6QQE5gKsXycPxWBRAYYkhTH8tN+DMP9tLflFNN0mgJwkuQm0rEUCiNE6ODclXIQc0WNo2yDBORivXLbo2dMFKCqFRXw25abBH+Sjz+xQvhjP0WVGlK+r4K5yQ5CJwdzAJe7dEPMax2BJf/fh8grN3Y9urKPQcIIiEx7Z3KJ10KBHRphbN8JelxyhzGTrN3qSf0M7BDqyQ2k/JCobBiRIlCUc+ntaeg9CWIEDkTwuLoroA6bLGYqZCMsApnpLoOiit35VItnVWvwhxypJJnlY6Y1HG9Bgi8ZtIAP6H1O5Umy7MgKxGT6rgrXt+SyefdMlKOqTa00iZ1OjcK1kCjO2VkOmZIy0VVxiX/VM7jKcmeeqalgIoa6+RtUuHt7jeUpfYMf3Tu15ln7Bwpf3/n++/EW89usyaGGOReDDLWs5LBTZ2TWkEd4JBuzSknpQJliTsvYYKibtJxfdES1IRlmshYWZStQZStIjK2A8twEBgevNBHzfPQjGuoBVUE8MFoA5GSmK6GrgzV/E/KSGu2QnRG1JN9heWIqdwI0Q1StVyTikUvYj5ApwVp2AcIZzmhzu/pfYBwfsf7XO7Wa4Cg7IGgxruTrxcBgpRnQV0lG8LpI634UmXPmlWUbqJGHuI+wsCk9Ku4d8Q4uImsk0HBLqFsDCBn2cgYOfhmiABNNNpt1IM6amEV7ciT4CA2EIIhVl2arXxF7akm9+nccJGjlE6sXkpHCfzSeUdBs2tnKnktXeEg9es7eskgEDGp9tBnNWdSYukAvu4yjE6nB5ECwlA2c8WU7IRcVHdc3ZmRDqljOijaZRStEopWDja/YFrw4gZaYYSm38BCOI82WojYl4GpaArEdWBUqnImyUVQ0yRpPijHU+fFLO3gKha9q7WA/KJ8385s5U+RsHd3vv8DeOt3vPWMQ5razbGTgyCj+cs3KVqUWLHEOknfdVE2sC7t6EIfMrajkz6YcwBYsYuRzCg2jKzHWOECTJS3YSAzAjdjAEULYeskTN9CbbqGVrCAo3PP4njjJKbr06iEdYRGiDCKEVgUEPuh80lSvbc1UkmoPl2hsHjBq5rGroHUgpOwUYc85DvIxESJrSkMmYfQZxDOOBdf0BP6AOEFHf4V3bznAEG0jF+6qU03Y6BzsaT5XZyg140V0rloi3Oc9D4NytMXhiiEaVgoxmVsGtmGieH1GCtegMHsemTNCJmhUVhWDa3KCQRNC5XaHOYrz+Nw/Rjma1OYadcXRIlnAAAgAElEQVTQilrwESHUxoChCeWcJFn5wqgr7z/VEj6FdBRrLJ2lUw7dWVd/sAhMyJwEzeD2lEFga2Hx5MszsItkpW1LAspOM7US7CadxE6Fq3Zb1UWMCKZpoRAXMDGwHuPlrVg/dCGG8xtRii1gXQwjMmG0q2hXQzRrVUxW9+GkN4UTM0cxH1bRCBoCxgVmjEi13ZYySoUEdKKqyl2T49kBNTxzqWTKhPFQMpKS7my4lWBAca8eAASOcbq8J8EAOoNU0VQieVAnqaQmjsj4VJszCTZLLESVfKO8bNHOIo2sYxuWYWNdfhg7x67GuuLFyObz8Nwa/MCHbwXwgwBm6ElhxD6QI8OQQSFjoRQVYHgZtOpNVBZO4NDMPhxqHcV8MIsglXMrJpOoZ9ZggSJiFYReQN2qodN7UwhMMHgaPMmXlstDCjrp0Z5MaimosF/FsCIj8EKd1AcIL9TIr/y+vQcIuj/9qc/QyYtSKlz39k+UsAT+Qlto45vsrigVm2YKpLMgmQfmRclvWchZWVw8dCEuGL0JhdwwzIKNujEPP/bhBQHCsAHLsJAJDfhmC1Y2g1wui3Jow/aLiOsBqo0Kjs08hwMLz+KEdxI+AmHpokgQzSr0QH0lDSxzs4SzlA5bJLZXb8qkKH2RNKkeV+7Ol+jsRF9yQ7tYZHslxodVDO9697tXLthlzhSUP0Ukxj7dsVHp3UX2SDb1051sk0349LspWxOHMQxLA4AOe62Nr3xNZa9iC0W3gPXlCVw69lLk3QFYRRMt/i/20LZiGI0GYsOHG7iAGyJ2yAK5KFpZFFGENx+i1pjFiZlDeK52EJPNI/BiX9qRmPknutKN9kjCVWFNEgCm7KTOkxE2SPe5kMyEID06vqmGgUIi2h7JwIOSkQgxnFMVw4cF96XjPaeGCjpC4q5S0u+XIy9fSMe3VDORpD2phmqGTAgyreR8omciqYyRxS0bX4Kd625Cft0ATnjHMFs9gUazgTAMUJ+rouIvoO7VEcdtOJaFQphFvjiMTHYAxeE8nNhAPrCRLw1i3BnB5PQJPHroizjYeh4toyaSkwXVQzqGbFJswIqJ6GRQQkejFteayn1WEsCUFAV3x+yU4JKsSUnniCUa9RmEVWuLNb5AHyCs8QD34PK9BgjSR0mXKqaYU6nUtCVSgVDpGMhkL80SKp2XhA1kk2Lt/Ahtquj+yLRgRabIm9pR3I6rJ16C9ZsvRN1uSE+zMY/YD9BoNFBpL6DRqqLht5C1DOTgIm+XkSsNI1vOw8kZyDYdFMwMhksj8Bs+nj6yB08uPIZaPAeSprLKWvYWFPUOgs0ME19cghZNLKh3VXkZQpcrPlyYy4SqVjZANYSRWp95EKwGkd5pbxmEpWWk4gApGfFBJPzqUPLaA+3kpalosBoDaT6FAyt2QVR/KCNY2FTYiJs3vBKb129DNRdjqnYQ89UZtNtteJUG6q06Kq0KvKgFh2wPXOTsAnK5URSGinAyNvIekDGzWDc4hrAe4MDJvXhkajcq4TRCMxKEc6TGNuLzh6x60A6nfHfhfGrqShnnhFhIEiCkjBK3V9k6AQsSINuR0TkmKd6t0JrKvjQs9XipoJneLjM9adQmjmL+xTEsyxKoRoPPdOzEsKS1NSJLIlIzxobSOL567E2YG2zjRP0g2nN1zDZbqIUV5IomfA4kWQkjgOu4cAbyMK0QcQuInTKipo3QayKKQ+SqAXKGieK6AgYGhnDR0Ktx5OgzuO/5T+BYbS/iAIitNqLQAAUi8yJ0KEDFIgUCVyVEPEXtUCm2gI6JwakgUrFFwbh0KiY64ZJQTuDIENurrvboJymudgSX/34fIKzd2Pbqyr0GCCLmnDTh0cZBJAPIR5Y1j3Kn2kV5RnQyZLxaXEMlC+pyZ51rJf42Iehp+AZiM8SIO4CXrr8NxeFNmIpPwp+fwdzJOqZdD47bhOmaYL4SjQcZ2lzegZ11hf6L4CCI8ojrIcK4CXchQr4dwx3IY2h8DDvK16I528Tjh+7D/VOfg2kQDFCB8XwVizape1VTHWlTVS6DzNYPLYZ3Y8SBCqMm/Q3Mzi7JdLCU1ZEUOD1aEugSIPSSQVgsI+UPq5wR6cgpxlegGNXwWuSF8TOpk3X/3k7GgQZ3Mq4gcAHHSVVuFjI53Dr2Emxdfw2eb+9Hq1pBfXoB01EDRsaDlbXEeApfkOCN8ik7QDOAaRUQBwWEXgtBHCKqtTDkGcjkMyiPDmDr6I1wmhk8uv8e3D/7OcS+J9BLhACEBmBGgxkgDjUnzTkk30DmghiI7FjKSKaeyPCOYK8cKQfF2Ev0p+yYsHNkykVChKhiOIccBMUgyBHrbF+sF4xe6RokJH0ERIcgXX4gJ0yYAhUqMUfPMLIGNKiuYWBrcRuuH7sZ1oiFg0f3otKoYM7yYORd5HN5ZDIZRN4UAr+OmfkGsk4eTiEDJx8jt66IjJODHY/CjIbht1uoTE3Cr9VgRUA552BoYBzr3A2wIgu7nr4PeytPwTeaCKJQ9kST3JLiCrXHIF9FvJLKUBULQn2s2ZLkF2RdlGchFYvSLxS5QOH9EEOvjMRaXacPENZqZHt33V4DBDonkr5WRkZ4MsqcqFh2J36raF3xewkMhO4QJ0glLDa2E4paMahCL9DwOLARYcgt48rRK7B1fCem6pOYmT2B42YVvgPkCyWUcnlEQR1RewazlSbQjmAUCyiVLFgFG4XhMiyUYVLftW00m7OYPjEJ1wtQsG2UB4ewdfACFJ1R7HrkC3hyYTea4YLIxxLqKyJI0Ult0tdURRTK4PNz6dDIXQH1+6nxUVsNa3ZEDFeqs6wwTopB6F2IQQVoEj0sQw7C4e+eWlKZS7wimJFOHF7hPKGLRemo5skNQiiy2LbgWQbtMq4cvhbb1l+AmcYkZmYmMW82sWCFKJUKyGWyMOMWovY8FoI2UPERZbIoDNpwBlzkygVYGIAbjYK8T2VmErXZGQEE8paDgdIAxjMbsH5sC/Y+vhv3HvsCmkZFyIhjTrMpDm1PE4ZH8dsEBvSthbOqQJz4W/XDMHWzplRraSVS+ZsITIZ4/2qSFJM8j674jY7YyMFXL6JaO6bfKxQetSaf1DaX/KdlwIhsIcCyncflQ5dge/kSzLYncaR+GLNGG5nSMBw3ROAtCDTUWGijFRLVAgVbxtCsoIm2EcB2bCA/gFw5ByObQxZZAQSIDrwoC7/lw5irYjiTx8aN21BqD2P3wQexd24v6v50EhJJ19OqFiAJdSXUgRoQUnSdZhRaiKpBiBgT7XnI0ZCNTySwYMLkao8+g7DaEewzCGs3gmt/5V4DBIa4kxwx7d8szjDsvJRa2tLm6DylTimaaBKkYuAqA0GBDwsZWJgoj+OVG1+Jhh/g+eoenAyrCNw8cgNZ+O0FmG0fXrMJr2UgiE2UESLrZnDCm8OEZWPWDlHOl2HlczDyGWTcDNB0kHVNtCITLS9CtNDAYGhheGIQF49ej+NHjuHeg5/ElDeLKKSnymdMZ7WrHIUkKU7qMFLe0ptW76myMpO37srD0KXgjKcTHzHE0FOAkCoNE2OrSzXT+03qh9OmSVWnpX4tGzkJVlyZL80cwIIdxRjPj+PW8Vth2S4O1fZisj2DMF9GvpiH355GHLYReAGa9VDIyISH4WwRC14Fg4hRtyLY+TzcUhHIZJFxbJheFqbLMbfhtU3E1SZyrRjjGwexsXAJpo/P4rETu3G49hzCqKUc1sV1MlpK6ZLciGBN2RQN1PQuVWKMNHATBkz1XBC2Wsro/Xfeibe+9TvOuGhPqWIQsji1kmUxXEvR6x2BpVG4fELRFUyjaVI9JoVjomQWcc3oldg2fgEOzx7G0dpR1NwAQ+UheM2KSOqwXAtxJoOcPYBCeQJuZCPIxgjaFWydb+FEs4ZJBGjHEcxWiNDyhGDBEEYWGB4aQskvws+W0ZhbgFFtYtPYBmzJb8ORo0fw2cMfR9sKRFhCLAjxyLKsRYIANcJJAW6HGdC1pMnk05SXDvZIeCA9DdVdrA8QzjgXX9AT+gzCCzr8K7p5rwGCcFiUdl0qKVsaPk1hpwKlCbWtHlvri1QMXKQrmzbs2MLlo1fg6o2XY7Y6g4PzRzAfV+GWs7BNA/PVKTgG0M7YyJp55HPDyDqDsDKMTbRgzlaxddbDF50GQjKdTR9h1ISRZaJ2BlEmRLaQw2hxGLY1gPm5FqL5CkaKOWwfvxRONcYDh+/H/upeBEzXNiLpfYsQsNRRAiSpUIEMpag8LakUE0dKY6dObob+WCcRMqAOvOMX34l3vfvXVyTT052UJCkKg6R6LiTJeykjpe1RJ59chT3k1TVDJBrZCd5Y9oogc0w224otXJDZgqu23gDTiLB/di+mgyqcQh6uZWKucgyOYaCdteE4ORTyoyIfxIxt1EsNlObq2DbXwh6/hTk3QtQKEQR1ZIo2gsBG7AKZvIshdxD5whiq9Qb8qSqKeQeXbbgCQSXAwwfux8Hmc/DitggJiZTFhIlO2SPB7ksAoYGAlFe6dDaV0Km6dyeFg2ywFQPvOzeAcLdkx3Tpj+6mmUq6kT/KFsjiIcW/9c6GEl0YonZVLx79IjL3oGBl8fL1N4lFcKI2i8n2CUQ5C3begh/VgEobY7kB1AsFxNm86IFgFJmikwUzUD2jimKtBs8AvFwRVpiBV1lAvT4DgxQaYwvMAm7WGbHD4Og4TGcQzfkWjEYNF4/sxOhIGUcffxhPV57CUXhJGEE8sn4vxuYiGQfSry+uz4mqt3zVL5lUNSjKRyVwygLYPoOwak1xHi7QBwjnYZBXeYueAoQHH2JygCqfkzlFkh3QQEBl9OuKrjQ+SLZhkUYqiXHr8i9B/xpwYOHykUtw0cadaDYjPH1sD6KCDbtoITLraNWaGA/z8IZG4GeZ4JYXoMLK5GFZDErU0Yo8TOybxfFtA7DMgmAJqOtYFSUeyfYRNhuI4jbKpRKypY1oNdrwTs6h7Ni4esO1CJozeGj/F/CcPyNKIUOVdM1qLHGNZH8Drbs5EEIBSrakY4mEXk/IY+VMyT4OqmSvxyEGxt9lyEC11ktMi/59p0OuOENR8zKJVMEDLRf5svK3ItRgwEaMHZmtuGL95UBpGI8e2AU/G8MqOogtH61qDaNOBkZ+AM1cARknCyuTgc2/m3n4mTkgaGNkeh4zbgbhwBDCRhv1hSkEbR+CpTJDhK0W4qCFXDGL8uAEmk0H7dlZlGMHF41vR9408Ni++/Bk4zgChoTI5EiDpLYGkPaow56kKw3TYEnbb/mewk4zjCZArLRHqwMISWxHNTZSG3AsSrwRD9/JQtTC0M1GRGKIDuDL6JyM+cQhbhq5DldsvxoHTjyDZ04eRn79CKwcMNOYhukbmHDGkZ0owTNzsKICzNCBVbLgNHOIwxCt7ALMVgN+sYk4KqNQG0Hk+vAND3HLhxc1EUZthPUamsdn0MzPY3BoHYrWOlQrTdgLVWzetAU7112No499DP9deZrtlRCZMhwg91FXcbqk5bSKP6rJl2Qpqy5sIowgMmEVjEvIFJ2D0A8xrNI2rPnX+wBhzYd41TfoKUDY9ZBgG3WbZflwyqtJhRkW768iF3YnGVF7p/rV5GcWbKGINzvjuHnHy1BpV/DMwf2Ixi3kiiXUWlPwAh+loIzxiWHMFUooBHkYUVYYa8fKwAwt+JkamkYDzsHj8C8agFtfByd2EToeQr8tQqhts46o6cFbmEGjNYPCYAml7Cj8loHG3BxGbBcXXXQF4kOH8bljD2ISnuzOqPYLUIkGCTCSWEChIeVoy0RGXbmhP1ckqc7VoJOk9OU739HDEIPFyjftbKZcapVokOQbaBGosIgOBYkME1WNLzeTku9mChlF2F7YiJdueQV8ZwFPHjqGaWMGpXXDaIYVNLw6hsJhjG8axLybRyYqwopyMFwTdmzDXsihNTyHOPBg1WZQd2Nk7E2wIweR4yPwKCcfbdtD3GiiPTWPajCF7JCNQXczosDC7IlJjGeLuGjnFSgcOorPHN+FQ35dddBMMQeC5FEdjlN7CIkwNikhPUg6lN0VBtNdPAXFI0IMZ1nm+Pa3vR0fvvsuhblUIgjpiMR9XmwAdZmPrv9LzhMTTM8s/laW+Tgw8IbNd6A0fgEOPb8fR8OjGJwoox1VcXxhBnmUMDg8ARSzcFwXUWTDgYtMMIiQ2agB6aAIoeshtiuYqj8PNzuAwWAT7HYOpmnDsytohicF+rWcDPy6j4W559H0ZjBYHEA5N4T2AlCZPoqrLr0ZhYERTO66B/e3n0czbutUJaUrOmWLmoaUGbFpxJ0iShK0JpecVCWSzqEA+1UMq7YPa3qBPkBY0+HtycV7ChAefEjUw0tGXXchVAZfedhsbiZ7uGgKPpVHlAoziOY1ZKxFYYMsnd5e2oobt98Grxbi8emHETAMsBWYOj4LrxVioDgGZ2AQTt4VDd9CO4NiUIIR5ESFlWFF4k89M4v2kcOojQQYcrch2xqGHbkI3RYa5iyi5hyQLSH2QzQqM1iYPYRcxsTYyGbEoYGFE3UMOS4u3X4tcPAA/m3y86gaftIPUuspma2Y2qVRbTqUJHAqvSey9xO7oB0nFZrtcZIidbqqJ1WsrQZwur4/SRyRTI5KQNTykuFy5a0pI8pzosiCbUTYmBnDDRe+HEFk4Jmjj6BVMLFl4xAOz0+iVfcxZI/CGR2CkbfgIIfIsJCLizCCPDsewQgixNkIsdNEyzuGufoCBoqbkW8PwEYRcGPUzOPwWnOwHVY3xGg3FzA9vQ9uxsJIYRyunUNzuopsaGL7pddiYqaJDz3zEUwTyKVbcumcgk5KrZKDZklS5Z069q0ZHpUnmPQYjs65iuHupEJCzJdQb2OpjKL2rBVNQfjARSFbUqaQpd6NSpQHicIN3FK4Eldd93o8dXgXnj88ieKOddgwZmPvvr1oRC6Gyhcgvy4HIzBFy2R2UmTYITe3DlZYgIcGXETwLR9xYR5TC4cQZGyU8qPI1MvI1wfhlzws4DiCZhNm3oZthahVW6hNHkczmMHwyDC2jl+KwweOwZls4OLrL8YEduDze+7CnvYhOcHEOyrDTqCjcxBI6YmKHgWUZKROll8qdK0pHcG2iDFh2U8kwJ3fT1LsiZFYq4v0AcJajWzvrttTgLDrIVGJINlCGXfX+QbJro4pZ0ezhsLhESFURcOrCL2oiDKEX4oxZxAv3XQ73NIwHt7/GNwNAyhtcDF3fA+OzfpYN7IV2fIgMnYWkdFC2MoLFpUeql0ZZE9EWGYgmim1yifhHzyB+aEqisMb4LSKyC4MwHFzqA0eEyyB0NU5Q3ir1aMnUG9NYjBfwMjYeuSicZx8di82b9+Ai7fciF2fvxsPN/Yn7eU1DS8daxmjl2MhWw5rYkWU2GkvVVPfinRJSj25c6Eqc/zVHjVKkjLSJWXaxuiyU50wquhztQeBfA1TNcTTVLxsiU85WkaMje44XrnjdWiaIQ49ewCzQzHWXzQENI5jz5EpDBU2IT84CoeJ8NkQcc2GkTGRsQvIVEYQhDFsoy269AYDdQTNo5hZmIM7NoJsVEZxYRCmW0SldAwtb0GU19vZWGwPUD8yi4Xa88hks9i2aSvihovJA8ewfdMwLrvotZj57Cfwr+0HBJst7RGTRnXZfWee6i3CF1UziPC2TAGQqTEKVDHfgpAjksWULHP89rNNUrzrLp2DoFs68gadjZu0QRRxjFQXK8keyKAPa3dl00C5b7hjmLhh4BJcsOUaHJo5iZO1Y1h/7bWot47g2KGDyBdHkMmPwylkYfshrLCI0LQQuW1E2QDF2giyrUGwG3kQt1EbmIZjtFBtzsCAjNU5kY1ccx0sM49Wbg4NfwZW1gbLH8yyAW+6jcbMFBaakygMZ1EankDreAXR3AJu2HYDGm0f9x24F3NRVRh79kCwLHoFMs5nMiNW5xkIb0H3iZDrRxdKaVUoBUeAFWoqoV/F0Ds7sSZX6gOENRnWnl601wDBtFXvfa1UI7Z51z1QpM8j2AGJ/FXiG1kFyVnLkKpsKKR+wnCmjDdtfz2mjBAHJg/C3bwB7voAxx99Bm3bweDQBtj5IVhWCNt3AaOIkPsq5H2YsYNSbRx26CAKfCwMziGy5hHPVlDLt5GzBmHFJjJeEVl/DGHJQxXHEYZtwDFhmjGCugdvtoGF2mGxf8O69ethRS6iyTo25ku4ZOAG3PPkJ/BEvF/qKG2AZBMbYhKYqn+Agk2qlVSnjwvHJEmgU+MidCL/mMA739G7JEXB8iREgGqJLMSm8sMUsyGBjAz1yuR4HQ6S7I/Y3ZcVDFGEscwQbp24EdHgIA4e24+a7WLLddswdfgpzCzUUM5tRmZgEJwetu8gNkqITV/YJPb4KdTHYLczQDtEdWQBvjUDu1XHQq0JtzQgmixl23lkvDGgHKDqTMJvtcQzmZkYYStC+0QF8/VJNOMqBkeHMZgfxvzBQ9gQDuGSa2/Hrs//J54ID4nnVjsLdcoaRWmm6vHA+ar3i1AOPP/SDQwTp5VMGHsrKOAn+iCcLUD48F13KQZB02qnxuRk4msMdlLk3wQEUhQqNic87E6sbrM7glt3XAu7GeLho1MwLhrD+PZBHH3uKfg1G8XyZrj5MpzIhW8sII5sWA4bgzBSEKIQjsBtlhD6gJ+dR6M4hyKzRYMaYiMHK7YRWyaK3jAyjWHUSrNoZmZg+hk4jAXl2whZr9qOUZ2bRK1xHIWcg4nNY5jdM4Vys4zto+PYt3AUjy08KzbY0B1Tk35WSfquwkGplNGko5VKXEramyoGQQCnsJ+D0FNLsQYX6wOENRjUHl+y1wBBJJAlWe7SwCR5VCIbr2MIdTa/7Lonw4+yL750uMkjMinx5qGd2HnxdhzYP4PDVoixqzfj5OGnUJ9vYGzicphWGY7lIkYLQRiIUKgZ2ogzAczIQcEbhdnKoG3X0BqcFp0Vc9PTmBq0kTXywjPOhAUU5sfh2xEqo8cQBwGctgvDBoLYQ2REaM3No1k/Bs9oYmxsBOFMA+FRE9duvxx5r4UPPPcp+GY7obFF8rUuh9M5VJoV1tUc1GWavu7UBqiCLdm+nmPRW4DQleexKN+rk3QoAUJqXxwdWtDPrsTpRCauLV+EK7ZchoMnjmAy62L8im2YmX8WUwenMVLeBrc0AsfMIgJtR4DIdcBOFqy1Z+5Btj0Cq8WckTbmJ47D9j1kGguYafqwS2VhG7NRDoXqBkYiUBudEn0QLNqjuI3Q8mGFBlrVJmZnD8AwWxgaHUC84MM/4uPSzVuQD3P42JEHsBBPK4CqGZ5OYY0uJhBbB+hukJ2EjU6XST1mYoxkZd37zgUg3HXXXUnXpqSFskYlEmou2qQhXR0o5o5oFqQ8auYdxMBLR2/EpZdfjl0PP4rWxCDGLp3A0ScfQ9A0MDCxEY41CDcuwgzyaBpzsPJNRKYjKhaI5oveejjtEsLQR+DU0SxUAKuFSnNWxOKE4DIOckRstWH4+RAtd0YkjoTIIh9n0I7riLiXQ+ijMn8MfnMekdnG1vUDeH5PHZtKWVwwdDE+e/ABHGscVWpNJrQkia9UBmG6CYpmJZOCk8XUjspBEAEI5iD092Losbno7eX6AKG347kWV+s1QDBFT37JfC7aBlko0i59l7Sr7Tg/moKXFRAxdtjDePVFX4ND7nE8e3gKQ1dtQ9CewsyBaZTGxmCVRpBvl+HEBdGeN3YrQN4RnWANN4Ibuih442DnJB81NAtVRGwaV59HxWwiaxVh2Dac2BEAwYoyWFg3hcivweD+DMggpKdLw2YyibGBhZlDCKI2to8WMDsVw6jEuOKCcTy4dxIHmk+LfWhUtlRSjSZsTTIGCXGiQqqSK9H0dYIXxIBpgNC7JEXNIHTMkEqgTE8wDQZSOxrqajsNAYVXHccYNkt4w/ZXol7y8fAzz2Hshh3IuB72796L8vA48mMb4AYluGEefhQhys4hypiI2xJ8ZJFD1huDQQYhbqI2OIfYaMPn7o3zDdiFAuDYcAwHeX8EVi0vbJZvzYlNmtwoCwQhgkwTURCj2ppHfYEsUAMbN+ZgNkdw9Nl9uOWiKzA1Y+DeE58WXRZF9QKNu2jQ1WH1O3m1MqyQhIWUlHSoQYpT7ckRAe973zl0UkyHGNKFlYkDra2lmhUqgVXlhSqJKfLBjAyMGjm8YstNcAsDuOfwHuy49RpU5o6geqSJ/OgE7HwGNtgbIQd3YRhRJoZfmoUZuLBiB7ANQecYflaULrbtJny3jjBfQX3qqOiLkHNLMBwXmXYOGX8YiLLwLG6kMQPf8TBQn0BoNOE5LYSGj2YwB6MZoTZ/BE7eg4t18GYXcP3ma/HEkT14eoadFoOkR7vewllurZqenJ2EGYleVdvSpBWWRHyCoIyAoJ+DsBY2o2fX7AOEng3lml2opwDhwYdSbKkECbKcvtOYN21cdK62VIEqKU/9TOeIDdq+dv0N2LxxJz7z7GNojJkY2zqM2f1TyBbHgUEbVmjDjV2YHpMRswhKdRhGCKtdhOEGcKIBuI0ywM2Z0IBv1eEP1WG0Z1GdnYbNTopWBlbootgagxmX0KZuc6uIzIYwbAYT4dwWwoi9YRpo1hcQVBtw8vPIZUZw+MnncOHoFmwsbMfH9/8XaiqsKt9Vxa31T4opldn/msLn3zIHQDeB01hCbzzUqyoGERLQZY5p46ftUALi9JTTeQYK9CUJ9iQ3ZCD4puxmXHfJrXh8+gCm3Rjl8TzmjhxHPrcRxmAetuUIlsBqlWAHRfgDFURxC1ZUholQJB/m6kMwQkNUJ1BOwUAFYTCLVmUeRiELy2UFno1sXIbTGBGyaGarCK0KXL8Ex7fRytVFmKRpLKDdaACtOoJwEqMbtmP/I09h5/AFGB2YwKee+BQqRkX55qp2U5V9dlJB1MYbnWHQhFdSZi8+EvNbgrhVMQhJKU8yKVReftKkQuowe40AACAASURBVHVHFDeVhlK2r1ToIGINsIlL3I24acPleK4yi+OFGO56YPq5aWzafBXATmCM9ZtkChxkKkOwzZIw6izxsSNLhA4ckdXLnACgaTXhO01E+Rrik1NolSJY2TyIne0wh1xzDLFvwLfb8OIpRFkDxdYoIgIDp47IaAv6jbtvVSpTqJ94DtnBDMwZE5sKQyg6G/CZw59ALaorNK1AgEpilnSiyr/QrUhTiTwyqqAaLaltNoS6YXfLPkBYM8PRiwv3AUIvRnFtr9FLgPDgg7uFkev0NEnM3GKHR3VKkHlWIi1bbvQm+ywrR8LAYJTDm6/8JrSCGXzi4B4MXDgKv9GAa48iPzou2Hez3YLBGnqvgGx7GEEmRBxacLkBApO5rTzgswFSjLbVRNtsISo1ERpziE/W4I/nRXybzZeyjQlYQVaETwkQYDRhsw1zYKFh1WDYTHUkGwt47SoWZp5DbNVhVLMwphv4ytu/Ep97cjcen9qVMMM0WPRQZY8b5fRIqqCTgqH1nVL92kZLT1XuSPiOX+gdg2BauleF9IAVilOhDs1fKPuk7JEOeYt/6nJIGKLZ3jeP3Ybs+nHsOrIfxrYcFuam4caDGBrbJHb9NeMQpm3DbheQ80YQONwjwYIbcXsARngyMH0bphGLhHkvriMstxBxF85WXbANtpkVOQKZ1ggcrySSTttmDb5dgxuX4IQ2GkYdYcZHFLQRW7Hoojh7ZC/a1hyGzc1onZzEtduvwRNHj+KZymPCZonofiT36JAbDEphiP8qGalkmBRAUFsm6BbiqrLunADC3XffrQa+Yxh1G83OTleqhbDeSLKrJza7JdIglpDFy8oXYaK0FQ/MPgN71MTkfAWD67ZhcGwLjMCGHZhwRB5BFobnQk4GLhYDhggxMEGEC4bUfoy27SMgSMg2EQYLiDJtWP4Id9mEHRbgtAswIxNN0mv2NNilgpReIMqFphCy3agZw8+2ER4/gZYRolmdQtzwMRYM4Jptd+Dfnv4QFoJpteOnCjKoBSN6ratQge590J0xmlCVIgNIPrdof90HCGtrPVZ59T5AWOUAnoev9xIg7Hpwt6jAkt5NSt8lXpiqTlJBd2F0hCbWWeI0pjQasinSTnsQb7zlW7Bn39PY3XwKxYE8Wu0sRtZfBDdTgs08wtCFYWVht2lA2HKezXpMCR54cctVVw9FfkBg+YjsOlq5BuJWE0YmCyfMwAkysPw83LaDthnDM+cRWS24YUmwCzVnAWF+Hu16ADsXI2wuiN0Hq81pZFDA3PFjeOMtr8OxEw18fN9HAZOdYFQ4lUl+IpTaCSPobHmdsCkS3dIlDklll0xk7BmDYNpCRgl7IS1+R15i50kVDtLPm4AEvTcB7RFlZGE8tPDmC78aRzMeHjrxuGzOZxQwPLEVjl2CFVjCeJvIwQqzYBsl3RETYZjISLY8jhDZITzTg5Fpouk2EEd1AC5cPwcztuA2B0W3RTanapkVRFYDblQUMqxbFYTZabRYzZiNETfm4LWaaFQXYBoeoikfN4xdhwXDwBcPfwq1uCp3axTsiaoy0SV2AhyovkXJLp4S4SU9O3SfHjVgZ52kyD4IzEFIUkZVMqJGYZJdV5tOp3Z0JFJiFqWkL1Qby8jARncIr992B+qhjy8e24V6XMfotquRGxuBwS3LPQqNiR8mLKIyj5yDhVxYgGlkVHslR3ZlJOVGOoc0DdqI3Bg+t28OPJiWC8cvwjFzcJpZNq0SODY0AwEo8l5O9CBo5+poOrOIY+JE2VOBOQn1k4dx8vh+DHoFvOaKV+DBfY/jscZj8HXIQCsPUSKTLnOUXRV1DEjnjcYs9VEVHhK8EiAQIS6hhM5Sqfb3YjjLATuL0/sA4SwG6wU6tdcAQXi8XKRqvcrMd+1/qnI/tcDlpsmksLmxD6uTZIYjM+YHTAcvHb0eOy6+Ert234+no/0oFtZjdNtOOLksjBZ7KTODnd1gTJjcjyZwRSKbbeRhcvMa2xYVCjQ+7DXg5asI2GrZDtG2W4iiFsKYLZhyoiY/08rD9iwZuuRmkXYbVkhnivrYQ3P4JFqttnK6qIcCNGtVHHlmN2K/jldsfQXWFQfw0T2fwlQ4IzZpIivCtAzZZV7qKzEaTFNIN0tSG1yJ0RJNFFWFA7vYhr0FCFIkOrSbyhcRCYm66X0n3Cv4BuGTxaJqQQC6mHDMxE3Wdtx24+uw++hDeOzEk7CLAxjddglcduT1uDuiBcOyRE8dK3DBrS3zUR6uU0TU1lsFOCpnI0KQraEZ12BnDXi2hyiqi349VpyDI4BgHpmWI5pSUv/7NpMTATNwEJk+GoPT8Dwm25uCIedzB14NR/Y+hLDRwo1DV+PCia345L7PYn/zCGBGskJQ2R3d9VPveySbX6o5rXZ+BDcltBQrJNhvCSZWBxCUAkiXMgo6Q9ygk6t4apcxWwyGGwFXlnfgpRe8DPsnD+LxqUfRypjYesnNsLJlwQ4g8mHbIWLTFIOXY81n7MAIy8h5gwCRnMHaU1sg2sgI0MgfE20rSZvFdoDc/ByqJcbsbJiOJZA1S4Aszwa7WTOPgQKLyTwYHgIzEDt2GSHDFwFamQpa3izmD+5HdeYkbrzpDpSOVPGxI59Fw2yqfbrV5EvVk6oemKmMXlVvqnY7S6CAQNr9VssvkD05q9v2AcJZDdcLcnKvAQJp4oQwSNoNq91d6XVSmSb5VinPVVhOGh96mBEuy43jpZtegXq+hUceeRTTxQUURrZidMNlsqsAS7DMEI4dIQpdZITPw8128sg3RxCbWVg0LI6jNp+O0MqdRGA1hIFui26CcwgCsgxZYcSsOI98KwfbzyPyZWteM7IQRgFChi4sUuOeuC53Cmy7dfhmHfWnnsGJhUO4dN2luGjLFXjiyc/hkcZeQVlH9K54R/3uCbOiQFMqRz0ZOR1yEA5Q7xkEuTdEF3Mg+h2opD2ZHS9zwNKzUvyDMmKOW4SNVgkvH7oNpW0TePiZh/Bc+yjKY5sxPHExbNNFFPswoxB2JkI7MkEux6W1CFmuOAI7yIoNlxh+iM1IsD5Nexbt7LwATz593VZVsN1tOw/LoYyyyDZzsFtZQSbzOSkjgs3Q9hDEASKnLWQUhTGCbBNNuwL/2Ekcf+4xTExsx+2XvAy7nrgXu6cfQ2AS9qjyznQMSG1Lvsgea2JFjUmHhZEyOieAwE6KmkrTtf1Es6KiQSAPvqPak1tRPRJF6g5cpOUMrHOGccf4bRhevwm7n78XJ8IarIyDoe0Xiz2rXS+LXGsAhs2s21DWtDqeymGIkGkPIoOyRK4c6ECi1IWB44jdptjMwowb2Dob4cBYhDhwEbmuSETJNYeRqQ0JlER6B4zF+T5aTgWB3RQdsGKfXcoAM+ejZdUxN7kf088fxKXrd+KW7bfini/8Bx4J9iZIUaYeqN7sOg4m/YcO0aYW0+KYZn8vhhfEkpzDTfsA4RwG7Tx/pZcAQecgJABB7f5HD4weJOPGsrpBbfnIfAV6P8J7U3Qu692NDF41disu2Xojnjz0EB6dfgTZ9SPIFkdQHNkglH+2Xhb7KFB3ktlky9zYbCM2QlGhVQiHENGFFDaN1oYh0WmE+TpiGi7LB2oVkVztD7kIrazYmI79CsoLWxCJvAXuQ0MwwjK6tkh+s6wIscd3iYFMiMBtoD5zHEf278agOYobd9yA0Avwmef+F/MBk/HkBkaibC4xvNIQU9GJZlCqXbH+WYYiFLsqrOBaMAiKyohoHtV2Syzrp47XmfIKHehqOtGfQgXkmaP2qtK1uOLSV+Jw/UE8fHA/UM4iOzyM3OCYaOefqxThGAXEjiWcS8pGuPuGD9NwUWxMiIcQISHGPQKgmZuHV5gWzYdgtjFQbcCIfMwVXMROFkbGgePZyFYHYdPppRll/kqbGz9V4MVVhE4IqynnlZFlGL0Fz5jHwfvvw2BhBC+79HbMnJjEvc/fgxpqwg51OiMoZkWAIz6bbPAnLZPCVTo0lmzfvQqAcBdzEATLJTcv0dZPZvJrfKaCHLrBtTaU4nP2Njdx48iNuH7z1ah6NTx57Cm0hw3UwxZGNu0QlQlmk12omHBTkH0MmKQDBumIqg1k/SHYKMk2zVZIZkUIoVo6icipgTm+lh1g0HMwZTLbNyvRvGUiWxtE1ivLZxGUERD6AQLLQ2Azc9RHTCrODNHOtkRf88rkPiwcOYzN2ISbb3s95vc8jn8+8jFRzSD6losRT4cIVGKmztBJKY10+bTInejv5niezci53a4PEM5t3M7nt3oLENhJUem0VF+TRLXq+nkVcuB70hixcY1q3SP006bMJtxx8Vcgm83i4UcfwGRmFqUNowjgojw2DniB6AprmDlkg6ICHmpHPiuG2y4iF4+ITZqEmaVrGkZoZObg5WqwUYcZRwjsEEyhil2GAmzYjkOOFAPTm2WultjIR2SxITK53X0FsesjbssOsKEbIHA9tOcmcXTfw3CNLK6euA6bNmzCZ/Z8DPvmD4qwQihCKanIqfZAhRFKOUmpLAQdcRbhVe7m+M7eNEoiUEu25E5ZPF1Z1tlts/MwQhUnCfPSzS1ZQ3jjBa/D+KZNeOKxh3EgPIjM6ADCTAbFoXUw/Fj0KLCMLOyoIOyRaJNPgGVGwo4U25uEjIQh50uSQchU4eVnEMctGHGAAssXLQMVm3bMAjLMs3NQqA/CDsuQ1HeMmOfZbP1XR2S3WKAnQFjo+ggybQTmAo7dvwtFt4hLNlyKIaeE+w58Hs81DsvdhxMB6UFRcknvw5CyV+lUThEDYpnj2e7mKHIQFiUpyt2uVB+xDp2u+l2L0N0iUkfGHjjx3nLBm7Fu8zj2Pv0gjtfnEW/OotJqozy2Ddk4hyD0ELsS4VEwbuQg9lxEtqxqyAQjcKMCBCQ2Q9EhDGGAZraBkEaebUgduZBa9gLiOAPHKwq0T0SeiWQWKSMZRP1mIDcnIXoPmQBicHOnpqDdYjTgzRzF3MxRZGoWrr7hduywJ/Dee96LBaMiJorcelNnw8j2nnIHSwWcEtSWquQQC6sPEM6nAVnNvfoAYTWjd36+23OA0Ek50DVgKTigEuBkirjyoBmg1IlfgGtlcd3w9bhpxy1YmDuCB/feD2t0EBgkIBhCcXACIP3vMNnQFHsu2LEDk935qJfsEE4wgBxYNuewVlKwozw8uy7KHEO3IRvsuB78yEPEPRp8bhxkI2A/hMaojF+r7Zvp0wisEEVyUyfQ4LTQdpoiwXv4+FEcmz6GqgGMu+O4/qobsOfp+/HFo7vhGdzIKa3qNG8vd3bUR9pV0vmJ0mZpgNCbKoYOQNDlfSnooq2eTAxLqulETlwqv982bVxUuAKvv+4NaDSPYd/DT+PkuIfsyAC8OINyYRwgiHJDhGz6x4T3mEmglBEZ6LbobJkPN0qHVWz+FImSR49OZmYOMShf5p4xubSFwGRH4IL4Xhw4yPlF2EZGbqrEqwTCdIE0BNkelt/7Ee1RA5HYiGsW3t59WAhb2JjdgOu2X4f9h5/EZ48/gFbcFI2YOiWmMgwmwCsvqsLcHRZhCZsUxecGED58991qbws5BURRz6JFlN4QQ7fAVEyD8qYH89vxQzd8M5oIseeh+zBdrsMeyyFq5uEMjiPnD0k6hLkekQlLtC42YbRdwJI7jTlxEU6UA0xZ0WBa7EsQMz1RUG6CUrAMNOwFeNkZwdsU6+tgshJClJhY4k/oxzBtZn6wfWqIwPDhOTUEZkNsG21YbSBooj07LQBC6IW4esP1uOSq2/GZ/7kTj1efRijoQBlekbmYUiCyrKcT9dLzNa0qRWOLfg7C+bEeq7xLHyCscgDPw9d7DRAEbZ7a6li8gqpU0HVi0iPt0LXaGJHpLDrrcMeFX4H1Q4OYff4YHqo+guGtW1CPGsjbm5HNroMbZITXzw6xol+CYSLyZeIcLQWbGzlxSbYBJivL+LYVIaBDE/kyL4AJhE4LDWcWke0j65eQqZURWwQcedmCV7iVcv8cbvYU22204xbabg2+2RA9EejlZqZPojZXwdHGMWy2t+Cmy27D9NwxfPrZT2M+mEMoOvGpXhAqY17sw6BI606cW5VC0lnS4VfV57+XVQxyV2Cdh6DKThKhSDYn2ScjYRk6NinvjOBlG2/DFTuvwuSeJ/H4yUeBTWWUCgPw7QG4NmWUg5kJEJFxFkmNbEnJChUq/DYMk0Z+SJTd09bQYTUJBsi4RD6YCAiHFaottLLzoqFfJhhCfr6EyGHyKcPfrICTO0uKDaN8diPmbpyUUR2+wTJ8OqwBwtoM2lNTmK6cxIS1Addf8UrRyvlDj34YtbAqZJTssZBsuS3bhiedfbtZIM2SibGMziEH4e2sYri7U/yaCCWV+pHkg+iWlqn90Nn/Gi4uX/9avOWW2/H0s7tx4OA+nBypIlccQdYZg+2MwGXFQaBKfFjVK+J6RG5cPXozDReWmRWtlsW8tA3uZCKoGcZ+GBoS9b3ZBVQLJ8QzD1TWw/RlK1KOktgJLJCDQdKM6KqdqaHBckejBZatiOzS0EPUXEA0N4PZ+RnsNC7B6DU7YR06gY/s/yTqqEqAIBCTLO+RCqODo2X2rxwnsZgSUKUZBJkhvNrjxV7FcPPNN+PlL3853vOe96z2Vc/79/sA4bwP+VnfsJcA4aEHd3ey43U1UjoDW8V1F690ZY6EvbSwKb8DX3XNG9GqnkDl6BQetfehvGUYZnMIbm4UmXAQTjsDi3vL0NEheyDi6DIBUvwxLZjcQtgRUX2R/LjvLZ/Duie2o/j4mEicY7jUd1uo50/Cd+ooNAfh1oZlfgRpePGsNBD8v6S/2fOllp9F256VraFVV/92bR6WwUz5/RgzRnD52DUYKBfxv8/8Dw7WD6k+MamETBG2kE5Rxy5rZiHlPYrzGKCQOQjv7sFmTdxnZ1H2oWYLaJu0pywYbb1po+S7dfIpDfKGgcvx+otfDdusY37vCdzbuh/rLtwCNxqEUxyHEw7AYVt+sf0zv2+JMLmK18g8MwKxMC9AgKSSDBgZGvgQkRcJhprfDdw2GvkptDILyHlDyFdGpHxEXocMweuKA3ZRDC0PrewCPGdW2iP2TGR/g1YFUauK5uQk/KaBHVuvwXXbduLv7/lHHG8eQchAkJiDncZJkvlZnICgT5Fev6p+IIiIY9x51iGGt79Nljku6rTAq6quWdL8QfQCUA8iywX5a9I6EbLuOnzV1jfhsovHsOfz92N/cAQncwtYv247cqUtcIM8IwXIGYMwI0W5EHVyngeObERhEUlbMGxHIOw4cmG5Ppj6G1sGglYMgyWSkYWgUEG1PIM4amNgfgyxx+Qdi9UpMG1LlgExU5SIrx0hcCJ42SmReEJKzzPqCOI5REYV1skajp04jk3BBkxcuBkXl7fgX3f/J/Z5e9XSkouBi1h7FIIcSLJJ5UKSmShqIoksS1m7KhJ/Vnm82AHCa17zGnz0Ix/B297+drz3ve9d5due36/3AcL5He9zuVtPAcJDD6UeoROlTbrDatY6qbtX54gsM3qRNq4YfQlee8UtmD48iUOTz2BqfYSKN43NE7fAMHIyrSouwI0LolRbGh/upmfBCHkNViXwdxnhANEBYZzbL8TY9cv/gJ3vfzkGnmRL5QICuybK4lhPX2iVkZkfldtVO0x8ZK6+BcOPRM0991Sgom0VGvDNeaErWdHgm1V4bGcfhjjy4LPI21lsH9iJyy68CF/ccy8enX8CPnWuSIRLswY6L80UiXDKFEhdpyrbZJUbS8h7CRBU4mYnFTwpQ5UG7/+x9x5gdlXnvfdv11PmTJ/RzGjUC2ogIYzoCIzpBgMGdxscO45zb5LretNwnC/OTXCcgu3rm8R27BBfJ76mG2LTjWiiCEnIQkK9a0bT2+m7fc+71t5nhuLYEMUgzOHBRtLRzJm99l7vf73vvyQ9XP1Z4+HPZCIlFivbzuLiky6gd9sWisE4jxS20daRpbl+IYbRIBIRZX+cMpuIfJtQCPDKTEhG0zaWZeJHAbad1gdVqQGWKE7k0OrjeZo+Z3kWvhVQbBig7I5SVxIXxWbswCIUYKEAoqWdLq0Iqxqo2uFlC1RFfu+ZqlvtM66MsQKvjLF9hMPlfuZOW8zqky9h7RP3srb/EQLpoNdImDGhNL6bVcmpqXNenFCqC5OIArTM8brrrvuFj6ERRVHU09PDZz7zWW675VZ1qp5KyNNxxvq8PGnoKHg1nsaptdEIpbt1FdcddxY9xUEObz3MzvR2si2d1LXMxMmkcKpVwqgO268nHUoymavQmDw04h1uSMSzzG0ck1C0qPF8IxKmZ9pUHAWzGhHlDeWN7ddNMNo8DIUy9dUuzLJ0JlL4RohTF2EURG+qEbWmA/iUxarZySuv88CsqBaeLFw04bH/wNPUFw1OaTiZE889lUce+wn3Hn6UyJaJk3ydKVdBAaVkLhfPK5P2nBoCxvyNeDbx6+CDcMEFF3DffffxhS98QXURPPX0HBuvtwDCG3+djh5AOJWN6zcSRP4U8vXUSHsBAXJaiZVbsSmcOk0qHwSxeG/h7AWXsrS1hYFdA6wfXMt4U0hrw2waOmdhBCVFuDarraSDRuwoF5P8ZEPXPAMFEmzZA1NqtGCKyZwcwjIGj9/wbVg8yFnv+jzRuIXnlMm39itr32ylCWe0Hst08GX/dENswyaqWoShtFgjwiBQ0vCSKxa/kkVTUHwEkdnJJt/37FYmzIMsrJvLmW87n8N7d3LXjrspGXI6DbW3TdLZV9kMQlyPf0tJCWIEFXdElOmU6nbAH//x9fz5n/+v//QNZUn6lBW3reMDlqpH6oNoI6ukJiV9bk2k1KYClpXjHXPO4Yylq9i1dhcHjO0czORxgnpaZ82HoKrygsyoiXRV6lF9rWNhGMIclM62ieVacvwVHrwaEam1cgzCTKg6PGHJJMyL9N6j0DRCNRwlFdVjFVOk/CZFXBQeiiUAQdBcECm+g1nxFE+k4kzg2WV8ZBRUUeBEbpGRQ4cZGd7J8emFHLd8OVbfBN/fcSd5P68l+Ip4osGRXBfFllOYIAkZS66d5tHpw7yW3r96maMAhFtvjQUrMUhU7AcNGBTjN75plNQjNq/QbQzxnDI5afbFXLFwJft2HeDQkR42mlvonLWIhoZ5ui9R9UiJhCisw44dpdR3sk3VrlEtOKVcsDUJUc3VArUoQVakOtJRsDAmTJiwKKVHGW8fwhktkjLbscTBSqJNy2XsaWnckSyh7auLKbOiSpSnmholdALliWD7Vdwgh2dFeGaFvdseJzc+znL37Rx3wYkcfH4Td2y/i6pRVZKaSYyqOwWaqBgj7SkjmZqBh+IpyPzx18MoSToIAhDkddlll/HjH//4P71J/Kq+wK8TQJjR3cnERIGx8Ylf1eU9Kt/n6AGEU1i/fuNknkDy6ZLQn7gLmIiTkowGrfbWbexp6W4uXfJeplkRh/bu4tHx5witiDnLV+OEDViBMNtleprG9HM41ClymgqIUgdj2T9kf7OI0iLECxQXS2hXUrUeu+E79J66jbN/93dpe2q26pKOtQ4SGHnS1QxuuU1Z7kZ+SGhVyWQaoWjgS0fWDqlUqpTSQ/ipMpHIJKNIOTmK5r8aVSkdOcjB/U8z35nP8hPPxc4XuPn5OxgJBlQYrwIIyUv2Pmmrq3oUO8ROlXVrt6SaBPRoAQRbOelOkiPlemk+2BRyeDJbT7wQVDtfl626dAcXL7yQ5V3z2btxJ0+VH6fcYNHQtJTGuk4FEISihhoDicNhVknj1RqJ54CS9MsY3CHIiMGV9olQYv6UrFsFL2PjjBuE41D1qxRbhvDCEVJyDxh1uJV6osDHsD1cOwdlk0AAA2U836NkDxC4FdV9EI6IG6URxl1oBQwNHYSeXSxwjqOxbRpzG7q4Y8tP2DmxRUVs6TVK6k887ld1akpNShwm43mD/r/XxEH4bM1JMWnYqMus9L+T7Sa5Z/QvY+QSt38MUlyz6GpOP/ltPHX3Txk282yx99PUMou25uNISfu/klGGRmqEECROC0LckO8j9AExRhIkpv0UpC2nHiPRd6Zswnof5FA6ZhJNmBTrBihlR7GLeVx7tiKbVEcrlIMRGpa04hyoJ0rJYgR4QYGKNUzgjmKYWcKKg2u4IH/HGVfxqoe3b2BB2sMf6eCE81ZjDgxz27rb6fOOqNad8lZQt4fMcTSCrnVz1DOiRzCq26YQt0Z5v04jhrcAwn/nBz+486gUxP+qL/LlP/2Uihr+q6/exERe7GGPjdfRBgiKda9YcC9/KVl3rB1PTmSTp1STmdn5fOjkq5jI59m8eQMH6oew63K0z1yGU2ok5ad0sZG9zFcDAELpKMhYQCya5fu6gg8MkHh74VcFhnq/G0U88lff4fDpLzDrpys4+XPXKWJ1vqmfKMorAJIJpoFnUBodI2or01Q/HWPEFj42kVGmGA7jpUbUCVwMmayyHL6yyv/fc8Yp5Qcp7NzA9Ew3bTOWMcdt4oHn17A5vx5fugiJE1/cAdUAISYwvoLYXsviJVsi4o+vP0ocBFPGzLGtswICkyoGdeCMCaaJBXbNyC/mEHTVLeTKk64gG1U4+MI+Hhx+hFxLCzMWnobrxfwQRC5qqoAmwSLK50e+uKyTGPW5WhIfuCmMQMhvluI4yCg8ylR529hONuQWEIzq1OBS/SCRP4JltJCmGbPsEnhFvFyRnNWOUUypLr0EQJXDcarpfiLpjEd1ygnT8uspR2WCVImh0QNMmzhCe9TCRDXFuStP4+nNz/GTQ3fI0teyKXRGhR4tTPH+qv254kDUlB1yYH2NAOG2W2+ZlLnUfA8m5Yw1/WlsKpLgYNXOMZv4jeXXsGzlSh699V76zMMczE2Qa2ilsXk2VuCQLuaw7awaVgjalo9tRwKrDXyxmzQEQIhXSJrIsKXDpwCBhUOUNqHRI5TZzYiNWTSV25gnKXGgUQAAIABJREFUTlbFKm56HnbZYqJ/gHy1j66Vc7EPtxNKJ8L0CUV7SpHQLGEYwncQUopJyR7VLF+nzODuF6gXBnF/iVXHn8OcadO445E72Fx4QemD9UlCtx0VUFL/k+C1SUmonsdpXbK8X4DDrwNJMRkxPPDAA/ze7/0eO3bsODYqD/Dr1EH46y/9Hr/7m+/jhLM/yK7dB46ZNTraAEHNHafsc7pDkJyS44n2lGKoirp63m0WNJ3Ab6y6hL7BMX666SHyHT6Z5lbqm7qU1a4rWQl+TnEKhKBoyNxZbQnS0ZSTsOQyGFh2Sgzm1X4h3QBHDi22w+M3fJPeU7dw9TtuIBrNEJoSdd9PaJRwzTaV3BiVQwYO7sLstuhoW0g0nFYWvvJzedU8QUpSCGW7TUPZoJrSOTa+UaAkCZG7dtBMM9PSrZy6ZDnbt+7mlt5bRbSXaBYmNY8JYEqIgvEOqMFTXKAs6YLA9X90dABCrYMwdY2SjXdKVoQugPFerNZIltXmuKYVXHnyZVRGh9i2bSNP+9vJNtYzc94KzFCye1ycMKdyMQQAScGxVC0LCBQYcTFsE1vAgDK6ijA8E1uO77bLOwbW8Ftb7+D9F/wl/lgdIXnK2UECbwQ7PZ10pZ6gHFAcH6TaUqA1Oxdrop7IqappjBeUCK28qhMSNyDjh4pZomyME7oe+Xwv1kg/mWpIdqyVyy6/kD0/280/bv2OGqPH5ow6RyO+lfXBVFfmGiiIXSfV76rS9FoBwi23xkZJ8SrUGDtJRoaujGpBYra+QtWRQTYzm99ZdY1KR3zhwc1sDTeRb7SVEUVL63Q1wzGqFpY8GPKjWbIsNpYy9ogIZZZmibllipRVj2EKiVEMqiIcwyIU0mKjh1+JYNTCKAd4mWHK1iBm1SKbnotkZQwe3sto+QCzzzqRur4O7VkgREVhmkqhFiKNymkw8M1xqlYvXhBgZCzGt+1j3DtMOFHkvFmXctyqxTxx3108OvwsRZlJSadDKRkSxJZEQOtrkNiCJrbUCuFIF+HXBCAkI4bPfOYzfPWrXz1mCo980F8fgBDwN1/6XX73Nz/ACWd9iJ17Dh4z6/RfBhCSTm2tUfryFq3e+PRsV5z1TuhazdUrTqVnVy+P7H2CQnOFXLaVpu5OLDNDEKSwhGCtRqbSqDaxtD5ak8xs2QdtXLOe/plHmHNwCZWghB0K98rhsS9/m55Tt3LV27+MUUgpCVwp3ada7nWO+Cu4UPDYveMZ3Dn1zJx5AtZwRsnA1Zi5qhKgVG6EJ+Rs4SG4w1SNovpRytU8wzt2YFQqzDFn8I4LLiC/4zA3bv22kpOr4qMG/PFeF4f9SFtbjYH1xq/a8Kraya+lLf9fBRCmrpHq7Giwpufvmjyo3hJ/TsfOsbLtdM5deCKDRwbYcGAtffWS3ZOie+Y83FSD8iiQeqO8Mg3hLLhYoT64ynQ7tGRwLhHdaeyUOCGaRJVQTb+lPv3Zxi+zaPQIH3r731Ap2URhXhkn+d446cxMrGId1WKewf7dBNNCOluWkCo2YqoDqy7UkSg/DJ/QMtSYu+oOUCwPYOXqKI0NM7hvB6E/zrJgOed85DKi53Zz49PfZcQs6M8jaEBqUg24xQfYGjdB1knzNTQg1vXopn++iWuvfZUkRR3WNFn89ALEsDohPsSWm2pp4qIoN0xX04l8aNWVzAyGeXD9dtbmnyTd3EFrxzyy9Y2k/UBck6lGGQJXTu8ubpDWJiCGhSkpjeJXLiOFTBOWtN08G6PoY4nLmBBWGkJV6I1hCTupUk6NUiodItPQimt0UhmqcKRnC3mvj7nnvY3cwdkYAvekdyS6UyH3SrF2RI6Sx630UqqIftXAcRzKfpnDBx5nfHiQy7qvYf6p8+hd+ww/7l1LXzgWPwCxsehUbfCUa6GvS3zZ4iGmdA/ebCqGxsZGvvSlL/F3f/d37N+/X206bwEE+PC1b7wRQ2hIu1ti4+CKS8/mxr/4NNM72t8CCAnJIIZI+jARE7sS0UJ8QtZaez1/dshy5sKrOHf+YlVkHxjawJA1yszpK3CaGzC9AFfGBYaD5wiFPYUbpbB9V51MTVM8WcrKkc+y61nzzW9T19fFGX/yQSzfVADkiS9/m97TBCB8BbvgUnVGKZmDqjhnMu0SBECxf5S9PU9RN7edWXNOxB6oI5L9zo+Ug6IQGoLIo5ot4BtHoFqlooiREY6dYnB4D0cObGJpsJiz33UJ9fsHueGZbzNulBTnSnH9FECI+VY1PyI9bKklQGqDGL0/xmFNR0PmqDoI6pAVj9rVwSxemCTJsWb4m1grSwkLqHM7OKv7PM7pnM6h3kHuPvQQtNeRMTtomdWN6xu4QgohRdkScruLa2awK7JeAupCFa5k4hEZabpdl6u2P853FrxTcUmEQPk3677MrHw/Hz7n76iWTHxzAj87QmiWcYwOjLE6xoZ76R/citudpavtBDLlJgzHV8oHVSvE78/wqUiEgNlLUKlQEn8gR8iQBn092xno3coy93hOes/FLOst8/cPf48t3iF1sNZfY3KNkrTLZElqZaqWXCqg5DWqGG69TWSOekF0gyBGaQkxRdsnqpv0RZajkcHijnP4wOpLGD68g80btrE+2kpb1xzapi/EDB2F8kTVGhiOegCc0FVhTIopakirLUM1LGAYPm4qhZUWG+Y0YUHUDRZWmIJGn6gYEuYdfKOIn+rH7z9CY9dC/God4/3D9B/ZTjkYZ975byN3ZBaWGE8oM6YIQ5ymooiiW8TLDBBVDGzf1nHMJipWdceGuynnS7xzxpUsOHMe4c/2cPuhJ9hZ2K+4B+riCIsnvnH1QsRe5PqYEf8qmUNI1+LNBxCEIHXnnXfyB3/wB7zwwgvqJ09GDJ/73OdUB6Gmyz0Gzqhv1g6C3I27NtxJT98gZ132cT557Xv56l98mo//7p9z848eJJC56jHyOuodBHmGp8zVddmbjDlW/ixTSUaaXETaaOGKEz/IspnT2PHsRtYVNzMWFelefjrpME2kwIGctC1FUrSClNrr9MnbxBJVlBghRVUs12b/27ex92OPctF1v48hqYFRirU3fJe6rjQrr30/ftHCz/XhV/tx/AypzHTKZRjav5P+wm7qZ3Qwa8FKnMGccp4Vrxj1rbyQqlGmkhklNCtQcYiqItnTRLmh0nb2bHmCJcYy3v6uD9DWf4CvP3UrveFhrcePa4E6lMeta+0qE5/WBS4lJ1hVsLV072j5IEwChMSUKfYRqNWjpKuTrFyiYAhoynRxwXHvYl69S//+Ie7vf4yqU2XOCWfhGFm1hwv9Q3o7kSluvmLXrw32ZJRkWjqmWVI0xeOm26jy1ce/Qd5u5AfzLqKt6PPuA/9OJijxvnP/Br9oU0kPY0S9OG4OM5xG4Jn0bt/C0MRBGmY1Mr1jOWmvRSszxOJH0JQf4dtVytlR9b0Mz1JcBFHN+U7A+Oh+Du5ez1xnNquuuZTl4xnueuoe7j/yuFbWqesfA7SYGziprqtR6WOXPz36TtIcX73MUVQMcVtJE0CSAIjEiSJp5Ai6kaKn0ZyJw/L283j3Oz/E6CMPsebws+yrH2J69wpydW3qdnLF7hiR82j0JUoFISeq1o6MHVIWdtGFOhlDCLlHzAwszHKobmx5T9QQYIwZROMmVWsQP5wgqCuRYhqmV8fYocMc6d1C1Syx9JLTcHsXEIl9qLIAtTAqcuE9FRvtWSWV0CXNBd8q40naYzbPgcefoD/s5equi5m+ci65YYPbttzNlpFtOkEsYfjWTCriU4fqHOh2lw52kptXM3BVO2kqK/g1bshvNB+ETCbDxo0bOf300xkZGXmrg8Abr4Ow4bHvsXT+nJfdcVd95A+556EnEybNa7wjf7V/7egChA2xQmtKyy8+F2s9mDy4sYpLH5dr4CFjzeTdJ36Qed3dbFpzG+v97aQ6pzOtdZFqcYs7o+1b+PL/lqP2jVDinGU0qwCCHHgkZ0DUWg6OYbPmH7/OFb/5BcbFk6XQzNovf5NgWR/nXPyHeF4Z3x3GN0vYtotjtcGgz84D6yjnB6ifO425i07DGKpTUm5FVhMnwHJAJVPAl/ya0FaRgyrV1ikox8VCeS97N61jUcN8Trv4auZVAm5+4kGeHHpE73Pq5445VrE5kVZ2J/LPROmg64Gc3KVWHVWAIMU0+TZJzoLqKOiURsUUiVUWMTtc/X5bZiaXLv0wXQQMHtnHPfm1FD2bBStPxQ0cTBmVhAahADepN6atpIeOWiNLJWsankhIJVDQYHFpiBsf/sbLbviSneKjp3xFkX49SXeUkKxUlrTZgjlqsXPXWiaK/TTObqK7axVu0CxG2hjiulS1iDyfwC0RpAvaabFqqw5DKSoqdUNpvJf9O55jGhlOOec8Tu06ncfW3MXNe+/Cl+5GfIZXtUdJc2MOxpQogFrtUaOYGCB899X6IHz6M9x2222TPtZyU6uCp3245cQYM0H0Y6TacXFHIUqzsuNcrrnoXWx94DGeGniEiS6HzmknkLLEhzrCksxzeSAkWlPiz2WBJRTLCrDldB+GONlGAtvGdlPYtqBuCXZKqxGLIDvxI7cGHKgYhKkxguogQUaYpS1EfpqBg/sYGdxN6JRYcM5qcgNd+CmJ5pQHxkSclb3Qo+pIjGqggIjwDzxb5F6G+vqHXniOvvIWLs6cwsnT58Gcudz+yA/ZOLZFoX6duR1fl6TbErtEKG5F0kFQIEH/KyO6N9uIwbZt7rjjDiVnlBvwhBNOoLu7W8kc3+IgvDFUDHNnT+eeH97InFldL9vYrrz2D7j3QQEIx87r6AIEbZSk0wHjk6hKK5QIJM1k13Vp0lJYQwSTBnMR71l5CdNbm3lszd28YOyjdd5i6uu7VZdUnnlTRgXicSBMePH4V0FPEmZbxfZN5c4XZbIYVprionEe/ct/BWuYrsdPZOkPL2TTb99OxnA59aOfJLIqeKlBqhRwogym0US5v8DBI89RKQ1RN6+LuQtPxRxNx+RoA/LCzTeoUK4l5QahiWePaD5WCgrFXg7tfI4Op553dy6g8ezVPP7IOu7c/kMCU1rrib18QgCUw4+a+sed5oQZpw9G4vAnW97RAgj6IDl58NLfNl4j5c+T2N0nFr+T4/BpqZlctux9NFYr9BzZzRNsoeqnmbFgBSnpEKhusqhGUhiOuFGaWKapnCQVWdGXmmcQ1TWoBOKf3H3DZC7RlEfmmotvwBrPEUQSLjBKZI4TSNyz2UJYidi5+VF8P0/d3Ea6208mHTaopEhlllXUHW1fkj1VmrFJGJmUrTFCv6oUf56ZZ9+BdYT9w3ywbgUdV1zAnkc38S97fkQpGlOYSNVp1e3X61FT3Nc+Z2zNHFM3pPNwkwCEV8VBiMOadKKpnjGoVKzENjAG1VoqHLeWYkwtfuJntZzJpRdfxYYHfspjo0/gzGxT8kbRl9qGp7wIUr7coLLo8ggKO1T4BgGpouhB09g5cZOqw3UlT1tIPobqHhiBhGYEGFUDc9BWEskwNYjlDVGO6gjdOqKqSd/hPYwOHwDXY+5Zp1A/1q00xdJGle6B8Az9QKKly4QqmCPEsyqEdoWKOa4SH4e27WAk2sVJ/hJOmLeM9hmzuOPRO9k4ukl5J9RCMpJZ5RQpqkbWNT/qmMgTKgXDmw0gnHnmmfzDP/yDAgby6u/v51vf+pYySXoLILwxAMKtN/0Fl1149ssQwKYtu/jkZ/+K5zZvP3bQAXA0AcKzz65XKoKaC5yu/roGJRtu7PUSNw9iC3eDZubyoRWXkOts5aE1d3LI7qdtzvHk6jq11DkqKQKiENxCR7qf2uPfdEJcSxIWTcK0DSkHw8xx7y3fACGdxS+xn5ez8fkf/kNadnUpvkJY10PFFyVEHbZVR+HIBAcHNuGVxmmc10H3gpNwJtJagi0AZFybOvky7HZ9wkgycCsqfKhMkaozRrkwxtCebbTgcN7c2cw+5SLWP7qFW1+4mbI4MEqHV/YzZbUck7CFvTeFu1FTbKkQI3HpO3oAQYKWJK9Po5Ia2SD+70lfmnijjely2gp5utvFNYvfgxF47O7ZztbsIcpFi+75J2EbIaa46cqJXRQMKclKMJRroiWBgUJkD8V7xwI3TcWCNbd87RWflavP+TJuuU51rUNzADOQA2gDjkjp/ZAdWx7H94o0zGmme9oK3LAeX7KFqjaWOP6rU7+v1HZq4iAqFLtMOSipSOgo9Ojv3Uz+cD8XNq7krKvOYPMDO/m/e++jwGDNclnXl8SgIIlC0J4HmtCZKHZ0cKGQFF8dQIiNkqSQxwTVWvb2VC/nqWI+zeiVAYPDhS2rOf3U09n45FbW5B+i5bh5NObmYouEJ6hiGmntvqU6buKUKO03gygtSVoRTmiSEtmhlcVtqMcx0kqdYEqQkwo3iTDGLMy8uFqJX/MA5IeputOV3jgMHUYHDzM0uIvIrTLjlJPITXRjmFq0Y5QNKOuLo3Qq8hBKOpoZEaQqlK1hKtYEIxteoNQ+zvS+aZw4ewULZ7Zwx7o1rBvbpNC4HqkIpyHW59aUHvFJYypqUwzbN18HYeXKlXzta1/j7LNfXnzkx38LILw+AKGhPseF7ziNW+98kHPPOpkb//JTLFkw+2Ub2+f+5H/zje/cUjOwPVZQwtEECGKUpJ1/Jn96dQqLI52lexk3EHTnOsb98vvddPDBZVfhN6Z5YP0DDJmDtB+3nGxmmuocBH4Jw06r+HkxgVNjR2meyjerFztlg4xv4EUuBy/Zw/bfuk/P8l/yOv/Df0Drjk4q7ihmZpSSl8IVMx8zRXXUo2dwM4X8AM1zOumauwJ7QtQOQsg2oKDJaOL1IN4LEhMcyL8pT+1z5cwApf4hCvsP4FoWi+cu4oxlK9m3fi//su3H5I3+yUujvo4uOrXzj9YVTvnE8V4XRUdX5ijEx1r0Q/IBJMQvVojFLoJ6rXQnQ/6ZkZrOtcddRt7z2XpkBwdah8gPwYyFJyoKgNhCY2UluhFb2SlHmK6put1eOkQm3OlQQFWaS3rX8emnn37Z+vx0xpl8a857sKoGBSdPFB7BilKEdoOWLYYWe3auo1weIje7hY6240lHOeXuKwdWKjHpXnUtRIzg6djnTEA1GlcZDdXqBGOjBxg6eIhT0qfy9qtXcWDNVn6w/wlGwh518NaXIpY6JuOx+HroCPGpzor6EPvPr7qDkDgpxjeqZuK/Ul5hjd4bu0FLYXe4pH01Z599Pk89uZEHhv+d9vmLaGiej1MV+YfM5cRwwiSy9WjBcMRHXMiJIYb4XYrE0XYw3AxOOqtaJmIyYfoSjynF3cIqmhjFCC+qEqSEZFiGUBzFXEXs8StFRob34FlF2pYsxB0X/oNkMRiYkt8gfAblhhHi+yIvqVJyCgphB5LElSow9NTz2MdFuDtCzph3NgsWdPKTtffz5OBGylGR0I4wgySPYjJmVLfeEslNwvWMJTNvkg5Ca2srN9xwA0uXLkU6CD/v9RZAeH0AwqwZnay56x+476dPseqkZSxbPPdlbdFHntjIZ7/wNbZs33Os4ILa5zy6AEHCmuLTaQwGEpWjPovVNI+1/VVlxZgWi6MOrlx5DbTm+Pdn7qSvPEDn8SeTcdqwhXSmPF2E8yYdAmljG0QpLUczsxDVGQycspfhJT30n7ELP1t9xbVYdO8prPjiBylk+jHEMrlah+tlsAwhQjoUCocYGtlH/fR2Gjvn4Uw4mvAvJ+O8fLvYA0Y5E/tUKCgfBLFjrqaLFEZ6CXv6iOwKizoXcfoZ53BkzXPctP1+RqIjhMqvTxcX1VVRfsoaGLyUUqX5V7qYH60RgyYpJhI+PdqIYVuiu4+Hu7F3ReIBYFjMSnfxm0uuYMIPWXfwOQ43jlDMZ5i+YDFOIK38UPHapJttubKfg5xltSdBwHn9uzilr4cqNhfv3/oiA6JksT6z+nqOGNNUXcmnxgnCYZwgjYGkc6YVyX5kZA8ThR5SHQ005GaTQnyAJGHYxCoKUVWumw5qEsdFUTOoNfI8vExRAYRKsY/Du3ZwmnUKqz95Ab13P8MPdz9Bv7+fwJbxvLb9V/wQrfiMtQavVI8mnRRfdQdBVAza3zoh2k1tTegenB4x6DQtaT3J7CZrpLis62xOuujdbFjzCD/uvYvuhUuoa5qNk09rBq+APpHdmMLLEWQdqhZbgpztlhxmnY0tKgfTwvJcjLIMoALsqkNQMnGLJkFV/vWo2P2qLWeXOrHNNLbIJQkoFgdV7GZqZjupQloPGeXzSqBGVV9I35ZRgXYcG3d7lLmIdBJ8SUx7djvFLg9nf4W3L7+cpXPn8JNH7+Tx/qcpRmJsoRmoWg2qb1ftQh2PFxJL6uTYoZdeOYz9Z1+vB0lRa4zh/vvvJ5fLcdppp/3CH+MtgPCrBwhOVGXWzFZeePrflTHPz3t986Y7+NQf3/gL1/CN+IajCxDW1/awpEOq91Wlgld7YBI5UNPYxwDhbdYMzl91NZXOZu575P8ykB+hY8VK6lMdRKNiw2vrnUHcBx1T+faLa+Kzi9ZgzChjvbNIoaNEtTn/H17mtvEOzr3wjyjbw/jOCEZQR9prUKdUaY0HfoF8cQizOU2qqRmnoDMIpFLY4tgXhPhGVZ1YRWtfsAbxBGhIkmCqjD82SPFAHxWKLFuwkovOejf7H3iAH7zwML3Rfh11LwVM2UsnMs+YlaEsfeMmQg1oadfYLxylNEcBCLIvJ0TJmvfBlCKowgSVH0NsECQdZ8tgdqaL61a+jzE/YN2Ox+lvzlMqZ+mauQjXEzdDcb21xLxSU+MExKVN2v0ip/bu4Zwj+3jb4KH/cH0+fdbv05PuxsgblO1xfHcQq+LiBC3KA8M0MnjeIGUvT5QzSWVbsH1H2xEIWCzonCPJA1JdhSgg74g99gheFcKMB6VximNHOLh3N6c0nc65//1ahm/9CbfseIyD1T34MYlTN8MSd189jtHjBV3LFbSKg7UEHKmwplfFQZgyYkgAgiLWxCxWvTjJOCPUrZy4dVFHiktnns3bzrqIdet2cd+Bf2H+osXQPpvMRBOWJDUq9ClmSKYKrsC1oN7FysnqGJhZEzcl0hIZOhkYRQe7JJKTQMkkbRnReRbBuIlXLhJk+4jMCnZpDqlyRs2PhFjj+xWVtWDVO5iBKyYH2vyiIoBGkKNPINGqoYfveoylD2CFJUqGr4iT5fFxdm17jKagkcuPv5L5c2Zw35P383jfWvJokxFtkqhbN1MHC7Uwk7gnpmVCGm0fqxyEf/qnf+Kiiy5SBMQELPyi4vEWQPjVAoQHb/4Kc+fPU63Sjmlt/+Hy5AslPv+n/5ub/u3ff9EyvuH+/OgCBK1i0PbpsROferhjJZL6XXnFWQC1LoPJGc5szjrpMrzmdu596oeMB4M0nbiMOr8DqyQnfFuBDOXf4gaq+AQpmzU//D+qpU02Oer9x5f40k/9Hum188hnD2O6efAbyRam4cphSObWZplAwuvqwZI5umcrJ0BKEMnhyo5Dnq2IwKgwnu7Hz40TjVcIUiZGNWDo4C6Gj+zn7aedw5nLL+fww2u4eddjHPb3xPkzMSdNUc8mY6D1XjdFYaBGM1oy+4Wj7KRYs0HQHEXN/VZ7bwKEJ/9LH2NN5man8+HlVzASOGzY/TTFhhH667N05xZjlVxsw43NkRwlJ3StiKawxN8/+3/JVk3cUMjzkzkQr7RSA5lm/ts5X8QYMSimBghF5lipI1vowDZSwk/FD4S8GBBlwJYOuUQNS0e9Eqr1kvoqpEEBNZHlM+L0UueOMixjedvANk169m6hf+8e3t5+Lhf8j4+y/4c/4vZdT7C/sjuOAJiyRvoErz9ucuGSJGG1fjqI6zVxEJRRUuKelRhRJN2CeA6kSXhaYpKMIOqiFJd2rWblGZeydd927vrZv9Iwr4vWWQtI5duwgwy2LzwCIX1I3oL4kJvY9QaGa2BkTKgT8BB7k0toyYRc3YgwZeCWTSIxTSpYmEM2JclVcHswrApuqZtsIYfpiuGSzkEXgCBo0PYcZWohA0CjIssUEnjCQRDlY4BfF5DP9IInFsyyUaQJsmW233MPuUyOS094Nws6Orn3uXt54shaimFFHTbUgxDqTSWZzdUIinF/RxdT/Y4wODZJiqJUuP3227n88stfVbF4CyD8agHChjU3sfS4eb/0Gn3+T2/kG9++LeHv/9J/7/V+49EFCBu1l8nUV+JyFs9xX6lLKMS/U5xZnLv8UvxpXTz8zJ30mEdoPn4ejflOLKNJdTMlFMGQcap4+bsmD9z3Fd2xeBWvS37rM9RtmMV4roeQcSyzkUy+FTfKYMhG7wYqzj7KRKrrapa1jj+qSo6wWDqrBiyRFRLaVYq5QZXpEJV9zKykUhr09D3P8PYdnHPeuzl7xmoOP/4w/+/AGno98X2JrZDUVp+ICnXipO5nT5I69c+mMxyu/yNJc/zzV/GTvvJb1YhhqsxRqfTi7rUWi9RI4eqErLrakltoMSfTxQeWXEE5lWLDzo3stg9gLGimI1yEVUnh4GKKAZTlKBdDK20x3R/jpke+9ao+9/sv+CreeEQx209oj2NVM6QnWnGsjFoLrQapEmbkE0pnXFkBYlRDwsDXJMW4yS1ddQFxgT1CJMR6R7riET07NzJ0ZDerZ1zMxdddx+4f3c4dO9dwoLRPcxdUiuOL4Gz8NRMgOmXUIO8WgPCqOQgic7z1NoWqphLzdZjJSx6kRNEQ8xTcyOHiaWdx1slncTjl8W93f4PU3A7auxao1DGLrBhWKgKPLZKStIvpGoRZAyMnxRyiesllsFU0pulFOHkxURJkZasOROgJM9chGonwgjwVt19mBjhOFmM0S1bQu1wsI6jlb8v8KioLl9jE8GOJju/hi2mIgF0JSxEQYlUILI+yRG+mBtn+6H20pBu4/IQP0p1xuWfbfawd2EA5qhAYAcIyrnkdJJ7X6mbUdtCrAAAgAElEQVQVeFszxY7fo2dDx1oHQcCBRDZ/+tOfflUPzPDwMJ/61Kf4/ve//6r+3uv95mPZKGnDw99j6aKXex38vGv6+T/9agwQXl3Ber3X6KgChGeFgzC5r+mtLLaklX1HybonCV4K7scmccdF07ns+EtpnD2Dh56/nxeKe2g9bh4NpQ4suxXLcJRlshQI07UpzR/lyb//V6rpXz49MzPQzDmf+wSZHa3kM0dUhoxpZ1SEcKbcgitW9NJFkKmCrYtzGBjKZEf2Wd+TDoZB4FUJLV91NAxJJbSL+tduRMEaor9vM0N7dnLVOz/JMmcm+557ih8eeIj+oDc2XJ7aRNEgoXY6VdcsJmwr+31tlHT0RgzioJswFDUckX+UWdNLure1Kqvk99Cd6eTD8y/F6Wph0/bNbKxsx2jP0ZFdovIXbMURcLDExt+xSDkuV/c9xUe3PPBL3+Z9uTZ+59TricoRebef0BlX39sqp6mrTMdB1qhKJCRROZRKfoJwI+Xe8CS8SwqDSRhUNPHehkC8F6Qe2Z6qScW6CQ7vfobBg7u4ZNEHuOjqa9h8x03cuudReis9CtwkWRg1BV2sxKmV7Rg4xbPw16himAIQNDSsaX5iwJDESerrp+ZzcUiGGZmc33w6px9/Kt7KJfzbN/6EYmeKjvb5ZMxWXKtRtXSE1WmLnDEr0pJIAQPqIkyRIgrCkhtd5naegVW2lO+4LKDYMiMZDIct/GKJamqEwJCZQxXXaSAquzheA+lqmkiIkCmFo1XoiOQ/mEIS9OTGToI85CcQRm9A4MlXGaeSKmGYIYWwl/1bHmOa2cY1l3+Upp4St2y6i/Ujz+PFZBLdGIg3D03Z0eOXGpSaVOgqfHcMkhTFSvlv//Zv+fjHP/5LPzAidfziF7/IN7/5zV/677xR3ngsA4S//YtP89sfvUo5vv2i196DvXzuT77OT+5/4he99Q3350cTIDz77IYpLomJD8JLNPe1E3L8HzEHqz1s4QPHXU7HwgU8uWcdzw1uJNMxg6Z0BxZNOGYGK7KxDBcrZbHme/9IaebIq7ieEav+7CN0PHA8FaeH0PYwIpG/OZjSFfWyZKtNaj+NhOwtB50oUsVHpeR6cjrVLpCKP2BI+JAma1f8snLtE25EEI4weGQbE/sPcvVv/A+WVpp44cmnuGn33RSMsXib06m0Mflsis9L8uPo+bY+q+rT6VEDCFN8EPQ0Qe+wKg8iTs1Vv5tMOpIxUBTRmWrnvfMvpmnFUnZs3sKjvY9gZBvpbJ+HY7ci0nwZXTuWeO7YmFmDM0Z2cOWuJ1ksMcu/xOsPVv8+27w2pTLx02My19FdCUnP9LMqd8ER0JmRroFOUVSmh+KR4YUEao1i5CmwJ+XjeaGSZo5nxrTaLlWh7+B6+vbs5L3X/BanzTqfTXf8M/+672HGomE1YlDFR3nzJNzByYwgfcVerGR4bTJH8UG49bYXoWo9Y580HJtKUhR2rmhrVZM9glX1y7hoyWrMM8/jjhv/kAP1RWbNXEimXlQGjbiqg+DiuGksV0yPJLc8InQjgnQAabCzaYV6hTcgngfK/kHGGQK/RqDSXyCwhChYxggK2nfcrMeQPG9JiyzlcOw0ocx7xCVLCrMvuQ1CEhSmaBzmoQJTqkr2UzVKVOsG8a0iVjWgv+cw5bGDtEczueA9V5PddoQ7N9/Lc2Nb1WJoqU88MpjSSUkWoWZSEf+H6sgcgwBBng8xQTr33HNrj4oU0U984hM/99ERIqPwFY7F17EMEISU+JfX/zYtjfV8/IOXv6JkLlmTf7jpDj59/Y2vyMp+o6/b0QUI6/XmnKQCJiPbKcC/VhRrM2+5QhE5srx35vnMO/kUNu3fxYZ9j2M1NNLWOZOAHHZYh4uDJUXItdh+3WOEDWU1QpUGeHHuEIPL972IvzT12rdsa2fZVy4jtWcakVUUz2QMv0SUymIGDobv4FSzpKr1CCleir3hx6BA9k5fyIUSiKfZ/WEkRyXx3QsppI8QZiZUi9vPjzDQdxhryOeC9/43ZpTLbN6widt3/0g5zSamO9oYLlZpJVr7WlGWg3HCxNL9haMGEFQGz5TCp2ppkpcRA4Yp+Rm6t6HmELTbTVzedTbTV51N35Fe7n7uFrL1DbTPmYdhNqs8DakZjlhhGxZRnfy4ATOqo5x/YB3LBw9y3MjAz30knpl2HN+a914OpMWpVzoyZUyzoou+n9XdiZJ0tutBRuna0YhI/bmFIQ6KCe5StVSUdJ4aGVUz/RRTE9i+eP9UGO7bS9/BQ1z1G59jwWgXe9ffx/cP3EspGlfXQ3tVCBF1Uj+Q1KGasq52qJWP8Zp8EGKAUEMb8WwkkTomx2PVSNCfRCV5KYAQscCdyXtOeAfZky9mzfe/zvP+FhYuWEKxrRPLbyIt+eiGq4gaaopvS69F2JuGbnmlQjLtTarAC29ALmQUSfa2qb3Ne0ylJ/XcAqYM1kp5wqx8/yYs4SdEBk45Q8pogKzYMJmElSB+oMTAI3Y5lJmW6FsV6UdSu0pU7AmCVB4z9Nm/53m8oTyLO97GOddeTvDkJm5/5gGen3hBL0CiTlA//+T9M2mznNh2xNdPIcdjk4Pw0qdj9uzZ7Nu37y2A8B9U0tczrCmXy/Kl//lb/PdPXDPZF37JZ/1HAQhvqRh49tlnJ0m3tUAmfbFUImDChlOYYNKkRzbejOFwUcvJnHLuhew7MsKTP/sJDY0u9rzjKJIh5dVjB46yRZYtUg4jkUQhiyRNiNAzh9j+yccYOumVT6onfOtyZv5wGSWjhGVViHyfsFqEbKPqICib5gjqJqZhCMlbughyCPIUllByOdlrZRwqIEEIioEyefOoBKNEuSKBUaQyMcjB/btpLTVz6fs/Smc0wI/v+Rlreu9Thj0JCT1RrcmB65WaVFrpIJdJj1O/cP3RinuWGGYNymqTjan1KP6jmLxfU1rIh2gy6ziv7WROWHUpZSfk+w99jUWNHYwe14nhtZD2c2qk7Vjan0etkcydHQisiHnjPfz+5kdZNDb0ik/7V056H0/ljmdcRt2GhDpB4FSU/NSuCkAwVUcnV5qm1Hmie5U4b4l0Nn2LwC9jRUKU1O68Mk6QbA7pe1eMCYJMHswS+SO99B/aj1f0ef+f/AULn9/LMxu28YP9d6l4AHUJFAte1yONb+P6rP/0xesoB1ZFUvwXrr322l94JjCiKIp6enr4zEs7CFNdMRJgFj80eu40GRAhN0dTlOPaJe9k9tLjeWTPEFtf+H+0LZ5DqbUFt9KC62ew3Tj7gBKhXAyROlqCElGZ1/aMDsy6NIIdlOJAOggxadI86FApFSm7g4h9hZkfo1rvYNOuRggyiZDZT1a8rl1XozUJzQrE3MjH8VOq5ReKxDEwqKZLeJTwnXGN3sRtzPYo9b3Ars27ed/5n+OEk0/jyEO3c+eOn7JjdGesWtCIWU8rYoRQg2u1hk5MX9SoWySOb4YshrcAwi98nl73NMeW5kau/+xH+Z2PX/2KH/YtgACnnHIKykkxAfgvmsxoZZLmXk2pQIqsrcGChASfnFnA5WdeSZ/Zzv1Pf5/Gep9g2VyMSganmlNSRMd0VJqij7Z2l7y5UELuvZD9/+1Z9r33+Vdco6ZDXSz/0ruwt6XBrRL6BexiAb9JjJgkN0CbLrnDnWSyaZUVICNsP5DvVcKuWDi25DIEar8T86SKUaaaLhCKl4vjEUmoszdK767NdGcWcflln8Dcu45/XvM4O4vrlK18TU0YE9UTw6LJWXfCR4gLuMzYjyYHQdQgCZG0xjmIOwgJ4fNFQE7lLakDYCqyOaVhGReuuABz+Qp+cMtfEgQlrBNnkfU6sCp1KtFS+CLSXQkoaHGr6xMZjqKSLSyM8ZfP3cO00svlqH994nt5Jvc2RsyDGCmPKKjipaoYfgbXTyveQVRFq05SYsgkKjzwQx9xpDArESkzp7wjJP47tKWbXaHsjCpA6GfLRGZAfuAAPduepzWaxke+eBMzn7uH25/dxE/236VI9/rHj8cMcpiu0WpiJmGiqItBnG5kxFbL172auOdPf5bbJKzppY5ecRsuuTm0DEitgnYojEkhtmFz3YzLWHHiYraUDdY9dCd9syJa58zGjVpJS2ssJX4GAZGloW4kblNC5RHvA8sm29IEal4TIryGKDIxpXUiq37EpFIap2rKbCzEnhil2iKOS43q2kd+hFvJkfPbsNw0nl/FjwpUZDHwsUOJls4qLwa5qgIIxpzDasYjYEVpx3uO0Dd+kN4j+/n8b3+N5qiDnQ//iHsPPcqBib06h0FGLonEZ9KRIg62ShTTk0QeNWJ4CyD84sr6Or/jWB4xvOjSGQGfvPYyvnbDH70FEH7OPSUAYf1LSIq1t8aBbOoQ8FIEIduNWPJKxzQzi/eveD9eVyMPPHYH+8q9dJ+5ANfvwPQzOIo7JU1KT8c7y14pZnCByWjDELt/5wmK5/e/4ieUPXHlH15Dy9PT8CQTwKhCcZSguVkRH5XPQWSTGZ1OOi3uiQGe76kDT2CUMT2hhNdjiZpC+F1GRNEZwkuNKl8E+RJ+tUhlz14GRwdZedJqzln8LsrPP8P/fuouhtmjx7Nx40SPyXXBkU6s9v1PZs9TQMLRBgiiYogD7158jyc6/0TfHy9VDCISGeTx2Tm8e9n5cPqpPP2vP+Dh0WeZe/oy6pwZ2NUUju2ImA0jEn5GSTlUSpi3/LzihPjbux7mygPbcCW34SWvv1rxHp5pWMGEfUTxO0RV4qWKhKKPkOsuh1bPpS7fSdbNEZgBVb+EZ5QJpDPkOdhGDjtIqc6SrEneHqSSmYBQbJsjgkKBib699AwfZIGzlPd97K8xn72bH23dyNq++7S/ThIsPEVtmHDihDSv0khVdyEJFdS+PErF8KoAwmc+i8gca4YT0voXM4dEPlJrtWlQIEQR3frRTlvib3DdrLNZ3nEy8y8Y4MGbt3PToV10zFtIrrWDlJPTREHfUxakKqyCNG46p/TbZCyctIslshPfxPHladQ2GIF4GAyFFMxBwlAcJEK88hhGc1Z5k4dGgXS5mbpiqwIaysyo6msFs7J1FraopzoK8ucSierLoyYgwvYpZvIETp6RHZs5cGA3063p/M73bsa7cy1rn/4xD/Q/Tt4fVixUddEVw1nfNJOI7eXPurY6DRWj81jvIFiWhe9La+fnv+69914uueSS17nUv7Zv/2YACHNmT2fLU7dgyQjuFV5lz+Cr376T/+9//e1ru0iv8986mhyE9eunGiVNbRZMHSfEG2zyc6u9Tgq2xdx0Kx9ZfCVzVzlsfOp5vrdlAzOPXwotzaSsBkxRDEi0spwQbQc7EgfZHBOn9/Lcn4nE9OcTShf+4zuZfctSorBE5Ad4VoCRH8fKNalWtXRXm4vdhL6FlTbVexAOQpyOKydPu+DjWQ52Sj6yEBU9dXqt1OWpOiUqpV4OPL8OY9zg8k/+CYusHBNPbOCGbf+oDlc6wUqDApWWqAp14iCrL4je02LzPPmNUKc5Hq0Rg9QCmV0k41tNL5iUOepPMUkN1xJ9+YyBAlKzU/VcMescZp96Fube5/jrZ+7Hbu+kaeF0XKNFZWQEXiCWU0oKLwR3y6wnlU7zm9t/yjV7NiKl45Vef77iIzzdPo+KqguBhCoQpH2M0FVjAon4zoy3kwpTRFlHpTbKe0RMr5QneNheoFw3pf4pNYJ4+IRQzhaopMYpjPcxuOMFlWh89rt+g1NaV1B47nG+8fyP6SlvnWIBntxLuj79hy8hs4YxB+FVA4TbbtWXO6l6sVviS/W7tRaTEh0keZOwunE+q6efTdMl72T3xFbu/M7XMdobaZs/H9utx/RFsWBjkSaqGthycbINWFlp7ViK2CHZCypspMa4cJSphHiLi+2kZxS1uURpDJrqlIwyKz4LYpZkW2psofwOxNc6sDDNMmHgKoa3NA9lLhc6EWHVpGqP4dnjBE6IaVfp2bOegUOHOX/2O1n9Pz7F2I/u46Etj/L00BNUIxlVxIxZUVokdqPxQzI5B5tyz8pivEkAwubNmzn++OMpFoscOvRyhzHHcZg375fX4r/OteZl3/7NABBKPY/HfHIYGBpldEynlCY8857+cf7q/9zKTx966I12+X+pz3N0AYL2QZiqpU8K4oss06d+MtkPRSVgREyz6rmq4zSOO/0SelMBa37yHXotn8YZLWRaZuhgJ0kItFIqG0GM3Awvxfg5Q2z8s5txx7M4+YwiE2oKmwTQefjpCsf//Tvp/PFi5ccfRRImB/74BFamnWzYTKokaYFihKQTqYNQwoWkyAmA10F42kQvdo1FYu5LlOxRIkdkjyb5oR307NtGs93N5R/6n0wfHWTvc7v45ta/J5DrIofA2Cgo8XRRW91LCrTmHuh9MQw1EfxoAYTEB+FFa5SQSF+hDupAqdgxMIJcZHNhxymcvng10WnHc/+/founB7YwY8kC0q2digsgoyRLugZVB8s2SIUG1xzZyid2rFW3Q1+mWVyRY6A0CR7/fskVbM7OUoFJojqQmiMhgdBAXaUBp6QJpWZaIqUjAhUAJRwNGe9Y2PI9JadHxkCWjq32oyole4jI9hSJv5Tv4eCW9czLLOXi3/wsbbsO0bvvAF/92T9RDnUnXVMG9WFaH0ZjwBR39msTh+R6/WcAgowY9DeawliNncUUYpy6KAkfIZ62yx+1Rik+MPsdzF28inxrBw//9HvsCA6TaWumvnkmjiP60wxWaCoZELb4IYjExFEYxKraBEUfLyyTMuuUE1koGQ5eVc1zRNlQFqtQo4RXkgCTBtJRA6mJFjV6ihxp48nAQZtQiNrBM8eQbNNcuRk/NFTUczEzTFgJSUfNhJkxqlaJoDzAwW1baKaNd1zy2yycPpODa+7h5h2PsrewRaFEQZNqMpdocxMb53iBFNKuzWK0Pli15t4EHQRZfwEHN954I9dff/3LNvTvfve7fOxjH/ulNvo34pveDADh/ltuZPWZb+PA4T4+/8Wvc9c9j6lLHRop7Kgc2wi/Ea/+L/eZjjpAiIPpkk20djiSpNeE9BVvfKpVq16iqgpJmxarcgu44Li3k1l+Mjuff5ofPH0zbYtmkm5tJ5tuVVa70m62JE/GzCj5dX7xAJt+/x7m3XsSc289nao3hiUBdaFLcUEfowt20vWjU5U827OLVK0JAqtMNO5jZ9vIlBpxKlllfGRKEJTpqq6qjEl9ewIvMmnwGgiDLIGRp5AdJMDD8XIqc6Zq5tXXndi7ifH+EicuuZDTz76M1O6t3L9xPQ/13q72OOkYyDhFKRliHWFyCZK458nrleQ1xD4IR5mkqHUJU6KdleW19qyYHLnHirrEvkJgUgRntizmvO7TqD95Nfn8fr5++43YrU20d80g3Tgd28wIK0RxDiQgsNOb4Pe2PcCqgUPsqe/iT0/6IH1OgGmkSEfCLbCU+k2CluyyS8WZoCJATpIyAw871Uqm0IztpcGRcY74+SgBqOJ9BNY4ZcujudRBqMKgfEqpEXyniFNpAreC5xbxwzwTPTvo3bufU0+6iguv+ATG2vv52YFevrv1n/T6xC69Cr6oydOkJ4KyC4gJ8uq2jY0PVWZD4qT4ajsIt90yyUFIbHVrdpovSonSp+RJy0v1FKkW1OrUTC5dcjnhgoXsrfTy4EM3U0x7tM5fTDbdruQ/4ixoS5CJ6FxtcVV0cMUfYcKk4o8rJJWiGdfKEIQV/CCPGaSxgjS+XaLq5qmO9ippUV11Bm4pQ8WdUKjajnKxLFSMJ8rK2zodpqivtsqa4jsl5W1eCkYx3UZlOFKoHMYcO0LP/gO8/bSPserqD2DcfQ8bdm3gh/seoBCNKjSu5krSrqvxl6ZEjiakzoQUopCWmhLpSUxid/nL7YWv+K7XI4th6geR7y//vhlfbwaA0NqU5Y8/9wnWrvsZt9318JtumY46QEhslGPDH7WL1Wa5sZV6XIGULYzqqCfSboO5dgvv6jyDrhVvp7Kwhe9/40scNAaZMW8+ddPmkTLqZZqpTH0MUW9JVyFl03vlC+qkN+vm5VQYwQpaydoZ9ee+nycIfGyRx5mB2tc8cxh/ZIJU41zq8i2qOAR2gTTNSL9as98rVCRR0PBp9puoenWEVgHPHafCKIFhY5s5qpkCY73biQ4dxkh3csV7f58ZfsSRdc/wvefv5oC3U++fBKqLqzobRpLPEyvB4jsrMahWpVtOpnE65tGUOSZ22KoIxrL7mgfNS7sIavqQeAHoE+18p4WLO0+ne8kpRMsWcM9Nf8emwh665s4n2zWTFHU6MVjV0LT6HseP93Be/15+2nUq21M5ysEwRtRIvdOoCp8vEvvAx/HqCa2AipmnGo1ilvNYDd3UTbQrR1/fypM2W1Uwk6oUpqQGj+E7ZdrK7QRhStW6iiugYZjAtHEk7dGtkh/eDkP95MdNLnv/51mY62Rs7aP8eN8Gnhh4sCbn1HlaAuKSn30y3GrSrye+b+PJwGuUOWoOQqLzT0p+zTFYLcbUTG79TWOho+45RNBo2vzOvGtonTWPkTmdbFp3Dxt2rifd0UrjnIVYhiyIxoRyA8q4wLYayVmNeGV5GApEQsAJWnCMFGUmMMICYZAmHTYqD/KyJGdVD2Gkmqgfm6U4CeX6AZyoEatah2ep4AY8R6yRA1LVHG5Qr4gaJWsMzxSQUSWKSlQjj3zfHhiZoKthBue+7zM0lspU1z/Fozu38sDAg+KaGrci5TPHtqM1w4MpUZpTtmQ9ppE36xjONwNAeNNVnCk/0JsBIKhxQo3V/OZbraMLEDbEh5pXuE6JOCkBDkqwFQMDucaxsqo+dHhH80mcuuA0WL6EDXueYesz9zNcZ9PUPYtsU7eSu+l0HpkFCBktRTRf7NerZHZl8K0KqVIXGSelOo6VaFR5tjhhq9pbfbNE2e0Br4RrziVVrMNPjRG6IenyDHzGCEQmrgLnKmR8IULWY3hpNa4oIafTKr5T0WqGsR6G9+8jlTdZtfpKVq28AGvnJp7cuJF/P3gfRcbjUX9s/pYU5cmzejy+mLxumiOgW9yy7R0tgCAdZD3BTiTjkxK+SeOkZHPWR1QZJau3xwbAGSxW1y/mnHlnUZo5lxFjhMeevJOBoELD7G4yDR3YUUoXWMlIkEOd6ZK1WlSKcDUYw7PKuNVmMkaDUlX40jHwPeywSYUVVqmqNbKKJdz0LFKFBqqZYap2lYbqDKVk8ZyiWiMhkdphijqviTCylbyxZI3iWbI+ZXw7ojh+iEJPD81WHctOuoClx51G3aF97Ny4j387cDMj/pBeDTl0KtOo2PZfAdgkXCu+ZqrbEnPl1OFVG029+iyGROaoLuyUBZlKAtEwrsYL0U2MSbKvCj4xDD7QuopFnaswF85hxPB47JnbODjWT25OF83NYiYiTFFxBwsxwywpuwW3bFMy+vGdEDvMkvZalV1pxZygahawfJN00IJphJTr5OKP4wgxcaKTij2iELUbTVOSxkp6iIzXiG/4pFQOQlYUJkp3WrYGVIymzNf8qMjYyH78wTz+aJmL33ctC+e8A/PZJ+jdsY87Dz/KXm+XHiskJ4n4uUhGCTFJdHKzmSIUVqhR0MGbZMTw5is5kz/RmwMgvJlXCI4mQKj5ICSdv+TSJcZJcVqh9kRIDmwxaVE7LCmF1UmZbi6Zsxp3+gw4/kSe27iGn669jUxXOy0zZ+PajWpTtmVGGooXTCNpI0fojVMRMyILsqUZ2JFLiEfVGlPjglS1VXVbK84YkdVLNZUlne9ExPW+NYobtuAEzRQyB1W7XWTc4g9j+WmqsinJrx1JBzyieFmVyjj5ch/+kVFGJgY4df7ZnHH5R2joK1D82UZu2fEwPyts1cmPygI4aRMkpnBTUFPtcFS7aPqELB2E4OhxECT0CiGcJ94zyUdKugQvqUfql+IcqXJ14toktstRlvfMfifT5s0kXLiCFw49zROP/wg/l6FtxlyMtKyRgAtfhSlZZhOpMIfvT+jDpm2SKUtIVo5QOjXmhOKGWEE92aiOilmgmjmCURR5ZbfK4aimB8HKkit1UFb1qajWxjF8zLAOX1wVJbUYk1JK8heqisPRP7wHt1xk+NAQS+ct5eLrPk92/xD+5p9x85a1rJt4QuFM3ZmO469j8maNAqDOpnENT3wjEkfFeOygAMKrGjEogKA5CEk7R7SwltJWxouUCGOThagxVJK/o7sM06njvV2n0z7nBKpLF8DYMHfc+8/0WgEdM9tobehWBdsXtYLVokxFSkYRxyjiGSlcvwnXsyibZWxpu1keFhUMrxkrMijnhgjtiFSxWaZHqo1mVG3cShuhjBDSw1jlRrJhI3ghXmaEIBzHs1PY5PBNcWQs0L9jG5bvEXoVls07m9PP/wB1B3dR2bWbf3n+MXZWN1MVOWbcTtG2pS9WLyStxwTl1tpgakH0vOctgPDGL1xvAYQ3/hr9VwCEmj3tK/34Na391D+MI3VjqXc2snl322ms7D6e4fnzSS9oZ+P3b+KpkV1Y05qY2d4B4oAYRlSNFlyyBL4Ag6KSVpthPblqC2VjlDBUOkowRapYhxvWU04dIQpHINWBW67Dc4YVETXldSo3xbGmA4ps51aaVYxxOTuOFYxQzDrYFRdsi9CcYHx4P/7oCP39fczu6OKKT36FtrGQ0sZneGb7Bu7vf5SxYEx3oNSBJtn0ku5prKdLiNpTuFZKRhdnMched7RIiqZ0EGLiQ7KvJrwHvW5T8sZiV9+4EumTdFwc7dDkqsZlHD/zZIoz55CZ38mOx+7nwRceITu9jfq2LnJpsa4OKUc5MmaOKJQOc4FAuA6mS2Ohk6qMbMSDR07hZglCl2ypVSVkFlP92OU6HL+RIF2AQLwOWsl6jRTr+8X+iHS1lZSfUlJGozJOKe1hhOKFYBI6eQYP78LFZ+BwD7Nauzn7rI/TPXM20Qf9d6IAACAASURBVHPr2bNnD//v0B2M+mM6AlvxDZK5V9ItSGSNkwBh6lhGrZECf3EH4TUDhCmoOrnuesIgN3CNFqLWQssqYoctZVgkBESTkxtnceWsCwlnzaM0p4mtz/2E+554iJaW6WRmttNeP41qIAAhRxh4qh2Tlvl+JUs2aKUsjomMgbTK1ENTxI4kGdKmYgtAMBSC9owRCCYwrDbSpRYMZwwvPYYRNJPJt6h5TsEdoBoUVPPDdOowzRKju7fguQGj+0ZYsuJULrniYzijYGx6mp6DZf5h3zeo6nwydVETLKT6iwokJIg6RtvJZpIYSOlGXWyUdOzLHN/45eM/9wnfAgj/uev3q/jbRxcgSNyzVjHEc1V9EIil1TUuQk2OGO976vnWPjDJQeq0hpmc0XoG02bNYKx7MeP+eh5//BEOjQzhdrfT3TUXJ7DxozSO7VIOJ5TiiopNXbkN07AppnuxKkKwlsj7EkZUhxvlqDpjUB3HTDUrP5VARhBWmv+/vS//keQ8z3vq7ur7mOnZndlzltyldqnlIYuUKFpJLMewgSCyoyBAgkACEkQB8pOcn4LIgCTon4h+oiRAsAF6LQOGI/iMKVoUs0uRXC5FLpd778zsXD19VtddFXxXVXXP7M5wp+1ZOT2CQLK7uo7v++p7n/d9n/d5jagJ05FhV5cQRQUYTpXqHnjaFmxpAN23EOpVSFoEr78Mr72J1mYPqh/jP3z9W5iPj8Lb/Ajdj+/gz26+hiudd2k1VxTw58yoR9LaO7H3JwJ5Y4S4mHa3ocMycYCQMPDZKku1kXgHx0z6g1VfkClN1RdJIvyolsO/afwmjp9ZxOr8KXTVe3jtJ3+MruNCbRZw7NjTtOQxjHK0FJ4UwmuRhyA0oPt1GFIetnYfehDDjxVKgCfCe4Z3iAIwW2tBJSkIUoUXtRApecojMZwK3NISi/I4DWihDttowZFICWsPil6BpMRQ/Da6vfvoLw/Q727hv/znb2H2yGnEV2/BunYHf37zDVzuX4QrhzQFlUZ4MmWeIp0lwBttPcznk5AWeVUd+fqT6yB84/fxKucgiIVPdRAIghpDi8n3vKiGigGJt4sacxllKY+Xas/g/JEnIR8+AfncUbzxJxfw/q2/h1JvoHC4ilrxMCTCSZBkmoshRFBVqsLwcggVUl3g0jamqhvCV01oJEcUmvCjFgIlRk6W4ceEZ0D4BQHyLkkx2LCLHehhHcawBLtyHwgD+KRrl+RCxRDrKysoWCHWuptYWFjElz73bzEblaC2b2L94y5eXXoH99w34RE1LAoOGFlnREQqE8YRaRchOcp3Ds6yZWG3X3UdhH8MA3CQ15gChIMc/b1de7IAgeggZPwdwbHKcouYB5SkVek+QPdc7rry3izk86fzi/hnJ38dczN5tE6dg9tbwl/9xR+h5zvIHatjpr4AoEhbyhNNAsJqlyMTeb9KZd/juI+IlL8R60aaMKkqrVbwdAdSv4W4UIBMNshIo2WIWjAH3ddhFVcANYe8XUWkWgixhUArQJIDBLGNeLCB/noX1laH6gP8+699C3O+jvDWChSng9duXMPrrb9HP+4ipJUL3AfP9Fqgn3BDQz1SYZMyIjBMDoelUycFEEiKgbR7Fj5pQpzfYY7od9SxFY4ZuWk2wSz1LeNQVMLvnv5dzMxXES6eQtfZwv/5iz/Cmt2BcsTETPEETLMKRSJzFFHtAkkhY9ugsseu1iPUTShE74HoaUoRNKcKiZAP400oOaIUTCSTc5BJ5wutiHJ3FnZlBYEcwxzO0FYBikR4DTkEJP0sW3D6mxiut2F3enB9C//69/47zpWOI1rvIFq/g7+5eQNvtl7DAD1GBCUAiOcTRmySaNjE2yWM2yM2jbT07tEAAm3WlOEgCGS94+vLuQhJDp7n5Whoh6cgDL2Gp45+Buerh7EwewathRLu//RPcGnlA0SmjkKjAbNRhywXkCNsXPrgRRhBjiJ5iqSVIS0Z8WmNK/lYRzy8D18nPbzLUIgwBdEqj32Y0TxCrQPPHMC0mlTvAEoPhOMbxQ5Cz0J3awVOewjXstFozOI3f+s/4ZA+D/n6+7BXN/DXa9dxufU6fIUUoGRRqNC3TkkxbPPgo8NYOgwb8I9IioZTgqcAYW824MCOmgKEAxv6PV94ogDh0lus50IiKc+IiDsC+ZG9jhkgGkXgex0zoAqeXPg8nmoew5liGcHCaaxtXsXlK3+LDccCGkXUGwtQTJ1K8VJ53DgHIyhBVkklgoNYsqh8XOTrPI9uwtf7wOp9SI0mFIkQGWMEsJAPFqjcsltchxwWoAd5BIaFIPBouN8Je4iGPbQ31xD0HBj5Aj7zzG/g2XO/A/fjZZTb1/Dh8gb+ZuMNrDp3qAHLEqlFk0Bqh3iOWzg+NAPO6+yTyROaLxMUSkpSDAKQZJzlbYtmZI5ESpzNL2UjkN+GCuaaT+O52U/hiZkmyieexL3b7+D9q69j2e4A+SKqC/NQzTx0UtFANC+ImF9Yghoo8BUythaUmJTRa1QKWY5LiP0+ouEqvHoZOZTp74KoS1t/m04Jw/IabdCkhkXImgOPRgE8Oo9ur4t+ZxNh36UA68SxX8Nv/95/RfjONUirH+HORh+vbbyBu8ObbI4yAXya8qYGR6QYMhExYYjGHFkKEB41xXDhwoVtHcZ2ytEl+Z8MJ4GVVIg8FSdPEAalMYuj+VP4QnMBs8efgTan4YPlN/D+L6+i3x8g1yihUK8hVzRpXagRF2nrZtKOk4lyBLR7GWnoFGmkyYgCdes+goIOSWvQOmOP5IUiGRohjOQ6lPijO1XEhgc/tOG4HXhDgtA6cAYD+L6L+eZJfOGlL2Gh8SyMW9cxWL6Lny3dwsX2z+FKLk1rUPtOrX2qGMk2B06RFUQm4X3wSaFRB963fAoQ9rz/H+iBU4BwoMO/p4tPEiD84hKLIGT/RL6Wvr8ZmeUU+9P+sglBjHlCYn8g/1RQKJ7FrzeO4vihE6gcPYaN6A5+/tbfYWWjBbNSgl4roFysQlIJQc2EHlaofr+mkNC0R1s40zJDbUDL3gj5Wr6/DjQXoAU5RBFRiA1hBE34eofmu1W/SpUaCdveclsI/T68/gBWu4PAcaky4Av/4l/hqZMvwbx+B+bybVxeaeONzmXcc69TKWZGiOfgZ7v1pcZLPGrK2eZpBn68EO6ZZASBhN9HjKLoyTCa6U4r7Fh1edpGmc8R4y6QoIKKgrGIX2ss4tzsAkonjtFWzT+5+HdYW7oHJW9Cb1ZQqlYpcNNiUl5fhuERmX6SvgioCjARwYr0Ho1MS64LpbMMt9mEEZUoyCTaEzpqtPzUz/ehuiUqjxQqLmxCfhxuwh1YsNpb8HwPhqTjxc++jLOf+R0UV1xI197CRxsdvLbyDlaie9QmMfFe4iizrplpdyYxYRlCp1i/dDw4BYDS4Vjlw75JiskaEe6wqGZI2K1J66iM25xZMDyHRTAOiRA8XTiNFw+fhrawgOETTSzdeBcfXnodVhDCzJdRnasDuZjmgRTNhClXUYSBUDIRkpbNtOsVQc59NNbaWCtpGFQb0GBy5G9AkgJ4ug2ZyGZGJFdkYdDaQGy7cIc9eEMHchjg2OGT+OK//Hcoyiaw1IJ3bxlXVu/i552L6JOyljikCDlhL/NIApeeSKIEbJLGwgainiEJPkyrGPa0+x/wQVOAcMATsIfLTxYgvM3EZjJVR9Q8im61ybstqrZEtJCjikyOO4kc0oi2hhn9MF6cOYMj86fgP3kS6/YKPn7zf+PuRguFUgmVmQb0gkZV9HxVhSHXUI4LtCdNGBNtZLKRD1GUh9B6fcpqX65XIOmk74xMqyFAqh60NiJNoSRFNxjAGm4htofw7SG87hCe76JhFHH++S9i8fSL0PoetBsfYXNtiD9b+SnWoiXapoiCA+7cCBJgGhkQHA1idXnGhR4rqgSEXgSvYphwioGqHY3/JQ5ZGuFN+2ZQHcy0ClL8nD+gRM+nomkcxgvVs1hYOA7p5CLWS30svf6XuHrnBjSjgMrsLHI1A4Hv0WZYebWGAnFeZQ1eZFIpZ9IR09QtNDoOovYW7jYrkHJVaKR8kXQujnV4SgexGkCJcjQdbg/a8AYWYqsH2xrCdWzUSxW88GkyR+cR2xoK16/h9uoWfrZ2GTfda/AlMksp+YIFUrgK6Bg2YM4s/1DQ5HiWjAat9gMQLvzxhaT/Nns/MjrYfFEkeEHYxiTEzm6K5j2Y7ASPRrBKCFMy8c9rn8Z8fR7xoXnIcwbklbu4/Mtf4pq9BkkvoFgoQyrIKFTzUDUdvjtAqBdhRiX0/CHyoYNPWTEOb0Z4rxJivRSh7wcw9AJiiehaE84CUUhUgSF5sXVYrQ0MPQdh6OFQYw5nz38RczNnoVld6J1NxJsdfLCygovt99CLNhk4oE9CVMqYd8DQNdlMyMvJQjpCkGNk+fKmGMIxYTjvn06zpj3s4b+yh0wBwuM/dZMGCML47BQlpcHQJFnIrCfZA2hHAtEUKAkt8E2Qpyt0ScUTxhE8N3MGhfocgpNzOBRv4v/+9B3ctlexpYTIG1WopgqjqqNUbVDxHdsNoWs12ngu8Cw8FcQ4vDHEwMjjPdPCgLRsVnJQVI0URELVSMmciryvwLdjOM4Qg2EPfhAgJ8d4avF5LJ55EaZSRK69BrXTxe37m7i49jFW3A9oOWRSocYb7zGnh7XiY6WCabtgkjKl0voCPI2UhBJuAhFXAr75PyfT7plwECgflOtREE5c0pchATTp2FMPm3bSSxttpXw91ukwjgPKq9MlHcfVJp5vnkGtMo+tcydwwlnCh1du4aP7H2MdAXL5MrS8hlxFQ7FUQez7sAMy7jWEoQTfH+CkpuLcTRsDScWVuo+2ESKSVDpOZAxDhehXKNA8BbGvUnDQG/QQBh40WcK5Tz2Ho8eeR92YhdJZhdzpwFru4ycbV7BifwwPLk91EzVOtgYJGGI8mIw+B58L8bmYIxo04SCYrGmSYiDprVc+cbOmTJlj8sLQF4GTIjhLnxjJRF2RRzT4nbJ7ykTd0vdLgiLFOKI08FLxPCqLM4gWjiE8U4Tlt9G5dBPvvvk6hlCh5AtoVGsoVMvQDR1dZwn9ENBzBgqRhLzvAHaITVICWdIQeUUUcwTRMWVLe+gg9GNYQwdDf4DQdiCrEo7XjuDp57+IcuUkpI11GK07wBC4sd7CG8OraNnLFBzRAU5ai6ZPlHbGyqRSxpBawhgVEzLVQXj8rQ6/wylAePynapIAgeggCMPDUgtpeDZVkRXqfalXxrO9PLfNx2xsHyC/ryKH88YiFheOQz9zCM7CWWjyZdxvATf/+nWsdHuIFQ3Vag216gzUugYEDrp+G4GqQw9lFOCh0FaxrLUQRgqVqc8VStB1lZZv50MJ96xN5F0TXbsPz7Hgxw5mcw187sx5NJ75DaBlQ19bAtptWG0Hf96+jFXnNiW7saQB87i51ef/ZCWENEYgNnTBQ0hKP0e9d7I/EqI4OX5iQkljJMUkSpCJ2lJnVMwf7xORVJxllrTADOKfxIAbkoLPGmdwkigqHjkM52QT+oKLzQ9Xcf1nb+NeaxWxYqJcK6BenIVWKUCKbbS9DjxFRj7KIad1YKwo6BYteBq5FwM5tQxdVyB5MjQvRLtHKvIU9Ow+fNuCFzmoGzU8s/gsTr34JQRbNpTVO9AHXdgbHv5qcBs3u+8jlEipJevYSN1uOk2sIZNoykSrNUjYS0RaMuCIIaK06oO1N9pniiFb3cKAIkeQKQcvafEsGl1lonTJlIg6Wrb0WDMJJZJgqkV8YfY5HCoVoVQMeJWjkOvHYBUDrF/5U9y+dRVb3Zi+DKahI1BdqLIHSa2hWq7B7XdgxQNEBlnBORzJzcN1AljDPrw4QMH0UQti3F5vY1CMcP7Us1g8+1k80TgLa2kL8a0PEA9cbG308GF8F+91r9PaVhLuS0SgRK2vIMVkmMwCtSXRlZGym3RF8tgBI5BMqxgee+szBQiP/RRNXChJNKEbq9ymuvX0/SVVXIJ8LbxmbiBTIn3KnEtY4zJhKkgwQh3nCk/i9PwCcnkJdv4YpOZRqLUCNjfewr2Pfoo7yxYCX0ZBLVJtFhKO1tQi6tUmbQLU7m/C133oholyrgmV9KNxXDjE8dEClPIx4g0bK5GN5vxhPP3cS3h28QWsrcow7n6IaH0ZTt/D++1beN++hX48pJ0EmcMjxJJTZnXaGEmkFhgpWzwbLSPk4e3simGk+gkrKRKhJELMyxC/RyMIAthxT1oYQB5xGF/RiePLwkAUFmnQ8UT+BJ6bXYRaVBBXmvDKxxA18hhYV3H77b/E3ZUu4lhBTiaE0hChMoSi6qjXTgJeH5ZvwVVdSIqCitJALi7AdgewHIf2vygGFmQPWA4tlCs1nH3+Zbxw+vOIehq6H30As70Kpxfj1nANl3q/RDvoIiTNtzLcNrrKRLBEpAoyPBniIJMIDyvb5eGVLHmDp89YSvwRqxhevcCEkra9MGKkBeM3KyBCL8jYv/R++ctFvekMf4GRTNn/SuoMnswv4milgEpBQ1A6ApkwfKU2VnrXcfP2VWz1+pCcCIouw49Iq8wAsVFAFA8RqBGph4QWmjCkHHzXRuxHKKgyopB0RVNx+ImjOP3U5zBXfxb6Rhv9pftA7x4GloXN9S6u+NexYd+ng0oaQnEMk+Z2BOGSljgKogwTBEnIOhw87cR8TgACi9dNqxgec/szBQiP+QRhskqKv7j0Ni2ho1tpxlHecRQ4Q154ZKztcThaBcFiuYxYzcPwZJ9Q5TzOFT+FZrGIuZIKLTcDv3YShhliGK7h2p13cWd9DZEbIC8Z8BRCrPYhSTogBXBJF0BTJkV10OI8Qi9A4Pgo6uQuVNrXxmw2cPbTJFT9eVQiDdbNTbir7yF2A6wPBrjVXsYt/zYsn5RTyqxcW0Q5GRLizhG5/0QJKTE023gJ2waJNSMS+e9JkRRJFQNLGWRMyXarz64rjGXS8yZNj7CyTO7oispVauiYTZIjDU/mT+N4uYmZkgStUEdcP4F8PY9N6wY21q/ig1t3ELoh7fZINHj80EOo5qGAyFiTxoBk+lXogYmY6PrYARQEKKoGfElGrl7EqXPnceL4S5j1DVhLbdit24DVRqs3wN3OOq471zEIBjS5E5MiGR7f4Zlq9gGN5KTFNylRdqwUdQwcUHzLEub0Xx6JpEh0ENIwjigjZbOTRNF4yILmpyhiI4EqFiEQEQfx0rEOUhxA0NORxcl0BaDoqOuH8GThEA6ZecyYOfi1JuSZBeRKebTtNWxu3sCdpdsYDgbwuj14JAcWB/DIC0gGMNIZEZnk9MolLDROYnF2EXPNQ4jjBkJnFcP7d6H2h5ADD62hi3d7S1j278EjATb+MrCwCxtC0alM5N/Y3XMvgUt8JgBBbBzJO8Vnjy9iykGYRhAef8tDmrSWy+h2SefP/f39x6/+N/zhH/7p/k4y/fWOIzDZFMPbVEwnCa+LcriRDoF8Ixakt5F4e9pJMHXYBP8qZWrRPV0mjZLKOFs+gblcHo1CAVq+hrA+i9LsIQzDDjatVdy7eRnt7gBerwfP9yEHIRxSEqcwayGTttGqBDWnY7Yxh4XCE1g8dQR5/RDsoQu/exdhuwPTG8LqAbe9Di7bNzDw2sl4Mo6Y2M9HfHP+dOzeWQdHXiIowtTcqLIDMmzshFDPYsqTSjFQgJC6xPSCSTIkHWIG8jhfgh0jiKSpIiQ9TSY9wmYqM0+kZ6BcxfH8MRwzC5grlGGaZfhzh2A2j8Pz19B1N7F0+32sbbVht7sYejaMELA1EiImmr6kmR8DNVpORblUw6nmWRxrHEZpZgGBHcDrLMPfWIfp2+g7Ae72+/jIuYPNYJNL+ou4vBhjHkGhAGg0msJIo+kcsXkT/Sr4lAtSSTJl+4ogXEjDB5lcAzOInB2anZiR+hM2TXy20tzVyO/SpckOVGBqJTTVBhZKszhULKJo5mE0ZpAr1dCTdAxDUjBi496VnyOwBxgGPgaBQyWWUSqiVK4jL9fRLDQx15jH4UYekddD6/YywvV1eIGDjmtjw9rEUtzBmtdj7TqFuBMf+HRH4nUyQsubPzt9OhGS44g0YS8L8ZAEnbKIA51OmiOaNmt63G3eFCA87jM02QjCW28RJUXyenJDzz1Qbh4zHlHi+YwO0PiGLTzYrM3lhpQFXolxN1DNzWLeaGChUEA9V4BerSE/swDoClquBDey0Fq9AXt9CUPHgUWIbr4HxdCglkoo5RtoaE3M1I7hSK2ISjVG6+59DO5tILB66NpDtJwtbEg93PG24HhuWorJ1RBHIp7c8xNuXFbaJdt3Z1u1VsZZSvyrCXdzTCIIwqjwsRWONMvPM5uSOG3ZWRrJfQsqPz9AoDq+iYu+QoqcQ1WvYMFsYi5fQdMsQS6bKDeOwNd0dGMVpAXWxt2rcN0teKsdWDUJ9noPSj4HtVBGwZxFU6ugXDyMU0fnUS7GaK2swFraQDzooOvZ2OxsoBV3cStoYxi6iTVP+ilkn2NkjviiSjz2tDeSmKOsnUq4JDTAkKA6/OCVH+CrX/3qri+9FMdxvLKygt8nSooXLiTYks0JCx3QYE3GticoLpMbGrlShuTHjs00dRIPlnweU3EQVStjzqhjNlfBvFlFWS9CLtWRL1ehmTPoe21osoKuD4S6jSgIEQc5mtvL9WXotku7QYZOG07Qxdagi67bRT8cohMO0Akc+KJ+NNMHPkGeI/fFJoGux22fP2RMM+ApAQic6DPt5rjrWjzQA6YA4UCHf08Xn3QEgXjJVNEku6FxP0e89zvY++0ldJmac5ZiyHp74uQstE/+S5ENVPUymloVC8UGZvUy5FIFeqkJs1CCS9KYkYOhp2PoDyFLPQSyCVXTUJRUmP0Qru1CGqzCjh0M7BY2Bz30/AHNX3ciBw7dv1hpYop2MsM8tq+Jsjlx9JiDvvP8ZLATGydWtzXRCIJIMXCQlViTTEX9rvZIRD6EDeO9I5LUhXD4aISbZTUUxUBRLWM+10AjX8G8WoFWLkMp1GAUawgVEsWW4Q0jOLUYcb8N1yailnmYgYSiEyDwI4S9ZQSxg96wja1hHx2vi17Ux5Y3hENKTGkUK5NDGQ3qpOMugOyDbO6D3qDMRLLsC0sx/OD7jwIQMs2aaPiCSzduI7lmmZI8uDOysDhXgd6PCN0lD85zPxkSLH8nQaCCJhsoawVU9Vkc0ps4YpZRyGmQayUoRg5hqFO9BMgRoi0JrjpE0HWw0e9jyx6g69yHE65jGBD07SCKGMoUQh/svWABpqQaQywcwbHYYbCz5Bjx6/HDxueWSVRPOQh72v0P+KApQDjgCdjD5ScNEJJk7kh9P7uRLEDgn/Bcdxr1ZgHUtEEOC7qOWa5ET4WVqAmHiRxJOARlNY+yXkc9t4CTZgVFw4ReMiGXTMSRScnTSj5A7AD+0IPre7B7DjasAdpeC313CW7URz/0aOt6gU8YOEhTvOwZxgQP6EcP94CSnTKTw99pqli2lhm7iXIQRN+bkcj1GKly5IYyEQXxuRiHRNomO0fZ7sTboRTpt5AnNsmoo6E3sWA00DANmJUykCOKlyWAKCrmY0RWhMAJEbhDdPoDtG0bG3YLjr8KJ+hgEBFJZtL8T5ArRbpnB2OYPNOoGNVOY/+gORoHtySCIK786BwEQfjIEvBEOEZkELKlEzzHkRUcEc24swU0D3v/Jd6wmhlUNouypNFaVV2WQephZb0IRS1ClU3opNEJeVTPgi8RpUQHltdHFAcIY6I0RlpJixhA8mqwF5+3UBqtcc5EFPewUY1LUG/zMpKwJX/5piTFvYzqgR4zBQgHOvx7uvg/CEDg7ZyzPoJIHe7QIHC0Dj+7iScsrd0fhSjyjdplGYZiwogVttdpJmQtD0UxoUsKFIOVNQZ+F8PAhu848EIbgRwhjF1KMmRbP/+jofdMy+OMXsHud7fzETtqRXDAQXQFBIN+4gAhiYIkTDAGagSfgOMesbczzMNGIquGST8nEZxdI8KsuoNZD7azM+CjQJUNEI0LUh6paDlIWomSUDXNoGX8YRDQDpBO4GBo96g9IpV1pA0ACNlUpKC5HSWzJtpSZ+8/mca9Rgs4ABJzlGQfkuXA3WIRTXpkkiKpYhDeNTXWlAnICSn8shlingClQphiT2EpNnO7IlfWHCmLcMnEkYAgrVFhlyYTTiIEyY1kzr3DNbKLPBnMBBlncigPeYtoUJIwmBMWMGPHZktQyM+FSBLVy+aCU4/6corfffvb38Z3vvOd/Z5m+vsdRmAKEB7/ZTFxgCAayWRSBEmZn+AcjW1qEu+Yx/Ymto+xnwujktLl2Me773XCmDEPT5yLCLURL4dEHVQQ8V76bSaPzK1gKgw0Hg3IXHu7gd95vxspI+TGdnyvY3tvElDhw5Aa329+85v47ne/u+8FlZAUk5rStLtWUlJK7mOEayDaUzNnc082aY9zNDLeNHJEHFVifdgcpZUcaa4/+U2COkeHZXxeaBQqATG72ySxJhIKTFp/O1KRmGggcFD3iSMI30i6OTLUJMxutq4ySeHwOtisoNI4AmK/F366MOHkvzMsTT5WO6HT3VbXbr8ZHWgBe+jSHjt1msF64DlpUwyxEbCfp6Bk+yKkgCB51VkN8bSb424zerDfTwHCwY7/Xq4+SYBw6dIveEuVVCo42cNoa9zUCIoSuaT+n38v7plnGiDAA9sfhKnfwWX9BAZpZI/dJR2wlzEUxp1VOo42p9oGDpIHTJ2gcQ9c7GvMF2Z7+6QAAjHAQs1WBOOT64s5SrAZj+NmogcjKV8edRifIzZLu4YV9jq0Dzwuuf89nUk4wjsfzIiHo3oErI0Gi6w8eI4EFRN45ZVX8LWvfW3Xu0lIigIgsF9kkYuAinwQ6agLo5peMAnHZMGFQNYJMt71fjJBFV41kZji9e4nWQAABAVJREFU9FojZ8mEV7Iyk3tCjtk3nItspCpq6fLKnmsEOWcKg8TRLOPCAQIPaU0Bwl7m/WCPmQKEgx3/vVx90gCB1dgLYXT+BtPdNTUY2V1H8AsY14A5QPRdF6lXvnXuJYydbrHptVJmlLjqAzzIh0YGMiO5AxBJFGEz0YHxkHR2LpJ9LZP+HXXLifPDxvAfAiBsZ5GKweaOpgA6/A5YFD3KVDeMQgAmkS/mby+rbtQebp+jsXMIc8nBl3BUs2Al+4sdUzdUxGoUtCTWcEynKAWnPLUi0kkjkyjcWfJjJjOwD4AgJkAAghHzmGGHJDqKaUlj8mKNAwwejkqUu7KhtBHTyita2dOJWMYIXhnHL7vM8W6Rhgf9fBQIpEIdI6h0h0kQYinTCMJeX77H47gpQHg85uFhdzFZgPAWy2MnL7oIGYzvd9lSJnE8+Uy0eh3dyKkUPXGIeJn4KA9r3ODzKENCktzuyVLlwgc4WNvJ0ruHpHca3xEjkxjaMQVDvhsnzmOGqJ7I/k48gkBSChkARx9v3PUbB3b8e/pxFvpkQR9rF8Ci4zw6zJ975wgzj6A8zNF9wNA/iND+sHW+02+y9ii1jRnTK7gXifMu1L84d0PIDXAb/QgA4Rt49VWmpLi3v51wp/gsGyKhSSJu7rO/SUP7O0YssiG6T7ju9/wIyaIQQ54OeNLpOQvIOQPiQedPlmC2yoOHvKYphr2tqoM6agoQDmrk937dyQKES9ty1w+/k/H97kH/zVvBJyfLGv3x77bvJBmq4QNvZ9yA7LQfPchjfSBAyHyRPb84D7lGdk9MCOU7OEl/8AeTadZEo7lj/IL9z9FO9kh4nVmbJGyCmDMO5h4xHfHJbdJ4BCF98nFzSI+MeQNB/mVibxJygjDD7Lzf//73955iaLfb+NGPfoSLFy/u/W19jI9k+ZndU0vikNFlkSmBzACINOHBBpguXv727MX4//CHP9z3iP34xz8G+f/0b/IjYJomvve97+37xP/re6/gzTdZI6Dp32RH4Pjxo/jOt//Hvk9KiL43btzY93kelxPsRMUT+5W4x/GY7vZIaBoxSL8T3jXbIQUvbbfn/vKXv4yvfOUrux226/d7EfLZ9SSPwQECWmy/lTHxpswB293ndPQFDVbMe8IXzChd7maTvv71r+Pll1/edXQoB4G00ez1enBdoei06+/+aRww/pY87C3a5xPPzc3t8wzAYDCAZVn7Ps/0BNtHgAC+ZrO576HpdntwSJOW6d/ER0BVVTQa9X2fd2trC77v7/s8v1In+Efc6wqFAorF4r6HZ21tbd/n+JU9wXh25JOFIHZ9bBIxJU7Rbn8UIOx20PT76QhMR2A6AtMRmI7AdAT+/xqB/wfRqXcpv7nZIwAAAABJRU5ErkJggg==;clipPath=inset(10.34% 82.67% 3.45% 0%);" vertex="1" parent="1">
          <mxGeometry x="247.4" width="135.2" height="130" as="geometry" />
        </mxCell>
        <mxCell id="vlSNPFUABqCGarVpqag_-4" value="" style="shape=image;verticalLabelPosition=bottom;labelBackgroundColor=none;verticalAlign=top;aspect=fixed;imageAspect=0;image=data:image/png,iVBORw0KGgoAAAANSUhEUgAAAggAAABkCAYAAADjVchrAAAAAXNSR0IArs4c6QAAIABJREFUeF7sfQecXFd1/vfq9Nmq3VWXbMty7w1jMOBQU0hCGiQhvTdID6RCOunJLyENTBok2EkgCSEQIMZgsGXLVW4qtvpK26e/ee3/+25583a0K620s7L/MA9krXbevHLPved85zvlGnEcx+gf/RHoj0B/BPoj0B+B/gj0RyA1Asb5Bgizs7MYHh5eUghzc3MYGhpakYAqlQoKhQIsy1rR+f2TejcCQRCIi9m2vaKLhmGIer2Ocrm8ovPPdNLMzAxGRkbOdFr/8yVGoNVqgT5BLpfDStbbSs7pD/TKRmCpsVzN+E5PT2N0dHTJm5/us+4v1Go1ZDIZOI6zshf5EjprKTvSbrfFGuGY9PJIj/PZyGepZ+Az+r4vbOBqD77rwsICBgcHT7lUTwHCZz/7Wdx6662gAdm9e7f4ufv4u7/7O7z1rW9d8p3+/u//Ht/+7d++ovd9//vfj6/+6q9OFsjJkyfBP1dcccWKvv/lfhKN7NGjR3HppZcKWfHvlRpwTu4oijA2NraiYeS9PvrRj+K7vuu7kvM//elP48Ybb0SpVBJye+CBB4Tstm3bdsZrvuMd78Bv/uZvnvG8L9UT5ufnxZhdeOGFeOihh4TsOI4rOe677z4hu9tuuw0f+tCH8C3f8i2nfO3+++8XsqDy+ad/+ie85S1vWcmlX9TncK4TpF588cUv2HNSv73+9a/H8ePHceWVV4rn+P3f/328/e1vh2maZ/1cf/7nf44f/uEfXvJ7733ve/GDP/iDK7rm3XffjWuuuUbMJx40mtTl/DfnFg3I//7v/+LVr371iq53Nif9z//8D1772teezVd6eu5///d/4+abb8YXvvAFfOVXfqW49p49e4QNu/rqq3t6r3//93/HZZddJubgcrL71Kc+hTvuuOOM933iiSdw+PBhMZ/08Z//+Z9Ch7/85S/Hvn378PTTTwsbvJxDrr/XbDbxN3/zN/ixH/uxU+7bM4DwiU98QjwQJyXRzfve9z6xCOiprFu3Drt27cI3fMM34Ed+5Efwl3/5l0II99xzj3ggKim+xA/90A/hne98J/bv3y+8U/5u586dYvFwQPk3J/Itt9yCH/iBH8Av/MIvJAaFE5p/fvEXfxEcqCNHjohrv/nNb8YHP/hB8SwvfelLxeLkpOSg8H48Hn30UXz+85/H13zN12D9+vWClSDTwe9de+21SwKdM0rwRXwCFSUB1iWXXIKXvexloILgpBwfHxfjzOPyyy/H7bffLn6mgqDM6GFQlldddRXIClCBcIzoBXFifuu3fisMw8DnPvc5PPbYY8KwEJUeOnQIv/EbvyGuoY/XvOY14t6/9Eu/hP/7v//D93//9+NXfuVXxDX+4R/+QShz/o7X0/LhdwkgX/KSl4AL5LnnnhPyXAqIvoiHf9WP9vjjj4u5zjXwsY99TMx1yojA+zOf+YyYx5zPjzzyiJABWTkq/X/8x38UY8nx+47v+A5hmP7gD/4g+WzHjh1ivN/znvcI2XN9/cRP/AT+5E/+BASFlCvHmzIqFougEeJ9uSa5tl7MBwEq5yGBD+f2Rz7yEbHOqWD/9V//VRiJ66+/Hv/yL/8i3pV6SwPaL37xiwKI8eCc5Do4duwYqPA5ltQR+uDvvvZrvxZPPvkkPM8Tn3GNfPM3f7PQfZy/f/iHf4hXvvKVeMMb3iB+x7+5fpZyjv7iL/4iWVtcUzxoGAjwvvd7vxcf/vCHcfDgQfzXf/0Xtm/fLuTAa/F+lA8N34YNG4QTwHelftNrnOfzd1yDX/VVXyXGgMczzzwjgMfP/dzPgev03/7t3/Dud79bXINjwzHi8apXvUrokLvuugtTU1NCN1DH64NA9AMf+MAix6B7jtx00034j//4D3BO87m1naAO51z87u/+bvE8dCg4177xG79R3If6+8477xS/oz247rrrxM80dPT8007oxz/+ceGMkHXk83Dua/l88pOfFDaC48B33rRpE/L5vNBJGzduFLYpzWpT79Bu8dn4PX7GNcW/Ob8oF8ri+eefF7LloeXDtfm2t71NyOibvumbxDjyPJ7POXnixAmx9r7v+75PrG3qNwIYrkV+zuPP/uzPxPvzfpwPP/3TP50MKW0lAR3nIGXPeUaAz3lNmZNt4n15EPA9++yz4udv+7ZvE+NMOXL8BwYGEiDdM4DAFyc44IThwRtxEdJA0KBwMb7iFa8QC4OC5YKlt0iB/e7v/i6onPgZDQnBxpve9CYxMTlQNFz8mQeNEq93OoDAAebC5YTgpObk4YKmIuN9+GycYBQAFyfvt2XLFjz11FNioCiAX//1Xxf3oUK84YYbwIn8pXLQ+/zJn/xJYYh5kHbmBCKC5OSlh07ZcLx40Ihs3bpVjBkR7s/+7M8KhE3QxfH7nu/5HkF3kULjz1zsBHmcwL/8y78sFNpSAIHf//mf/3n89V//NcgyUE5ckLwHAcKBAwfEwqV8eH8e9DYoC57DucP7f7mxRhogUAFRhgTOnK80MPQeuNYefvhhTExMCOVFGfzar/2aMFY0GPRiqCTpMVER/+qv/qqQ9ebNm4Xi47kEGZTl6173OgGoqaioHC+44IJErlzPnEeTk5Pi2lTUL9ZDAwQ+KwEl5ysB6dd//dcLo0C9QkVMJU66lU4OjSHnGhkVGtk//uM/FuPA71JRcxyp/Amu9RwkYCPDQxkQlNGIUylTUdPY6nVAEMHx4hjzHN6Pc57/1sfv/d7v4aKLLhLrjn90SI86jLqJip+gjUaRxoEsHIEBZclno+HlNX7qp34Kv/M7vyPuQxBAXUpjSj1Hg8b50Q0QaFy+7uu+ThiiP/3TPxXXpqHm2NBY86DMqSf4/tQd1PWcEzxobLie6TRyjS53cHy5/smuUPdyLpIZJlj4rd/6LRCc0fBSj/OZyZTxHpyjfP8HH3xQzFvaA20jKB/qE+0AUn702vkuP/MzPyOMMHU/z6NMCZQpD4IgsqI01ASEBBXUYXQ6NcNDkM1n4bgRgPN5qR95Lb4nr0vnkmPB+9KAUz60izTctE3UsTTkBBp0pPlsBGt0tKh7Ccw5N2gnKVde841vfKM4h4CQdo3zhU52GiBQnxLM8160cWQIKXuOE8eG84vvwesQHGjGmPLj2PM97733XjEWHFMePQMI9DQIEPjiSwEELg4eXIQEBERN73rXuwRqo4C6AQIHntejQLl46QkRkZLm4iI6E0Dgy9LoawVHY8IFxufgtTmBuIA5wJz8NFR79+4VYITeAycHFxmNKe9F5PqlcnQDBL4XDQIRLQ2wZnb0+3IiciwIlsjwdAMEKiJ+RkXzt3/7t2AYiaidKJ2LaDmAQKXAseWi5KKhfIjKCTb5jJQPva9//ud/Foqbi4eLgAuA84Dzhgbry+0gQOAcdl1XKHEqVCpayo/rj2NGpcS5TNlRoXHeE1TRUBHc0cOiUaDsKHOCMH1QiaXXD40LjQK/Q+X0FV/xFeJ83pcGkWxUNpsVsnuxHmmAwLnO9U0QxTAKjRx1C9c955g2HmQKuO7pHXOecqw5fgRi9Pyo2MnecKy0fqNxoYLnmBG80ekg40LgRo+boTGOHcEJD+on6kK9fmgw9MHPCEhoIAkAybjx0N4x1wHXGQ0p2TnKnbQ412oaIJCFIDCh3AgQCMIJBPnOHAsa8W6AQABEEMI59aM/+qOJsSYgoq7kQcPznd/5ncJ4EcjQoPG6ZGToLBB8kWk63aEBAseKhpsGmwCOThmNM9+HRovvQIBA40tjx3dhuIz3onwajYZgQgn2yG6SRdAOEO9PncU1Q9lyLCkLznOCbA0QCIB5cMxpgPleNPpcIzrXjQCB64cAmzqIsvyrv/orAZI4BrRpBDUECFx3afnwM55HXUfZUe58Z3r7+qCTTF3HEAHnDW0f5xpDUXwfyoVjTNBOPZAGCASGBCE//uM/LuTJdyWjQ6BG+8kxor6k/Kin+b4cV16Pdpnzm2NClkkfPQMIVOq8uKZCuhmEboBAz4WITQuIg5tmENIAgeiGwudBRcRFTfCwXIihW8FxMDVAIKrjYifdQgoxDRB4fXrTnAxUfpwMPHg/3vdL5egGCJwkRMT0gojOuwECFSIVFxfimQACvVIado4fPScapeUAAuXChU7Zkm0iQOC8IY1LQ0RFqMNBRL8EIPzD71AZUXkRbH65HVQMVExUUvQCCBQInPh7PYepoLnweXAsqZgoi7SCWylAoAEk80Aly4PX+v8ZIFBZ0oDS4Ogx0nOIBoiGk94cjTgVbDdAILNAGlof9GopAx5kKDg+pG2pRwieaGC0fusGCNoALQUQCNxoYFYKEAgUuH7JnnYDBH7G56KxIMPBg2EqepJcW0sBBIIchh8IKMgU0XDRqOlwEnUpWQTqRjIcBPwMS/BnvifZDJ1rsdwa7QYINLY0vPRyKQd6vLyens+0BZqNSQMEghzej44mD+oSUuX6IBCiHAkuaAypm9L2h16zBgik3wkQKJvTAQQtH9oWAiU+L8eWAEIDimq1mgC4swUIHP/f/u3fFvOU70L5UWY8uP66QwwECASJBEAcfwIPzl/OY+pLypoMBNkhjidDYJyndMCoa6nnOf9pP3sOEHhBCojog2CBiJXUESkPGh4iNh465kcvk5/TIBP1cAHRuNAAUJERyZOV4LU4WYim+aKMDREB8TPSJ5p6ZsyVE4aMA+kuKjOiSaJYTgpOKk4afp9GjtejB0DjRGRGQ8PJyHP5PSJtPjMRLFEw0dWX0kEKjYudE48TnJOEi4vyIYJOHwz3EI1yfHRYgIuAYJCf0VBTMVLmVFCcfFRqHGsqFXpZpDrpHeiD6JygQB9aPgQnlB0XMOVANEwakbImZcj5wcVM5cRrk6GgB/DldJAV4FxPL2RSkvRceFAJ0IhRmXJNco5TKfIcGjYaDyp9eseUHec4PVyt+Hlt/uG4d68frk3KgOELykivHxqJdPz5xSYPnavBecrnpge3FEAgeKBeImCm8aOBpPdGgERDStaB85v6aSn9Ru+VcW2OHb9P/cfwHT1B6jeuOY45DfYf/dEfCfqea0+vH50fwPHj2iITRNlwXelcG83UaIqd64AGnPKl00SdSIaE9+H9aRD4DpwDfCbKmUCR8qJRoGdJfUivnQeZVDISXLP6oDEkWGeYgfqC70ODSkBAT5cMDUMYNFD6oANG+v10lWl0CjkGpMNp2AioqHf5DhogEGBxfBhy5DOQUeBYkOGhkSPDQaeP40JHhvLRXrJ+Fs51hj2p2+is8t8Evhw3Oqmc03w3jgHXDEMGPE/rtzSDQMNNXcY/2rZwDHjQjnBsCEg4zlyLXEMEGnxW/kw5UXYMw/A5+F0CEo4FQydkt7mWydpRv1E+HH/KlOCP48/1S1BC/agP3o92UB90sqkraRM5D/isdN6o56n3adP4jrS/ZPJpkyl3Mu86LNQzBuFsFQKRCoXOCcRJrTNoz/Y6vThfPwuvxcH7ciz3Od04cmFxAtOr4gLlJO4f/RH4chgBGnyGDegZ0gOkJ/ZiYxM1IKdyp8EhuPlSPxi64UFH53yC0zQD96U+xnw/ARBI4TCZSWf+r/WLE7kzuYYIip4I0d+ZSjHW8pmIwHWCC43fSnsxnM0z9cK7Ykyff873QW+HYQmiTqLSL8WDoJCsxmqPB3Y9jEOHj632Mv3vLzECQ4Nl3PEqGj8ZOjnXg54ZnYKVHGQNqBvIWNFrJfvwYuu9Qp1AcECPm96wThRfyfutxTnMg9Gh5tVcn/ZhuYMMMg+GKLT3vpp7rfS7ZC84zrrCa6Xfe7GdRzZCs++nezYBEJjhTyqfdEj/WJsR6EXDShrnvve+NvJhLJ8Z2qs9vvWtP4IPfkhW3PSP3o7AtddeiQfv/ziMVQIEGhXmupyvg3Dmy6ldLal7xvdXe3Tnh6z2ev3vd0aATBhzmM50nBEgyDynpRG7Nnr/vwiyt4s0PqtV3wcIZ5qKL+znvQII3/bWH8YHP/jvL+zLfIne/dprr8KuBwgQVncsCxAMremW13fnpOuoeFb70Ofwyj3Vd2fRkX9NAcJayegcxne1X+mpfPgwZyGjcwMId5FBkDP5rOfzSmCyIbF/98Asda+lEojkGMhvpxcqfxfz2mIhdlajvm5inA3ee+lnkMLmd1MdzfSAJxfqnhL6TZZ/efEJn+8shLfcxOszCKtdkst/vw8Q1m5se3XlngMEVeWR1nfUKytZq8udl/xeOVZpzaB/TquTtI4yDBNxHCnlu5gn0fpQ6BKh/0xAnNvRnmk9muhENfhLGyOtK9U3E31H5yexxFIviguk32DxFdPv0UuAIMZTvYO+B195Rep0GbV8Ohml5+op8kpVvaQxX7etOp2MpJmR1TPdMtIW6NT1kpoxyY2VjBadrD9cStrybbQ9OgeA8HZ8WMR8NECIll3XooZWvE2U0H2dQVcTK+5MJ/5EMcuBtPgTgM53pdFeCjYs/l03EF8ORMiB1vc0YAjQIA21eE4+oro0gcUiyBKbgBEhjvi9SAAPsTQi/SwmYvFl9TTJxQT66Bw8h/frA4Re2Yc1vU4fIKzp8Pbk4r0FCA8CNLJi0cp1uuTBD7RFSq1v7aB0GwqY1ANKZwjHRRrylB1PdNPi+63Ew1r6EZXLpO4j7y0egTorDVTELQzxiKF4JvFyagjkuYk6ExZY63J+RoOWAg2LdJ20FVLlxaI6oDchBisFgCijpWGOvLl6tkRPSydS2Jr04PPzREbSBgnpJ+PRmQ36fh17sVhGaTtypgmezDBhg+TZ4m04zvoXSj5y3JWNEYLUXwgR89m1H5ySkZpyQLTIuHVNsSixe6wWOcsQw8oBghjg1ISQ4NJkxqN0wCNliMXvO8Y4/bTC8MYaGCwveF3q0i2ADgA4tZb5TMJa9BwpXKyFpY26XlzqNaRnYSoPQ8tVMRcUkAAgCfBQSJETsM8gnI1IXpBz+wDhBRn2s7ppbwHCQ8saH61sO2Qk9ZRmFmj0qeY6xkev+cQwawWuFLtwKOh4CF2zvOMl7UW3PhMKdRlQIT8705EYJ/Wg4nGUcVrEhJiShe0YLu3z8Pcd3cd313fl7zvjRScQ5w0gaAOtWYZEbwscJGWmAaB0UhPslljoNJ8cC+N1BiCy5GDL+3Q7sPLUlQG/xJ4pLJDIQV9VA76UjDSo5exIQIMAP/r1UvaI72YQIMgP3//+s85BSAEEgxfWtH0XAtMPqgZKCkIOg57GWlBL0UOLxjc1omeDxuRonJ5nWrTIu4R6OuZBn7oIsqTdC41QFTIX56vFIxF7+rk0c9EJjZxpMZ/u836IYTWjd/rv9gHC2o1tr668NgBBGYSl1rNWAgn1rjTdIkSQ8gKVM7S8LtPGQiuU5R2jU3TUmfTdkizs4pHX6nap50ueJK3rhBOrPlkRr79WAEGxPPoZ1N+aDZYkUOc5E+DQ4XkXscfagKZfNdH7WoUr435a1qJ7Yi8zRsKxFGwV7eRpWJDTLBTphCuWZpGMUrlwBAfaBknDpBii9D17CRAQw2RcLIWN0nhIxMsUMutQbgoLLRevWZTlcLrBknc6fUxwZehs8bh3vnNK7CiVe5GOQ6YR6pIAQglPXE/QVYlmSfDDSuKaZ1KkfYBwphE698/7AOHcx+58fbO3AEGFGAQzHSlduoQB1/RvCvxral7qRXks0tmpf2hPcCljJFV4OtfgTMZjJfqu+5z0O3Wun4CFLp2nw8eSeO88dSePq/tN0snaaw8QtPO5KGyQFkCUZniUDeliZhI6PjXcp8tM0yxAOhqw9JyXY8N5sZy8O7PlVFkzhKPD4d12Zkkw0zX3pDXueN3abmvWQOKXXgAEdaOYeQIK+SyKlagH481MtYAkwlGTUYUOOpOwM2lPP3Bnr2pWmlR06pWXW2zy96cupW6ySJ6RUI9d6E1OZEnEUSZ9gHD2sj2f3+gDhPM52ud2rzUBCGlKOQkOLw6RKq0v1jD1nfbmdPxeBhtSxihFK59Z3y1n0M8wRumvLXEJYWwWJ0Wl9NqpOV9nctUi7fB1J25r6l78fq0AgjJ83Z5zOrdAaWNKopNZInV2RzLaPHdM+NIevb6RHpWVALOzkJcGNF2DnoQZugBnN1hY7k7J/BRIpnOWJLg7ITJ+0psQg879EBdPPdai8VP0SWriJHH4LoQjxazQ1YooqzMrkpUDhFNXUXqadMeQktftgo3iKtL6d1gtBY7iSCf+6BeX6LoPEM4sxxf6jD5AeKElcOb79xYgqBwEwSCoRcpHSMVwkyfS+k6wCNr8pJ9XnaDogqVAwfJ6arFe6vh/nesv+d3T2CyZ37U0nZ1yaxbFzCVLT+Oarl7o5F1LmjyV3L2kEVsjgKBlpADIKaX3KXu0CMQtsj/paojFXrb4+iJ7tBh9dbuM3TN1RTaoS16y6m4xQkg71EsBFykj5YcvIX/N6MvX6TDZ+ro9YxDkw6Xi6amHOac64FPWvr7gypDZ6RZX+qXPrGLO/gwdzxKwRuRmaICgqCQx+mqGLopV8nSZPtIHCGc/7uf7G32AcL5H/OzvtyYAQTMIXTpOZ793pxvI9MQzJwamzLsyxGcKH6xkPFamL1dypaXOSah3fphyQmUCtkq6Trz2tHetcwDWCCAsIaMOeFtEKyizdWbeZvH7a55BkvSLy9HSjvGZ6iu7mYdzlcTy35POqf48ZUcNVUovzHYaMaXsE8dRlcmuikHoXgDpWH2Sa7DETmjLVRacEuvXWcBdCKobCMh/y9maDnVImyyFKs8Jl6bwl0pq6brn6UR4OmQoUbrG46rXgXovtb5khrHiI1mNsdqjn4Ow2hFc/vt9gLB2Y9urK68pQFA6ZXEoUOqXDrvY7e0vVZ69srfteHVSmUsPXesUpdvEnVWel3RzFY2/RG5WykfR5mFFnu0KHjed8E2XR1ZwLM67EAnqyvj84jt7XeYoHVYxKqf0qVA2IFU23w3OZN+BxS+atkm8eoeCXxoQ6B4V+v6GqAqQ59Jzl/NE9rHQTuspz9plj4RE1fusRFantUfd9E4q76IDFzpM2Z13fiDZNvy0NrDTallVMQhHuYN2k0qEJQBBMrH1iy5T0rjcA6RfeCnBC5KMtJcpM0C1UBeVEorfh0I46YHoOPVdyF0IiZY8lhmfqW+daa10Z//qUIPOQ1j0DuJh+iGGM43pi+XzPkB4sUhi+edYE4AgSr/kPcX65bpVlUpptjShf09Jvl6515humSIVWvpdTZGgxtwBbYC1auru2aL1nSxxlKWOyxqPbm9Sna9vv7yvrUGACsTqhxB9nPiZatKkbIV8t7VgEOSTLgI9XTJK+tuknT/lQKa/u6IZnq6QSF1Pvp98CpHQmDLs4ndKlpJt0aBOOq+UqBjFVJJg8iwJ8NMsDD9ZafmqmrfqYgm7kJ6ji8akc49VMQimptBEyO1cCzNOFcdy5YXJ5Naxs0WoqrN4pRCIGFUOgPynWmcqLKLSUiJEMAWi4+8l1a9zKMWUO0swk36bdGMncXkRI6NyUaAjQSf9JMUVLcoXwUl9gPAiEMIZHmFNAAI9Ys0EppqoLaLbU8+1khLpFY1kktDdAQZKnSUhSxok6pRuh0jor8RT1fn3Gm10OXdnwZgu9dwdF+pU9kQCFHV/laTIa7yzpwyCzKVIgzj9nOciozN76p1Gf5KwUey18PU6ml+CBAUadPmhtkQJ6kq6RXSwoGLExdWU3UgSC85RVovtkTZImt6QQE5gKsXycPxWBRAYYkhTH8tN+DMP9tLflFNN0mgJwkuQm0rEUCiNE6ODclXIQc0WNo2yDBORivXLbo2dMFKCqFRXw25abBH+Sjz+xQvhjP0WVGlK+r4K5yQ5CJwdzAJe7dEPMax2BJf/fh8grN3Y9urKPQcIIiEx7Z3KJ10KBHRphbN8JelxyhzGTrN3qSf0M7BDqyQ2k/JCobBiRIlCUc+ntaeg9CWIEDkTwuLoroA6bLGYqZCMsApnpLoOiit35VItnVWvwhxypJJnlY6Y1HG9Bgi8ZtIAP6H1O5Umy7MgKxGT6rgrXt+SyefdMlKOqTa00iZ1OjcK1kCjO2VkOmZIy0VVxiX/VM7jKcmeeqalgIoa6+RtUuHt7jeUpfYMf3Tu15ln7Bwpf3/n++/EW89usyaGGOReDDLWs5LBTZ2TWkEd4JBuzSknpQJliTsvYYKibtJxfdES1IRlmshYWZStQZStIjK2A8twEBgevNBHzfPQjGuoBVUE8MFoA5GSmK6GrgzV/E/KSGu2QnRG1JN9heWIqdwI0Q1StVyTikUvYj5ApwVp2AcIZzmhzu/pfYBwfsf7XO7Wa4Cg7IGgxruTrxcBgpRnQV0lG8LpI634UmXPmlWUbqJGHuI+wsCk9Ku4d8Q4uImsk0HBLqFsDCBn2cgYOfhmiABNNNpt1IM6amEV7ciT4CA2EIIhVl2arXxF7akm9+nccJGjlE6sXkpHCfzSeUdBs2tnKnktXeEg9es7eskgEDGp9tBnNWdSYukAvu4yjE6nB5ECwlA2c8WU7IRcVHdc3ZmRDqljOijaZRStEopWDja/YFrw4gZaYYSm38BCOI82WojYl4GpaArEdWBUqnImyUVQ0yRpPijHU+fFLO3gKha9q7WA/KJ8385s5U+RsHd3vv8DeOt3vPWMQ5razbGTgyCj+cs3KVqUWLHEOknfdVE2sC7t6EIfMrajkz6YcwBYsYuRzCg2jKzHWOECTJS3YSAzAjdjAEULYeskTN9CbbqGVrCAo3PP4njjJKbr06iEdYRGiDCKEVgUEPuh80lSvbc1UkmoPl2hsHjBq5rGroHUgpOwUYc85DvIxESJrSkMmYfQZxDOOBdf0BP6AOEFHf4V3bznAEG0jF+6qU03Y6BzsaT5XZyg140V0rloi3Oc9D4NytMXhiiEaVgoxmVsGtmGieH1GCtegMHsemTNCJmhUVhWDa3KCQRNC5XaHOYrz+Nw/Rjma1OYadcXRIlnAAAgAElEQVTQilrwESHUxoChCeWcJFn5wqgr7z/VEj6FdBRrLJ2lUw7dWVd/sAhMyJwEzeD2lEFga2Hx5MszsItkpW1LAspOM7US7CadxE6Fq3Zb1UWMCKZpoRAXMDGwHuPlrVg/dCGG8xtRii1gXQwjMmG0q2hXQzRrVUxW9+GkN4UTM0cxH1bRCBoCxgVmjEi13ZYySoUEdKKqyl2T49kBNTxzqWTKhPFQMpKS7my4lWBAca8eAASOcbq8J8EAOoNU0VQieVAnqaQmjsj4VJszCTZLLESVfKO8bNHOIo2sYxuWYWNdfhg7x67GuuLFyObz8Nwa/MCHbwXwgwBm6ElhxD6QI8OQQSFjoRQVYHgZtOpNVBZO4NDMPhxqHcV8MIsglXMrJpOoZ9ZggSJiFYReQN2qodN7UwhMMHgaPMmXlstDCjrp0Z5MaimosF/FsCIj8EKd1AcIL9TIr/y+vQcIuj/9qc/QyYtSKlz39k+UsAT+Qlto45vsrigVm2YKpLMgmQfmRclvWchZWVw8dCEuGL0JhdwwzIKNujEPP/bhBQHCsAHLsJAJDfhmC1Y2g1wui3Jow/aLiOsBqo0Kjs08hwMLz+KEdxI+AmHpokgQzSr0QH0lDSxzs4SzlA5bJLZXb8qkKH2RNKkeV+7Ol+jsRF9yQ7tYZHslxodVDO9697tXLthlzhSUP0Ukxj7dsVHp3UX2SDb1051sk0349LspWxOHMQxLA4AOe62Nr3xNZa9iC0W3gPXlCVw69lLk3QFYRRMt/i/20LZiGI0GYsOHG7iAGyJ2yAK5KFpZFFGENx+i1pjFiZlDeK52EJPNI/BiX9qRmPknutKN9kjCVWFNEgCm7KTOkxE2SPe5kMyEID06vqmGgUIi2h7JwIOSkQgxnFMVw4cF96XjPaeGCjpC4q5S0u+XIy9fSMe3VDORpD2phmqGTAgyreR8omciqYyRxS0bX4Kd625Cft0ATnjHMFs9gUazgTAMUJ+rouIvoO7VEcdtOJaFQphFvjiMTHYAxeE8nNhAPrCRLw1i3BnB5PQJPHroizjYeh4toyaSkwXVQzqGbFJswIqJ6GRQQkejFteayn1WEsCUFAV3x+yU4JKsSUnniCUa9RmEVWuLNb5AHyCs8QD34PK9BgjSR0mXKqaYU6nUtCVSgVDpGMhkL80SKp2XhA1kk2Lt/Ahtquj+yLRgRabIm9pR3I6rJ16C9ZsvRN1uSE+zMY/YD9BoNFBpL6DRqqLht5C1DOTgIm+XkSsNI1vOw8kZyDYdFMwMhksj8Bs+nj6yB08uPIZaPAeSprLKWvYWFPUOgs0ME19cghZNLKh3VXkZQpcrPlyYy4SqVjZANYSRWp95EKwGkd5pbxmEpWWk4gApGfFBJPzqUPLaA+3kpalosBoDaT6FAyt2QVR/KCNY2FTYiJs3vBKb129DNRdjqnYQ89UZtNtteJUG6q06Kq0KvKgFh2wPXOTsAnK5URSGinAyNvIekDGzWDc4hrAe4MDJvXhkajcq4TRCMxKEc6TGNuLzh6x60A6nfHfhfGrqShnnhFhIEiCkjBK3V9k6AQsSINuR0TkmKd6t0JrKvjQs9XipoJneLjM9adQmjmL+xTEsyxKoRoPPdOzEsKS1NSJLIlIzxobSOL567E2YG2zjRP0g2nN1zDZbqIUV5IomfA4kWQkjgOu4cAbyMK0QcQuInTKipo3QayKKQ+SqAXKGieK6AgYGhnDR0Ktx5OgzuO/5T+BYbS/iAIitNqLQAAUi8yJ0KEDFIgUCVyVEPEXtUCm2gI6JwakgUrFFwbh0KiY64ZJQTuDIENurrvboJymudgSX/34fIKzd2Pbqyr0GCCLmnDTh0cZBJAPIR5Y1j3Kn2kV5RnQyZLxaXEMlC+pyZ51rJf42Iehp+AZiM8SIO4CXrr8NxeFNmIpPwp+fwdzJOqZdD47bhOmaYL4SjQcZ2lzegZ11hf6L4CCI8ojrIcK4CXchQr4dwx3IY2h8DDvK16I528Tjh+7D/VOfg2kQDFCB8XwVizape1VTHWlTVS6DzNYPLYZ3Y8SBCqMm/Q3Mzi7JdLCU1ZEUOD1aEugSIPSSQVgsI+UPq5wR6cgpxlegGNXwWuSF8TOpk3X/3k7GgQZ3Mq4gcAHHSVVuFjI53Dr2Emxdfw2eb+9Hq1pBfXoB01EDRsaDlbXEeApfkOCN8ik7QDOAaRUQBwWEXgtBHCKqtTDkGcjkMyiPDmDr6I1wmhk8uv8e3D/7OcS+J9BLhACEBmBGgxkgDjUnzTkk30DmghiI7FjKSKaeyPCOYK8cKQfF2Ev0p+yYsHNkykVChKhiOIccBMUgyBHrbF+sF4xe6RokJH0ERIcgXX4gJ0yYAhUqMUfPMLIGNKiuYWBrcRuuH7sZ1oiFg0f3otKoYM7yYORd5HN5ZDIZRN4UAr+OmfkGsk4eTiEDJx8jt66IjJODHY/CjIbht1uoTE3Cr9VgRUA552BoYBzr3A2wIgu7nr4PeytPwTeaCKJQ9kST3JLiCrXHIF9FvJLKUBULQn2s2ZLkF2RdlGchFYvSLxS5QOH9EEOvjMRaXacPENZqZHt33V4DBDonkr5WRkZ4MsqcqFh2J36raF3xewkMhO4QJ0glLDa2E4paMahCL9DwOLARYcgt48rRK7B1fCem6pOYmT2B42YVvgPkCyWUcnlEQR1RewazlSbQjmAUCyiVLFgFG4XhMiyUYVLftW00m7OYPjEJ1wtQsG2UB4ewdfACFJ1R7HrkC3hyYTea4YLIxxLqKyJI0Ult0tdURRTK4PNz6dDIXQH1+6nxUVsNa3ZEDFeqs6wwTopB6F2IQQVoEj0sQw7C4e+eWlKZS7wimJFOHF7hPKGLRemo5skNQiiy2LbgWQbtMq4cvhbb1l+AmcYkZmYmMW82sWCFKJUKyGWyMOMWovY8FoI2UPERZbIoDNpwBlzkygVYGIAbjYK8T2VmErXZGQEE8paDgdIAxjMbsH5sC/Y+vhv3HvsCmkZFyIhjTrMpDm1PE4ZH8dsEBvSthbOqQJz4W/XDMHWzplRraSVS+ZsITIZ4/2qSFJM8j674jY7YyMFXL6JaO6bfKxQetSaf1DaX/KdlwIhsIcCyncflQ5dge/kSzLYncaR+GLNGG5nSMBw3ROAtCDTUWGijFRLVAgVbxtCsoIm2EcB2bCA/gFw5ByObQxZZAQSIDrwoC7/lw5irYjiTx8aN21BqD2P3wQexd24v6v50EhJJ19OqFiAJdSXUgRoQUnSdZhRaiKpBiBgT7XnI0ZCNTySwYMLkao8+g7DaEewzCGs3gmt/5V4DBIa4kxwx7d8szjDsvJRa2tLm6DylTimaaBKkYuAqA0GBDwsZWJgoj+OVG1+Jhh/g+eoenAyrCNw8cgNZ+O0FmG0fXrMJr2UgiE2UESLrZnDCm8OEZWPWDlHOl2HlczDyGWTcDNB0kHVNtCITLS9CtNDAYGhheGIQF49ej+NHjuHeg5/ElDeLKKSnymdMZ7WrHIUkKU7qMFLe0ptW76myMpO37srD0KXgjKcTHzHE0FOAkCoNE2OrSzXT+03qh9OmSVWnpX4tGzkJVlyZL80cwIIdxRjPj+PW8Vth2S4O1fZisj2DMF9GvpiH355GHLYReAGa9VDIyISH4WwRC14Fg4hRtyLY+TzcUhHIZJFxbJheFqbLMbfhtU3E1SZyrRjjGwexsXAJpo/P4rETu3G49hzCqKUc1sV1MlpK6ZLciGBN2RQN1PQuVWKMNHATBkz1XBC2Wsro/Xfeibe+9TvOuGhPqWIQsji1kmUxXEvR6x2BpVG4fELRFUyjaVI9JoVjomQWcc3oldg2fgEOzx7G0dpR1NwAQ+UheM2KSOqwXAtxJoOcPYBCeQJuZCPIxgjaFWydb+FEs4ZJBGjHEcxWiNDyhGDBEEYWGB4aQskvws+W0ZhbgFFtYtPYBmzJb8ORo0fw2cMfR9sKRFhCLAjxyLKsRYIANcJJAW6HGdC1pMnk05SXDvZIeCA9DdVdrA8QzjgXX9AT+gzCCzr8K7p5rwGCcFiUdl0qKVsaPk1hpwKlCbWtHlvri1QMXKQrmzbs2MLlo1fg6o2XY7Y6g4PzRzAfV+GWs7BNA/PVKTgG0M7YyJp55HPDyDqDsDKMTbRgzlaxddbDF50GQjKdTR9h1ISRZaJ2BlEmRLaQw2hxGLY1gPm5FqL5CkaKOWwfvxRONcYDh+/H/upeBEzXNiLpfYsQsNRRAiSpUIEMpag8LakUE0dKY6dObob+WCcRMqAOvOMX34l3vfvXVyTT052UJCkKg6R6LiTJeykjpe1RJ59chT3k1TVDJBrZCd5Y9oogc0w224otXJDZgqu23gDTiLB/di+mgyqcQh6uZWKucgyOYaCdteE4ORTyoyIfxIxt1EsNlObq2DbXwh6/hTk3QtQKEQR1ZIo2gsBG7AKZvIshdxD5whiq9Qb8qSqKeQeXbbgCQSXAwwfux8Hmc/DitggJiZTFhIlO2SPB7ksAoYGAlFe6dDaV0Km6dyeFg2ywFQPvOzeAcLdkx3Tpj+6mmUq6kT/KFsjiIcW/9c6GEl0YonZVLx79IjL3oGBl8fL1N4lFcKI2i8n2CUQ5C3begh/VgEobY7kB1AsFxNm86IFgFJmikwUzUD2jimKtBs8AvFwRVpiBV1lAvT4DgxQaYwvMAm7WGbHD4Og4TGcQzfkWjEYNF4/sxOhIGUcffxhPV57CUXhJGEE8sn4vxuYiGQfSry+uz4mqt3zVL5lUNSjKRyVwygLYPoOwak1xHi7QBwjnYZBXeYueAoQHH2JygCqfkzlFkh3QQEBl9OuKrjQ+SLZhkUYqiXHr8i9B/xpwYOHykUtw0cadaDYjPH1sD6KCDbtoITLraNWaGA/z8IZG4GeZ4JYXoMLK5GFZDErU0Yo8TOybxfFtA7DMgmAJqOtYFSUeyfYRNhuI4jbKpRKypY1oNdrwTs6h7Ni4esO1CJozeGj/F/CcPyNKIUOVdM1qLHGNZH8Drbs5EEIBSrakY4mEXk/IY+VMyT4OqmSvxyEGxt9lyEC11ktMi/59p0OuOENR8zKJVMEDLRf5svK3ItRgwEaMHZmtuGL95UBpGI8e2AU/G8MqOogtH61qDaNOBkZ+AM1cARknCyuTgc2/m3n4mTkgaGNkeh4zbgbhwBDCRhv1hSkEbR+CpTJDhK0W4qCFXDGL8uAEmk0H7dlZlGMHF41vR9408Ni++/Bk4zgChoTI5EiDpLYGkPaow56kKw3TYEnbb/mewk4zjCZArLRHqwMISWxHNTZSG3AsSrwRD9/JQtTC0M1GRGKIDuDL6JyM+cQhbhq5DldsvxoHTjyDZ04eRn79CKwcMNOYhukbmHDGkZ0owTNzsKICzNCBVbLgNHOIwxCt7ALMVgN+sYk4KqNQG0Hk+vAND3HLhxc1EUZthPUamsdn0MzPY3BoHYrWOlQrTdgLVWzetAU7112No499DP9deZrtlRCZMhwg91FXcbqk5bSKP6rJl2Qpqy5sIowgMmEVjEvIFJ2D0A8xrNI2rPnX+wBhzYd41TfoKUDY9ZBgG3WbZflwyqtJhRkW768iF3YnGVF7p/rV5GcWbKGINzvjuHnHy1BpV/DMwf2Ixi3kiiXUWlPwAh+loIzxiWHMFUooBHkYUVYYa8fKwAwt+JkamkYDzsHj8C8agFtfByd2EToeQr8tQqhts46o6cFbmEGjNYPCYAml7Cj8loHG3BxGbBcXXXQF4kOH8bljD2ISnuzOqPYLUIkGCTCSWEChIeVoy0RGXbmhP1ckqc7VoJOk9OU739HDEIPFyjftbKZcapVokOQbaBGosIgOBYkME1WNLzeTku9mChlF2F7YiJdueQV8ZwFPHjqGaWMGpXXDaIYVNLw6hsJhjG8axLybRyYqwopyMFwTdmzDXsihNTyHOPBg1WZQd2Nk7E2wIweR4yPwKCcfbdtD3GiiPTWPajCF7JCNQXczosDC7IlJjGeLuGjnFSgcOorPHN+FQ35dddBMMQeC5FEdjlN7CIkwNikhPUg6lN0VBtNdPAXFI0IMZ1nm+Pa3vR0fvvsuhblUIgjpiMR9XmwAdZmPrv9LzhMTTM8s/laW+Tgw8IbNd6A0fgEOPb8fR8OjGJwoox1VcXxhBnmUMDg8ARSzcFwXUWTDgYtMMIiQ2agB6aAIoeshtiuYqj8PNzuAwWAT7HYOpmnDsytohicF+rWcDPy6j4W559H0ZjBYHEA5N4T2AlCZPoqrLr0ZhYERTO66B/e3n0czbutUJaUrOmWLmoaUGbFpxJ0iShK0JpecVCWSzqEA+1UMq7YPa3qBPkBY0+HtycV7ChAefEjUw0tGXXchVAZfedhsbiZ7uGgKPpVHlAoziOY1ZKxFYYMsnd5e2oobt98Grxbi8emHETAMsBWYOj4LrxVioDgGZ2AQTt4VDd9CO4NiUIIR5ESFlWFF4k89M4v2kcOojQQYcrch2xqGHbkI3RYa5iyi5hyQLSH2QzQqM1iYPYRcxsTYyGbEoYGFE3UMOS4u3X4tcPAA/m3y86gaftIPUuspma2Y2qVRbTqUJHAqvSey9xO7oB0nFZrtcZIidbqqJ1WsrQZwur4/SRyRTI5KQNTykuFy5a0pI8pzosiCbUTYmBnDDRe+HEFk4Jmjj6BVMLFl4xAOz0+iVfcxZI/CGR2CkbfgIIfIsJCLizCCPDsewQgixNkIsdNEyzuGufoCBoqbkW8PwEYRcGPUzOPwWnOwHVY3xGg3FzA9vQ9uxsJIYRyunUNzuopsaGL7pddiYqaJDz3zEUwTyKVbcumcgk5KrZKDZklS5Z069q0ZHpUnmPQYjs65iuHupEJCzJdQb2OpjKL2rBVNQfjARSFbUqaQpd6NSpQHicIN3FK4Eldd93o8dXgXnj88ieKOddgwZmPvvr1oRC6Gyhcgvy4HIzBFy2R2UmTYITe3DlZYgIcGXETwLR9xYR5TC4cQZGyU8qPI1MvI1wfhlzws4DiCZhNm3oZthahVW6hNHkczmMHwyDC2jl+KwweOwZls4OLrL8YEduDze+7CnvYhOcHEOyrDTqCjcxBI6YmKHgWUZKROll8qdK0pHcG2iDFh2U8kwJ3fT1LsiZFYq4v0AcJajWzvrttTgLDrIVGJINlCGXfX+QbJro4pZ0ezhsLhESFURcOrCL2oiDKEX4oxZxAv3XQ73NIwHt7/GNwNAyhtcDF3fA+OzfpYN7IV2fIgMnYWkdFC2MoLFpUeql0ZZE9EWGYgmim1yifhHzyB+aEqisMb4LSKyC4MwHFzqA0eEyyB0NU5Q3ir1aMnUG9NYjBfwMjYeuSicZx8di82b9+Ai7fciF2fvxsPN/Yn7eU1DS8daxmjl2MhWw5rYkWU2GkvVVPfinRJSj25c6Eqc/zVHjVKkjLSJWXaxuiyU50wquhztQeBfA1TNcTTVLxsiU85WkaMje44XrnjdWiaIQ49ewCzQzHWXzQENI5jz5EpDBU2IT84CoeJ8NkQcc2GkTGRsQvIVEYQhDFsoy269AYDdQTNo5hZmIM7NoJsVEZxYRCmW0SldAwtb0GU19vZWGwPUD8yi4Xa88hks9i2aSvihovJA8ewfdMwLrvotZj57Cfwr+0HBJst7RGTRnXZfWee6i3CF1UziPC2TAGQqTEKVDHfgpAjksWULHP89rNNUrzrLp2DoFs68gadjZu0QRRxjFQXK8keyKAPa3dl00C5b7hjmLhh4BJcsOUaHJo5iZO1Y1h/7bWot47g2KGDyBdHkMmPwylkYfshrLCI0LQQuW1E2QDF2giyrUGwG3kQt1EbmIZjtFBtzsCAjNU5kY1ccx0sM49Wbg4NfwZW1gbLH8yyAW+6jcbMFBaakygMZ1EankDreAXR3AJu2HYDGm0f9x24F3NRVRh79kCwLHoFMs5nMiNW5xkIb0H3iZDrRxdKaVUoBUeAFWoqoV/F0Ds7sSZX6gOENRnWnl601wDBtFXvfa1UI7Z51z1QpM8j2AGJ/FXiG1kFyVnLkKpsKKR+wnCmjDdtfz2mjBAHJg/C3bwB7voAxx99Bm3bweDQBtj5IVhWCNt3AaOIkPsq5H2YsYNSbRx26CAKfCwMziGy5hHPVlDLt5GzBmHFJjJeEVl/DGHJQxXHEYZtwDFhmjGCugdvtoGF2mGxf8O69ethRS6iyTo25ku4ZOAG3PPkJ/BEvF/qKG2AZBMbYhKYqn+Agk2qlVSnjwvHJEmgU+MidCL/mMA739G7JEXB8iREgGqJLMSm8sMUsyGBjAz1yuR4HQ6S7I/Y3ZcVDFGEscwQbp24EdHgIA4e24+a7WLLddswdfgpzCzUUM5tRmZgEJwetu8gNkqITV/YJPb4KdTHYLczQDtEdWQBvjUDu1XHQq0JtzQgmixl23lkvDGgHKDqTMJvtcQzmZkYYStC+0QF8/VJNOMqBkeHMZgfxvzBQ9gQDuGSa2/Hrs//J54ID4nnVjsLdcoaRWmm6vHA+ar3i1AOPP/SDQwTp5VMGHsrKOAn+iCcLUD48F13KQZB02qnxuRk4msMdlLk3wQEUhQqNic87E6sbrM7glt3XAu7GeLho1MwLhrD+PZBHH3uKfg1G8XyZrj5MpzIhW8sII5sWA4bgzBSEKIQjsBtlhD6gJ+dR6M4hyKzRYMaYiMHK7YRWyaK3jAyjWHUSrNoZmZg+hk4jAXl2whZr9qOUZ2bRK1xHIWcg4nNY5jdM4Vys4zto+PYt3AUjy08KzbY0B1Tk35WSfquwkGplNGko5VKXEramyoGQQCnsJ+D0FNLsQYX6wOENRjUHl+y1wBBJJAlWe7SwCR5VCIbr2MIdTa/7Lonw4+yL750uMkjMinx5qGd2HnxdhzYP4PDVoixqzfj5OGnUJ9vYGzicphWGY7lIkYLQRiIUKgZ2ogzAczIQcEbhdnKoG3X0BqcFp0Vc9PTmBq0kTXywjPOhAUU5sfh2xEqo8cQBwGctgvDBoLYQ2REaM3No1k/Bs9oYmxsBOFMA+FRE9duvxx5r4UPPPcp+GY7obFF8rUuh9M5VJoV1tUc1GWavu7UBqiCLdm+nmPRW4DQleexKN+rk3QoAUJqXxwdWtDPrsTpRCauLV+EK7ZchoMnjmAy62L8im2YmX8WUwenMVLeBrc0AsfMIgJtR4DIdcBOFqy1Z+5Btj0Cq8WckTbmJ47D9j1kGguYafqwS2VhG7NRDoXqBkYiUBudEn0QLNqjuI3Q8mGFBlrVJmZnD8AwWxgaHUC84MM/4uPSzVuQD3P42JEHsBBPK4CqGZ5OYY0uJhBbB+hukJ2EjU6XST1mYoxkZd37zgUg3HXXXUnXpqSFskYlEmou2qQhXR0o5o5oFqQ8auYdxMBLR2/EpZdfjl0PP4rWxCDGLp3A0ScfQ9A0MDCxEY41CDcuwgzyaBpzsPJNRKYjKhaI5oveejjtEsLQR+DU0SxUAKuFSnNWxOKE4DIOckRstWH4+RAtd0YkjoTIIh9n0I7riLiXQ+ijMn8MfnMekdnG1vUDeH5PHZtKWVwwdDE+e/ABHGscVWpNJrQkia9UBmG6CYpmJZOCk8XUjspBEAEI5iD092Losbno7eX6AKG347kWV+s1QDBFT37JfC7aBlko0i59l7Sr7Tg/moKXFRAxdtjDePVFX4ND7nE8e3gKQ1dtQ9CewsyBaZTGxmCVRpBvl+HEBdGeN3YrQN4RnWANN4Ibuih442DnJB81NAtVRGwaV59HxWwiaxVh2Dac2BEAwYoyWFg3hcivweD+DMggpKdLw2YyibGBhZlDCKI2to8WMDsVw6jEuOKCcTy4dxIHmk+LfWhUtlRSjSZsTTIGCXGiQqqSK9H0dYIXxIBpgNC7JEXNIHTMkEqgTE8wDQZSOxrqajsNAYVXHccYNkt4w/ZXol7y8fAzz2Hshh3IuB72796L8vA48mMb4AYluGEefhQhys4hypiI2xJ8ZJFD1huDQQYhbqI2OIfYaMPn7o3zDdiFAuDYcAwHeX8EVi0vbJZvzYlNmtwoCwQhgkwTURCj2ppHfYEsUAMbN+ZgNkdw9Nl9uOWiKzA1Y+DeE58WXRZF9QKNu2jQ1WH1O3m1MqyQhIWUlHSoQYpT7ckRAe973zl0UkyHGNKFlYkDra2lmhUqgVXlhSqJKfLBjAyMGjm8YstNcAsDuOfwHuy49RpU5o6geqSJ/OgE7HwGNtgbIQd3YRhRJoZfmoUZuLBiB7ANQecYflaULrbtJny3jjBfQX3qqOiLkHNLMBwXmXYOGX8YiLLwLG6kMQPf8TBQn0BoNOE5LYSGj2YwB6MZoTZ/BE7eg4t18GYXcP3ma/HEkT14eoadFoOkR7vewllurZqenJ2EGYleVdvSpBWWRHyCoIyAoJ+DsBY2o2fX7AOEng3lml2opwDhwYdSbKkECbKcvtOYN21cdK62VIEqKU/9TOeIDdq+dv0N2LxxJz7z7GNojJkY2zqM2f1TyBbHgUEbVmjDjV2YHpMRswhKdRhGCKtdhOEGcKIBuI0ywM2Z0IBv1eEP1WG0Z1GdnYbNTopWBlbootgagxmX0KZuc6uIzIYwbAYT4dwWwoi9YRpo1hcQVBtw8vPIZUZw+MnncOHoFmwsbMfH9/8XaiqsKt9Vxa31T4opldn/msLn3zIHQDeB01hCbzzUqyoGERLQZY5p46ftUALi9JTTeQYK9CUJ9iQ3ZCD4puxmXHfJrXh8+gCm3Rjl8TzmjhxHPrcRxmAetuUIlsBqlWAHRfgDFURxC1ZUholQJB/m6kMwQkNUJ1BOwUAFYTCLVmUeRiELy2UFno1sXIbTGBGyaGarCK0KXL8Ex7fRytVFmKRpLKDdaACtOoJwEqMbtmP/I09h5/AFGB2YwKee+BQqRkX55qp2U5V9dlJB1MYbnWHQhFdSZi8+EvNbgrhVMQhJKU8yKVReftKkQuowe40AACAASURBVHVHFDeVhlK2r1ToIGINsIlL3I24acPleK4yi+OFGO56YPq5aWzafBXATmCM9ZtkChxkKkOwzZIw6izxsSNLhA4ckdXLnACgaTXhO01E+Rrik1NolSJY2TyIne0wh1xzDLFvwLfb8OIpRFkDxdYoIgIDp47IaAv6jbtvVSpTqJ94DtnBDMwZE5sKQyg6G/CZw59ALaorNK1AgEpilnSiyr/QrUhTiTwyqqAaLaltNoS6YXfLPkBYM8PRiwv3AUIvRnFtr9FLgPDgg7uFkev0NEnM3GKHR3VKkHlWIi1bbvQm+ywrR8LAYJTDm6/8JrSCGXzi4B4MXDgKv9GAa48iPzou2Hez3YLBGnqvgGx7GEEmRBxacLkBApO5rTzgswFSjLbVRNtsISo1ERpziE/W4I/nRXybzZeyjQlYQVaETwkQYDRhsw1zYKFh1WDYTHUkGwt47SoWZp5DbNVhVLMwphv4ytu/Ep97cjcen9qVMMM0WPRQZY8b5fRIqqCTgqH1nVL92kZLT1XuSPiOX+gdg2BauleF9IAVilOhDs1fKPuk7JEOeYt/6nJIGKLZ3jeP3Ybs+nHsOrIfxrYcFuam4caDGBrbJHb9NeMQpm3DbheQ80YQONwjwYIbcXsARngyMH0bphGLhHkvriMstxBxF85WXbANtpkVOQKZ1ggcrySSTttmDb5dgxuX4IQ2GkYdYcZHFLQRW7Hoojh7ZC/a1hyGzc1onZzEtduvwRNHj+KZymPCZonofiT36JAbDEphiP8qGalkmBRAUFsm6BbiqrLunADC3XffrQa+Yxh1G83OTleqhbDeSLKrJza7JdIglpDFy8oXYaK0FQ/MPgN71MTkfAWD67ZhcGwLjMCGHZhwRB5BFobnQk4GLhYDhggxMEGEC4bUfoy27SMgSMg2EQYLiDJtWP4Id9mEHRbgtAswIxNN0mv2NNilgpReIMqFphCy3agZw8+2ER4/gZYRolmdQtzwMRYM4Jptd+Dfnv4QFoJpteOnCjKoBSN6ratQge590J0xmlCVIgNIPrdof90HCGtrPVZ59T5AWOUAnoev9xIg7Hpwt6jAkt5NSt8lXpiqTlJBd2F0hCbWWeI0pjQasinSTnsQb7zlW7Bn39PY3XwKxYE8Wu0sRtZfBDdTgs08wtCFYWVht2lA2HKezXpMCR54cctVVw9FfkBg+YjsOlq5BuJWE0YmCyfMwAkysPw83LaDthnDM+cRWS24YUmwCzVnAWF+Hu16ADsXI2wuiN0Hq81pZFDA3PFjeOMtr8OxEw18fN9HAZOdYFQ4lUl+IpTaCSPobHmdsCkS3dIlDklll0xk7BmDYNpCRgl7IS1+R15i50kVDtLPm4AEvTcB7RFlZGE8tPDmC78aRzMeHjrxuGzOZxQwPLEVjl2CFVjCeJvIwQqzYBsl3RETYZjISLY8jhDZITzTg5Fpouk2EEd1AC5cPwcztuA2B0W3RTanapkVRFYDblQUMqxbFYTZabRYzZiNETfm4LWaaFQXYBoeoikfN4xdhwXDwBcPfwq1uCp3axTsiaoy0SV2AhyovkXJLp4S4SU9O3SfHjVgZ52kyD4IzEFIUkZVMqJGYZJdV5tOp3Z0JFJiFqWkL1Qby8jARncIr992B+qhjy8e24V6XMfotquRGxuBwS3LPQqNiR8mLKIyj5yDhVxYgGlkVHslR3ZlJOVGOoc0DdqI3Bg+t28OPJiWC8cvwjFzcJpZNq0SODY0AwEo8l5O9CBo5+poOrOIY+JE2VOBOQn1k4dx8vh+DHoFvOaKV+DBfY/jscZj8HXIQCsPUSKTLnOUXRV1DEjnjcYs9VEVHhK8EiAQIS6hhM5Sqfb3YjjLATuL0/sA4SwG6wU6tdcAQXi8XKRqvcrMd+1/qnI/tcDlpsmksLmxD6uTZIYjM+YHTAcvHb0eOy6+Ert234+no/0oFtZjdNtOOLksjBZ7KTODnd1gTJjcjyZwRSKbbeRhcvMa2xYVCjQ+7DXg5asI2GrZDtG2W4iiFsKYLZhyoiY/08rD9iwZuuRmkXYbVkhnivrYQ3P4JFqttnK6qIcCNGtVHHlmN2K/jldsfQXWFQfw0T2fwlQ4IzZpIivCtAzZZV7qKzEaTFNIN0tSG1yJ0RJNFFWFA7vYhr0FCFIkOrSbyhcRCYm66X0n3Cv4BuGTxaJqQQC6mHDMxE3Wdtx24+uw++hDeOzEk7CLAxjddglcduT1uDuiBcOyRE8dK3DBrS3zUR6uU0TU1lsFOCpnI0KQraEZ12BnDXi2hyiqi349VpyDI4BgHpmWI5pSUv/7NpMTATNwEJk+GoPT8Dwm25uCIedzB14NR/Y+hLDRwo1DV+PCia345L7PYn/zCGBGskJQ2R3d9VPveySbX6o5rXZ+BDcltBQrJNhvCSZWBxCUAkiXMgo6Q9ygk6t4apcxWwyGGwFXlnfgpRe8DPsnD+LxqUfRypjYesnNsLJlwQ4g8mHbIWLTFIOXY81n7MAIy8h5gwCRnMHaU1sg2sgI0MgfE20rSZvFdoDc/ByqJcbsbJiOJZA1S4Aszwa7WTOPgQKLyTwYHgIzEDt2GSHDFwFamQpa3izmD+5HdeYkbrzpDpSOVPGxI59Fw2yqfbrV5EvVk6oemKmMXlVvqnY7S6CAQNr9VssvkD05q9v2AcJZDdcLcnKvAQJp4oQwSNoNq91d6XVSmSb5VinPVVhOGh96mBEuy43jpZtegXq+hUceeRTTxQUURrZidMNlsqsAS7DMEI4dIQpdZITPw8128sg3RxCbWVg0LI6jNp+O0MqdRGA1hIFui26CcwgCsgxZYcSsOI98KwfbzyPyZWteM7IQRgFChi4sUuOeuC53Cmy7dfhmHfWnnsGJhUO4dN2luGjLFXjiyc/hkcZeQVlH9K54R/3uCbOiQFMqRz0ZOR1yEA5Q7xkEuTdEF3Mg+h2opD2ZHS9zwNKzUvyDMmKOW4SNVgkvH7oNpW0TePiZh/Bc+yjKY5sxPHExbNNFFPswoxB2JkI7MkEux6W1CFmuOAI7yIoNlxh+iM1IsD5Nexbt7LwATz593VZVsN1tOw/LoYyyyDZzsFtZQSbzOSkjgs3Q9hDEASKnLWQUhTGCbBNNuwL/2Ekcf+4xTExsx+2XvAy7nrgXu6cfQ2AS9qjyznQMSG1Lvsgea2JFjUmHhZEyOieAwE6KmkrTtf1Es6KiQSAPvqPak1tRPRJF6g5cpOUMrHOGccf4bRhevwm7n78XJ8IarIyDoe0Xiz2rXS+LXGsAhs2s21DWtDqeymGIkGkPIoOyRK4c6ECi1IWB44jdptjMwowb2Dob4cBYhDhwEbmuSETJNYeRqQ0JlER6B4zF+T5aTgWB3RQdsGKfXcoAM+ejZdUxN7kf088fxKXrd+KW7bfini/8Bx4J9iZIUaYeqN7sOg4m/YcO0aYW0+KYZn8vhhfEkpzDTfsA4RwG7Tx/pZcAQecgJABB7f5HD4weJOPGsrpBbfnIfAV6P8J7U3Qu692NDF41disu2Xojnjz0EB6dfgTZ9SPIFkdQHNkglH+2Xhb7KFB3ktlky9zYbCM2QlGhVQiHENGFFDaN1oYh0WmE+TpiGi7LB2oVkVztD7kIrazYmI79CsoLWxCJvAXuQ0MwwjK6tkh+s6wIscd3iYFMiMBtoD5zHEf278agOYobd9yA0Avwmef+F/MBk/HkBkaibC4xvNIQU9GJZlCqXbH+WYYiFLsqrOBaMAiKyohoHtV2Syzrp47XmfIKHehqOtGfQgXkmaP2qtK1uOLSV+Jw/UE8fHA/UM4iOzyM3OCYaOefqxThGAXEjiWcS8pGuPuGD9NwUWxMiIcQISHGPQKgmZuHV5gWzYdgtjFQbcCIfMwVXMROFkbGgePZyFYHYdPppRll/kqbGz9V4MVVhE4IqynnlZFlGL0Fz5jHwfvvw2BhBC+79HbMnJjEvc/fgxpqwg51OiMoZkWAIz6bbPAnLZPCVTo0lmzfvQqAcBdzEATLJTcv0dZPZvJrfKaCHLrBtTaU4nP2Njdx48iNuH7z1ah6NTx57Cm0hw3UwxZGNu0QlQlmk12omHBTkH0MmKQDBumIqg1k/SHYKMk2zVZIZkUIoVo6icipgTm+lh1g0HMwZTLbNyvRvGUiWxtE1ivLZxGUERD6AQLLQ2Azc9RHTCrODNHOtkRf88rkPiwcOYzN2ISbb3s95vc8jn8+8jFRzSD6losRT4cIVGKmztBJKY10+bTInejv5niezci53a4PEM5t3M7nt3oLENhJUem0VF+TRLXq+nkVcuB70hixcY1q3SP006bMJtxx8Vcgm83i4UcfwGRmFqUNowjgojw2DniB6AprmDlkg6ICHmpHPiuG2y4iF4+ITZqEmaVrGkZoZObg5WqwUYcZRwjsEEyhil2GAmzYjkOOFAPTm2WultjIR2SxITK53X0FsesjbssOsKEbIHA9tOcmcXTfw3CNLK6euA6bNmzCZ/Z8DPvmD4qwQihCKanIqfZAhRFKOUmpLAQdcRbhVe7m+M7eNEoiUEu25E5ZPF1Z1tlts/MwQhUnCfPSzS1ZQ3jjBa/D+KZNeOKxh3EgPIjM6ADCTAbFoXUw/Fj0KLCMLOyoIOyRaJNPgGVGwo4U25uEjIQh50uSQchU4eVnEMctGHGAAssXLQMVm3bMAjLMs3NQqA/CDsuQ1HeMmOfZbP1XR2S3WKAnQFjo+ggybQTmAo7dvwtFt4hLNlyKIaeE+w58Hs81DsvdhxMB6UFRcknvw5CyV+lUThEDYpnj2e7mKHIQFiUpyt2uVB+xDp2u+l2L0N0iUkfGHjjx3nLBm7Fu8zj2Pv0gjtfnEW/OotJqozy2Ddk4hyD0ELsS4VEwbuQg9lxEtqxqyAQjcKMCBCQ2Q9EhDGGAZraBkEaebUgduZBa9gLiOAPHKwq0T0SeiWQWKSMZRP1mIDcnIXoPmQBicHOnpqDdYjTgzRzF3MxRZGoWrr7hduywJ/Dee96LBaMiJorcelNnw8j2nnIHSwWcEtSWquQQC6sPEM6nAVnNvfoAYTWjd36+23OA0Ek50DVgKTigEuBkirjyoBmg1IlfgGtlcd3w9bhpxy1YmDuCB/feD2t0EBgkIBhCcXACIP3vMNnQFHsu2LEDk935qJfsEE4wgBxYNuewVlKwozw8uy7KHEO3IRvsuB78yEPEPRp8bhxkI2A/hMaojF+r7Zvp0wisEEVyUyfQ4LTQdpoiwXv4+FEcmz6GqgGMu+O4/qobsOfp+/HFo7vhGdzIKa3qNG8vd3bUR9pV0vmJ0mZpgNCbKoYOQNDlfSnooq2eTAxLqulETlwqv982bVxUuAKvv+4NaDSPYd/DT+PkuIfsyAC8OINyYRwgiHJDhGz6x4T3mEmglBEZ6LbobJkPN0qHVWz+FImSR49OZmYOMShf5p4xubSFwGRH4IL4Xhw4yPlF2EZGbqrEqwTCdIE0BNkelt/7Ee1RA5HYiGsW3t59WAhb2JjdgOu2X4f9h5/EZ48/gFbcFI2YOiWmMgwmwCsvqsLcHRZhCZsUxecGED58991qbws5BURRz6JFlN4QQ7fAVEyD8qYH89vxQzd8M5oIseeh+zBdrsMeyyFq5uEMjiPnD0k6hLkekQlLtC42YbRdwJI7jTlxEU6UA0xZ0WBa7EsQMz1RUG6CUrAMNOwFeNkZwdsU6+tgshJClJhY4k/oxzBtZn6wfWqIwPDhOTUEZkNsG21YbSBooj07LQBC6IW4esP1uOSq2/GZ/7kTj1efRijoQBlekbmYUiCyrKcT9dLzNa0qRWOLfg7C+bEeq7xLHyCscgDPw9d7DRAEbZ7a6li8gqpU0HVi0iPt0LXaGJHpLDrrcMeFX4H1Q4OYff4YHqo+guGtW1CPGsjbm5HNroMbZITXzw6xol+CYSLyZeIcLQWbGzlxSbYBJivL+LYVIaBDE/kyL4AJhE4LDWcWke0j65eQqZURWwQcedmCV7iVcv8cbvYU22204xbabg2+2RA9EejlZqZPojZXwdHGMWy2t+Cmy27D9NwxfPrZT2M+mEMoOvGpXhAqY17sw6BI606cW5VC0lnS4VfV57+XVQxyV2Cdh6DKThKhSDYn2ScjYRk6NinvjOBlG2/DFTuvwuSeJ/H4yUeBTWWUCgPw7QG4NmWUg5kJEJFxFkmNbEnJChUq/DYMk0Z+SJTd09bQYTUJBsi4RD6YCAiHFaottLLzoqFfJhhCfr6EyGHyKcPfrICTO0uKDaN8diPmbpyUUR2+wTJ8OqwBwtoM2lNTmK6cxIS1Addf8UrRyvlDj34YtbAqZJTssZBsuS3bhiedfbtZIM2SibGMziEH4e2sYri7U/yaCCWV+pHkg+iWlqn90Nn/Gi4uX/9avOWW2/H0s7tx4OA+nBypIlccQdYZg+2MwGXFQaBKfFjVK+J6RG5cPXozDReWmRWtlsW8tA3uZCKoGcZ+GBoS9b3ZBVQLJ8QzD1TWw/RlK1KOktgJLJCDQdKM6KqdqaHBckejBZatiOzS0EPUXEA0N4PZ+RnsNC7B6DU7YR06gY/s/yTqqEqAIBCTLO+RCqODo2X2rxwnsZgSUKUZBJkhvNrjxV7FcPPNN+PlL3853vOe96z2Vc/79/sA4bwP+VnfsJcA4aEHd3ey43U1UjoDW8V1F690ZY6EvbSwKb8DX3XNG9GqnkDl6BQetfehvGUYZnMIbm4UmXAQTjsDi3vL0NEheyDi6DIBUvwxLZjcQtgRUX2R/LjvLZ/Duie2o/j4mEicY7jUd1uo50/Cd+ooNAfh1oZlfgRpePGsNBD8v6S/2fOllp9F256VraFVV/92bR6WwUz5/RgzRnD52DUYKBfxv8/8Dw7WD6k+MamETBG2kE5Rxy5rZiHlPYrzGKCQOQjv7sFmTdxnZ1H2oWYLaJu0pywYbb1po+S7dfIpDfKGgcvx+otfDdusY37vCdzbuh/rLtwCNxqEUxyHEw7AYVt+sf0zv2+JMLmK18g8MwKxMC9AgKSSDBgZGvgQkRcJhprfDdw2GvkptDILyHlDyFdGpHxEXocMweuKA3ZRDC0PrewCPGdW2iP2TGR/g1YFUauK5uQk/KaBHVuvwXXbduLv7/lHHG8eQchAkJiDncZJkvlZnICgT5Fev6p+IIiIY9x51iGGt79Nljku6rTAq6quWdL8QfQCUA8iywX5a9I6EbLuOnzV1jfhsovHsOfz92N/cAQncwtYv247cqUtcIM8IwXIGYMwI0W5EHVyngeObERhEUlbMGxHIOw4cmG5Ppj6G1sGglYMgyWSkYWgUEG1PIM4amNgfgyxx+Qdi9UpMG1LlgExU5SIrx0hcCJ42SmReEJKzzPqCOI5REYV1skajp04jk3BBkxcuBkXl7fgX3f/J/Z5e9XSkouBi1h7FIIcSLJJ5UKSmShqIoksS1m7KhJ/Vnm82AHCa17zGnz0Ix/B297+drz3ve9d5due36/3AcL5He9zuVtPAcJDD6UeoROlTbrDatY6qbtX54gsM3qRNq4YfQlee8UtmD48iUOTz2BqfYSKN43NE7fAMHIyrSouwI0LolRbGh/upmfBCHkNViXwdxnhANEBYZzbL8TY9cv/gJ3vfzkGnmRL5QICuybK4lhPX2iVkZkfldtVO0x8ZK6+BcOPRM0991Sgom0VGvDNeaErWdHgm1V4bGcfhjjy4LPI21lsH9iJyy68CF/ccy8enX8CPnWuSIRLswY6L80UiXDKFEhdpyrbZJUbS8h7CRBU4mYnFTwpQ5UG7/+x9x5gdlXnvfdv11PmTJ/RzGjUC2ogIYzoCIzpBgMGdxscO45zb5LretNwnC/OTXCcgu3rm8R27BBfJ76mG2LTjWiiCEnIQkK9a0bT2+m7fc+71t5nhuLYEMUgzOHBRtLRzJm99l7vf73vvyQ9XP1Z4+HPZCIlFivbzuLiky6gd9sWisE4jxS20daRpbl+IYbRIBIRZX+cMpuIfJtQCPDKTEhG0zaWZeJHAbad1gdVqQGWKE7k0OrjeZo+Z3kWvhVQbBig7I5SVxIXxWbswCIUYKEAoqWdLq0Iqxqo2uFlC1RFfu+ZqlvtM66MsQKvjLF9hMPlfuZOW8zqky9h7RP3srb/EQLpoNdImDGhNL6bVcmpqXNenFCqC5OIArTM8brrrvuFj6ERRVHU09PDZz7zWW675VZ1qp5KyNNxxvq8PGnoKHg1nsaptdEIpbt1FdcddxY9xUEObz3MzvR2si2d1LXMxMmkcKpVwqgO268nHUoymavQmDw04h1uSMSzzG0ck1C0qPF8IxKmZ9pUHAWzGhHlDeWN7ddNMNo8DIUy9dUuzLJ0JlL4RohTF2EURG+qEbWmA/iUxarZySuv88CsqBaeLFw04bH/wNPUFw1OaTiZE889lUce+wn3Hn6UyJaJk3ydKVdBAaVkLhfPK5P2nBoCxvyNeDbx6+CDcMEFF3DffffxhS98QXURPPX0HBuvtwDCG3+djh5AOJWN6zcSRP4U8vXUSHsBAXJaiZVbsSmcOk0qHwSxeG/h7AWXsrS1hYFdA6wfXMt4U0hrw2waOmdhBCVFuDarraSDRuwoF5P8ZEPXPAMFEmzZA1NqtGCKyZwcwjIGj9/wbVg8yFnv+jzRuIXnlMm39itr32ylCWe0Hst08GX/dENswyaqWoShtFgjwiBQ0vCSKxa/kkVTUHwEkdnJJt/37FYmzIMsrJvLmW87n8N7d3LXjrspGXI6DbW3TdLZV9kMQlyPf0tJCWIEFXdElOmU6nbAH//x9fz5n/+v//QNZUn6lBW3reMDlqpH6oNoI6ukJiV9bk2k1KYClpXjHXPO4Yylq9i1dhcHjO0czORxgnpaZ82HoKrygsyoiXRV6lF9rWNhGMIclM62ieVacvwVHrwaEam1cgzCTKg6PGHJJMyL9N6j0DRCNRwlFdVjFVOk/CZFXBQeiiUAQdBcECm+g1nxFE+k4kzg2WV8ZBRUUeBEbpGRQ4cZGd7J8emFHLd8OVbfBN/fcSd5P68l+Ip4osGRXBfFllOYIAkZS66d5tHpw7yW3r96maMAhFtvjQUrMUhU7AcNGBTjN75plNQjNq/QbQzxnDI5afbFXLFwJft2HeDQkR42mlvonLWIhoZ5ui9R9UiJhCisw44dpdR3sk3VrlEtOKVcsDUJUc3VArUoQVakOtJRsDAmTJiwKKVHGW8fwhktkjLbscTBSqJNy2XsaWnckSyh7auLKbOiSpSnmholdALliWD7Vdwgh2dFeGaFvdseJzc+znL37Rx3wYkcfH4Td2y/i6pRVZKaSYyqOwWaqBgj7SkjmZqBh+IpyPzx18MoSToIAhDkddlll/HjH//4P71J/Kq+wK8TQJjR3cnERIGx8Ylf1eU9Kt/n6AGEU1i/fuNknkDy6ZLQn7gLmIiTkowGrfbWbexp6W4uXfJeplkRh/bu4tHx5witiDnLV+OEDViBMNtleprG9HM41ClymgqIUgdj2T9kf7OI0iLECxQXS2hXUrUeu+E79J66jbN/93dpe2q26pKOtQ4SGHnS1QxuuU1Z7kZ+SGhVyWQaoWjgS0fWDqlUqpTSQ/ipMpHIJKNIOTmK5r8aVSkdOcjB/U8z35nP8hPPxc4XuPn5OxgJBlQYrwIIyUv2Pmmrq3oUO8ROlXVrt6SaBPRoAQRbOelOkiPlemk+2BRyeDJbT7wQVDtfl626dAcXL7yQ5V3z2btxJ0+VH6fcYNHQtJTGuk4FEISihhoDicNhVknj1RqJ54CS9MsY3CHIiMGV9olQYv6UrFsFL2PjjBuE41D1qxRbhvDCEVJyDxh1uJV6osDHsD1cOwdlk0AAA2U836NkDxC4FdV9EI6IG6URxl1oBQwNHYSeXSxwjqOxbRpzG7q4Y8tP2DmxRUVs6TVK6k887ld1akpNShwm43mD/r/XxEH4bM1JMWnYqMus9L+T7Sa5Z/QvY+QSt38MUlyz6GpOP/ltPHX3Txk282yx99PUMou25uNISfu/klGGRmqEECROC0LckO8j9AExRhIkpv0UpC2nHiPRd6Zswnof5FA6ZhJNmBTrBihlR7GLeVx7tiKbVEcrlIMRGpa04hyoJ0rJYgR4QYGKNUzgjmKYWcKKg2u4IH/HGVfxqoe3b2BB2sMf6eCE81ZjDgxz27rb6fOOqNad8lZQt4fMcTSCrnVz1DOiRzCq26YQt0Z5v04jhrcAwn/nBz+486gUxP+qL/LlP/2Uihr+q6/exERe7GGPjdfRBgiKda9YcC9/KVl3rB1PTmSTp1STmdn5fOjkq5jI59m8eQMH6oew63K0z1yGU2ok5ad0sZG9zFcDAELpKMhYQCya5fu6gg8MkHh74VcFhnq/G0U88lff4fDpLzDrpys4+XPXKWJ1vqmfKMorAJIJpoFnUBodI2or01Q/HWPEFj42kVGmGA7jpUbUCVwMmayyHL6yyv/fc8Yp5Qcp7NzA9Ew3bTOWMcdt4oHn17A5vx5fugiJE1/cAdUAISYwvoLYXsviJVsi4o+vP0ocBFPGzLGtswICkyoGdeCMCaaJBXbNyC/mEHTVLeTKk64gG1U4+MI+Hhx+hFxLCzMWnobrxfwQRC5qqoAmwSLK50e+uKyTGPW5WhIfuCmMQMhvluI4yCg8ylR529hONuQWEIzq1OBS/SCRP4JltJCmGbPsEnhFvFyRnNWOUUypLr0EQJXDcarpfiLpjEd1ygnT8uspR2WCVImh0QNMmzhCe9TCRDXFuStP4+nNz/GTQ3fI0teyKXRGhR4tTPH+qv254kDUlB1yYH2NAOG2W2+ZlLnUfA8m5Yw1/WlsKpLgYNXOMZv4jeXXsGzlSh699V76zMMczE2Qa2ilsXk2VuCQLuaw7awaVgjalo9tRwKrDXyxmzQEQIhXSJrIsKXDpwCBhUOUNqHRI5TZzYiNWTSV25gnKXGgUQAAIABJREFUTlbFKm56HnbZYqJ/gHy1j66Vc7EPtxNKJ8L0CUV7SpHQLGEYwncQUopJyR7VLF+nzODuF6gXBnF/iVXHn8OcadO445E72Fx4QemD9UlCtx0VUFL/k+C1SUmonsdpXbK8X4DDrwNJMRkxPPDAA/ze7/0eO3bsODYqD/Dr1EH46y/9Hr/7m+/jhLM/yK7dB46ZNTraAEHNHafsc7pDkJyS44n2lGKoirp63m0WNJ3Ab6y6hL7BMX666SHyHT6Z5lbqm7qU1a4rWQl+TnEKhKBoyNxZbQnS0ZSTsOQyGFh2Sgzm1X4h3QBHDi22w+M3fJPeU7dw9TtuIBrNEJoSdd9PaJRwzTaV3BiVQwYO7sLstuhoW0g0nFYWvvJzedU8QUpSCGW7TUPZoJrSOTa+UaAkCZG7dtBMM9PSrZy6ZDnbt+7mlt5bRbSXaBYmNY8JYEqIgvEOqMFTXKAs6YLA9X90dABCrYMwdY2SjXdKVoQugPFerNZIltXmuKYVXHnyZVRGh9i2bSNP+9vJNtYzc94KzFCye1ycMKdyMQQAScGxVC0LCBQYcTFsE1vAgDK6ijA8E1uO77bLOwbW8Ftb7+D9F/wl/lgdIXnK2UECbwQ7PZ10pZ6gHFAcH6TaUqA1Oxdrop7IqappjBeUCK28qhMSNyDjh4pZomyME7oe+Xwv1kg/mWpIdqyVyy6/kD0/280/bv2OGqPH5ow6RyO+lfXBVFfmGiiIXSfV76rS9FoBwi23xkZJ8SrUGDtJRoaujGpBYra+QtWRQTYzm99ZdY1KR3zhwc1sDTeRb7SVEUVL63Q1wzGqFpY8GPKjWbIsNpYy9ogIZZZmibllipRVj2EKiVEMqiIcwyIU0mKjh1+JYNTCKAd4mWHK1iBm1SKbnotkZQwe3sto+QCzzzqRur4O7VkgREVhmkqhFiKNymkw8M1xqlYvXhBgZCzGt+1j3DtMOFHkvFmXctyqxTxx3108OvwsRZlJSadDKRkSxJZEQOtrkNiCJrbUCuFIF+HXBCAkI4bPfOYzfPWrXz1mCo980F8fgBDwN1/6XX73Nz/ACWd9iJ17Dh4z6/RfBhCSTm2tUfryFq3e+PRsV5z1TuhazdUrTqVnVy+P7H2CQnOFXLaVpu5OLDNDEKSwhGCtRqbSqDaxtD5ak8xs2QdtXLOe/plHmHNwCZWghB0K98rhsS9/m55Tt3LV27+MUUgpCVwp3ada7nWO+Cu4UPDYveMZ3Dn1zJx5AtZwRsnA1Zi5qhKgVG6EJ+Rs4SG4w1SNovpRytU8wzt2YFQqzDFn8I4LLiC/4zA3bv22kpOr4qMG/PFeF4f9SFtbjYH1xq/a8Kraya+lLf9fBRCmrpHq7Giwpufvmjyo3hJ/TsfOsbLtdM5deCKDRwbYcGAtffWS3ZOie+Y83FSD8iiQeqO8Mg3hLLhYoT64ynQ7tGRwLhHdaeyUOCGaRJVQTb+lPv3Zxi+zaPQIH3r731Ap2URhXhkn+d446cxMrGId1WKewf7dBNNCOluWkCo2YqoDqy7UkSg/DJ/QMtSYu+oOUCwPYOXqKI0NM7hvB6E/zrJgOed85DKi53Zz49PfZcQs6M8jaEBqUg24xQfYGjdB1knzNTQg1vXopn++iWuvfZUkRR3WNFn89ALEsDohPsSWm2pp4qIoN0xX04l8aNWVzAyGeXD9dtbmnyTd3EFrxzyy9Y2k/UBck6lGGQJXTu8ubpDWJiCGhSkpjeJXLiOFTBOWtN08G6PoY4nLmBBWGkJV6I1hCTupUk6NUiodItPQimt0UhmqcKRnC3mvj7nnvY3cwdkYAvekdyS6UyH3SrF2RI6Sx630UqqIftXAcRzKfpnDBx5nfHiQy7qvYf6p8+hd+ww/7l1LXzgWPwCxsehUbfCUa6GvS3zZ4iGmdA/ebCqGxsZGvvSlL/F3f/d37N+/X206bwEE+PC1b7wRQ2hIu1ti4+CKS8/mxr/4NNM72t8CCAnJIIZI+jARE7sS0UJ8QtZaez1/dshy5sKrOHf+YlVkHxjawJA1yszpK3CaGzC9AFfGBYaD5wiFPYUbpbB9V51MTVM8WcrKkc+y61nzzW9T19fFGX/yQSzfVADkiS9/m97TBCB8BbvgUnVGKZmDqjhnMu0SBECxf5S9PU9RN7edWXNOxB6oI5L9zo+Ug6IQGoLIo5ot4BtHoFqlooiREY6dYnB4D0cObGJpsJiz33UJ9fsHueGZbzNulBTnSnH9FECI+VY1PyI9bKklQGqDGL0/xmFNR0PmqDoI6pAVj9rVwSxemCTJsWb4m1grSwkLqHM7OKv7PM7pnM6h3kHuPvQQtNeRMTtomdWN6xu4QgohRdkScruLa2awK7JeAupCFa5k4hEZabpdl6u2P853FrxTcUmEQPk3677MrHw/Hz7n76iWTHxzAj87QmiWcYwOjLE6xoZ76R/citudpavtBDLlJgzHV8oHVSvE78/wqUiEgNlLUKlQEn8gR8iQBn092xno3coy93hOes/FLOst8/cPf48t3iF1sNZfY3KNkrTLZElqZaqWXCqg5DWqGG69TWSOekF0gyBGaQkxRdsnqpv0RZajkcHijnP4wOpLGD68g80btrE+2kpb1xzapi/EDB2F8kTVGhiOegCc0FVhTIopakirLUM1LGAYPm4qhZUWG+Y0YUHUDRZWmIJGn6gYEuYdfKOIn+rH7z9CY9dC/God4/3D9B/ZTjkYZ975byN3ZBaWGE8oM6YIQ5ymooiiW8TLDBBVDGzf1nHMJipWdceGuynnS7xzxpUsOHMe4c/2cPuhJ9hZ2K+4B+riCIsnvnH1QsRe5PqYEf8qmUNI1+LNBxCEIHXnnXfyB3/wB7zwwgvqJ09GDJ/73OdUB6Gmyz0Gzqhv1g6C3I27NtxJT98gZ132cT557Xv56l98mo//7p9z848eJJC56jHyOuodBHmGp8zVddmbjDlW/ixTSUaaXETaaOGKEz/IspnT2PHsRtYVNzMWFelefjrpME2kwIGctC1FUrSClNrr9MnbxBJVlBghRVUs12b/27ex92OPctF1v48hqYFRirU3fJe6rjQrr30/ftHCz/XhV/tx/AypzHTKZRjav5P+wm7qZ3Qwa8FKnMGccp4Vrxj1rbyQqlGmkhklNCtQcYiqItnTRLmh0nb2bHmCJcYy3v6uD9DWf4CvP3UrveFhrcePa4E6lMeta+0qE5/WBS4lJ1hVsLV072j5IEwChMSUKfYRqNWjpKuTrFyiYAhoynRxwXHvYl69S//+Ie7vf4yqU2XOCWfhGFm1hwv9Q3o7kSluvmLXrw32ZJRkWjqmWVI0xeOm26jy1ce/Qd5u5AfzLqKt6PPuA/9OJijxvnP/Br9oU0kPY0S9OG4OM5xG4Jn0bt/C0MRBGmY1Mr1jOWmvRSszxOJH0JQf4dtVytlR9b0Mz1JcBFHN+U7A+Oh+Du5ez1xnNquuuZTl4xnueuoe7j/yuFbWqesfA7SYGziprqtR6WOXPz36TtIcX73MUVQMcVtJE0CSAIjEiSJp5Ai6kaKn0ZyJw/L283j3Oz/E6CMPsebws+yrH2J69wpydW3qdnLF7hiR82j0JUoFISeq1o6MHVIWdtGFOhlDCLlHzAwszHKobmx5T9QQYIwZROMmVWsQP5wgqCuRYhqmV8fYocMc6d1C1Syx9JLTcHsXEIl9qLIAtTAqcuE9FRvtWSWV0CXNBd8q40naYzbPgcefoD/s5equi5m+ci65YYPbttzNlpFtOkEsYfjWTCriU4fqHOh2lw52kptXM3BVO2kqK/g1bshvNB+ETCbDxo0bOf300xkZGXmrg8Abr4Ow4bHvsXT+nJfdcVd95A+556EnEybNa7wjf7V/7egChA2xQmtKyy8+F2s9mDy4sYpLH5dr4CFjzeTdJ36Qed3dbFpzG+v97aQ6pzOtdZFqcYs7o+1b+PL/lqP2jVDinGU0qwCCHHgkZ0DUWg6OYbPmH7/OFb/5BcbFk6XQzNovf5NgWR/nXPyHeF4Z3x3GN0vYtotjtcGgz84D6yjnB6ifO425i07DGKpTUm5FVhMnwHJAJVPAl/ya0FaRgyrV1ikox8VCeS97N61jUcN8Trv4auZVAm5+4kGeHHpE73Pq5445VrE5kVZ2J/LPROmg64Gc3KVWHVWAIMU0+TZJzoLqKOiURsUUiVUWMTtc/X5bZiaXLv0wXQQMHtnHPfm1FD2bBStPxQ0cTBmVhAahADepN6atpIeOWiNLJWsankhIJVDQYHFpiBsf/sbLbviSneKjp3xFkX49SXeUkKxUlrTZgjlqsXPXWiaK/TTObqK7axVu0CxG2hjiulS1iDyfwC0RpAvaabFqqw5DKSoqdUNpvJf9O55jGhlOOec8Tu06ncfW3MXNe+/Cl+5GfIZXtUdJc2MOxpQogFrtUaOYGCB899X6IHz6M9x2222TPtZyU6uCp3245cQYM0H0Y6TacXFHIUqzsuNcrrnoXWx94DGeGniEiS6HzmknkLLEhzrCksxzeSAkWlPiz2WBJRTLCrDldB+GONlGAtvGdlPYtqBuCXZKqxGLIDvxI7cGHKgYhKkxguogQUaYpS1EfpqBg/sYGdxN6JRYcM5qcgNd+CmJ5pQHxkSclb3Qo+pIjGqggIjwDzxb5F6G+vqHXniOvvIWLs6cwsnT58Gcudz+yA/ZOLZFoX6duR1fl6TbErtEKG5F0kFQIEH/KyO6N9uIwbZt7rjjDiVnlBvwhBNOoLu7W8kc3+IgvDFUDHNnT+eeH97InFldL9vYrrz2D7j3QQEIx87r6AIEbZSk0wHjk6hKK5QIJM1k13Vp0lJYQwSTBnMR71l5CdNbm3lszd28YOyjdd5i6uu7VZdUnnlTRgXicSBMePH4V0FPEmZbxfZN5c4XZbIYVprionEe/ct/BWuYrsdPZOkPL2TTb99OxnA59aOfJLIqeKlBqhRwogym0US5v8DBI89RKQ1RN6+LuQtPxRxNx+RoA/LCzTeoUK4l5QahiWePaD5WCgrFXg7tfI4Op553dy6g8ezVPP7IOu7c/kMCU1rrib18QgCUw4+a+sed5oQZpw9G4vAnW97RAgj6IDl58NLfNl4j5c+T2N0nFr+T4/BpqZlctux9NFYr9BzZzRNsoeqnmbFgBSnpEKhusqhGUhiOuFGaWKapnCQVWdGXmmcQ1TWoBOKf3H3DZC7RlEfmmotvwBrPEUQSLjBKZI4TSNyz2UJYidi5+VF8P0/d3Ea6208mHTaopEhlllXUHW1fkj1VmrFJGJmUrTFCv6oUf56ZZ9+BdYT9w3ywbgUdV1zAnkc38S97fkQpGlOYSNVp1e3X61FT3Nc+Z2zNHFM3pPNwkwCEV8VBiMOadKKpnjGoVKzENjAG1VoqHLeWYkwtfuJntZzJpRdfxYYHfspjo0/gzGxT8kbRl9qGp7wIUr7coLLo8ggKO1T4BgGpouhB09g5cZOqw3UlT1tIPobqHhiBhGYEGFUDc9BWEskwNYjlDVGO6gjdOqKqSd/hPYwOHwDXY+5Zp1A/1q00xdJGle6B8Az9QKKly4QqmCPEsyqEdoWKOa4SH4e27WAk2sVJ/hJOmLeM9hmzuOPRO9k4ukl5J9RCMpJZ5RQpqkbWNT/qmMgTKgXDmw0gnHnmmfzDP/yDAgby6u/v51vf+pYySXoLILwxAMKtN/0Fl1149ssQwKYtu/jkZ/+K5zZvP3bQAXA0AcKzz65XKoKaC5yu/roGJRtu7PUSNw9iC3eDZubyoRWXkOts5aE1d3LI7qdtzvHk6jq11DkqKQKiENxCR7qf2uPfdEJcSxIWTcK0DSkHw8xx7y3fACGdxS+xn5ez8fkf/kNadnUpvkJY10PFFyVEHbZVR+HIBAcHNuGVxmmc10H3gpNwJtJagi0AZFybOvky7HZ9wkgycCsqfKhMkaozRrkwxtCebbTgcN7c2cw+5SLWP7qFW1+4mbI4MEqHV/YzZbUck7CFvTeFu1FTbKkQI3HpO3oAQYKWJK9Po5Ia2SD+70lfmnijjely2gp5utvFNYvfgxF47O7ZztbsIcpFi+75J2EbIaa46cqJXRQMKclKMJRroiWBgUJkD8V7xwI3TcWCNbd87RWflavP+TJuuU51rUNzADOQA2gDjkjp/ZAdWx7H94o0zGmme9oK3LAeX7KFqjaWOP6rU7+v1HZq4iAqFLtMOSipSOgo9Ojv3Uz+cD8XNq7krKvOYPMDO/m/e++jwGDNclnXl8SgIIlC0J4HmtCZKHZ0cKGQFF8dQIiNkqSQxwTVWvb2VC/nqWI+zeiVAYPDhS2rOf3U09n45FbW5B+i5bh5NObmYouEJ6hiGmntvqU6buKUKO03gygtSVoRTmiSEtmhlcVtqMcx0kqdYEqQkwo3iTDGLMy8uFqJX/MA5IeputOV3jgMHUYHDzM0uIvIrTLjlJPITXRjmFq0Y5QNKOuLo3Qq8hBKOpoZEaQqlK1hKtYEIxteoNQ+zvS+aZw4ewULZ7Zwx7o1rBvbpNC4HqkIpyHW59aUHvFJYypqUwzbN18HYeXKlXzta1/j7LNfXnzkx38LILw+AKGhPseF7ziNW+98kHPPOpkb//JTLFkw+2Ub2+f+5H/zje/cUjOwPVZQwtEECGKUpJ1/Jn96dQqLI52lexk3EHTnOsb98vvddPDBZVfhN6Z5YP0DDJmDtB+3nGxmmuocBH4Jw06r+HkxgVNjR2meyjerFztlg4xv4EUuBy/Zw/bfuk/P8l/yOv/Df0Drjk4q7ihmZpSSl8IVMx8zRXXUo2dwM4X8AM1zOumauwJ7QtQOQsg2oKDJaOL1IN4LEhMcyL8pT+1z5cwApf4hCvsP4FoWi+cu4oxlK9m3fi//su3H5I3+yUujvo4uOrXzj9YVTvnE8V4XRUdX5ijEx1r0Q/IBJMQvVojFLoJ6rXQnQ/6ZkZrOtcddRt7z2XpkBwdah8gPwYyFJyoKgNhCY2UluhFb2SlHmK6put1eOkQm3OlQQFWaS3rX8emnn37Z+vx0xpl8a857sKoGBSdPFB7BilKEdoOWLYYWe3auo1weIje7hY6240lHOeXuKwdWKjHpXnUtRIzg6djnTEA1GlcZDdXqBGOjBxg6eIhT0qfy9qtXcWDNVn6w/wlGwh518NaXIpY6JuOx+HroCPGpzor6EPvPr7qDkDgpxjeqZuK/Ul5hjd4bu0FLYXe4pH01Z599Pk89uZEHhv+d9vmLaGiej1MV+YfM5cRwwiSy9WjBcMRHXMiJIYb4XYrE0XYw3AxOOqtaJmIyYfoSjynF3cIqmhjFCC+qEqSEZFiGUBzFXEXs8StFRob34FlF2pYsxB0X/oNkMRiYkt8gfAblhhHi+yIvqVJyCgphB5LElSow9NTz2MdFuDtCzph3NgsWdPKTtffz5OBGylGR0I4wgySPYjJmVLfeEslNwvWMJTNvkg5Ca2srN9xwA0uXLkU6CD/v9RZAeH0AwqwZnay56x+476dPseqkZSxbPPdlbdFHntjIZ7/wNbZs33Os4ILa5zy6AEHCmuLTaQwGEpWjPovVNI+1/VVlxZgWi6MOrlx5DbTm+Pdn7qSvPEDn8SeTcdqwhXSmPF2E8yYdAmljG0QpLUczsxDVGQycspfhJT30n7ELP1t9xbVYdO8prPjiBylk+jHEMrlah+tlsAwhQjoUCocYGtlH/fR2Gjvn4Uw4mvAvJ+O8fLvYA0Y5E/tUKCgfBLFjrqaLFEZ6CXv6iOwKizoXcfoZ53BkzXPctP1+RqIjhMqvTxcX1VVRfsoaGLyUUqX5V7qYH60RgyYpJhI+PdqIYVuiu4+Hu7F3ReIBYFjMSnfxm0uuYMIPWXfwOQ43jlDMZ5i+YDFOIK38UPHapJttubKfg5xltSdBwHn9uzilr4cqNhfv3/oiA6JksT6z+nqOGNNUXcmnxgnCYZwgjYGkc6YVyX5kZA8ThR5SHQ005GaTQnyAJGHYxCoKUVWumw5qEsdFUTOoNfI8vExRAYRKsY/Du3ZwmnUKqz95Ab13P8MPdz9Bv7+fwJbxvLb9V/wQrfiMtQavVI8mnRRfdQdBVAza3zoh2k1tTegenB4x6DQtaT3J7CZrpLis62xOuujdbFjzCD/uvYvuhUuoa5qNk09rBq+APpHdmMLLEWQdqhZbgpztlhxmnY0tKgfTwvJcjLIMoALsqkNQMnGLJkFV/vWo2P2qLWeXOrHNNLbIJQkoFgdV7GZqZjupQloPGeXzSqBGVV9I35ZRgXYcG3d7lLmIdBJ8SUx7djvFLg9nf4W3L7+cpXPn8JNH7+Tx/qcpRmJsoRmoWg2qb1ftQh2PFxJL6uTYoZdeOYz9Z1+vB0lRa4zh/vvvJ5fLcdppp/3CH+MtgPCrBwhOVGXWzFZeePrflTHPz3t986Y7+NQf3/gL1/CN+IajCxDW1/awpEOq91Wlgld7YBI5UNPYxwDhbdYMzl91NZXOZu575P8ykB+hY8VK6lMdRKNiw2vrnUHcBx1T+faLa+Kzi9ZgzChjvbNIoaNEtTn/H17mtvEOzr3wjyjbw/jOCEZQR9prUKdUaY0HfoF8cQizOU2qqRmnoDMIpFLY4tgXhPhGVZ1YRWtfsAbxBGhIkmCqjD82SPFAHxWKLFuwkovOejf7H3iAH7zwML3Rfh11LwVM2UsnMs+YlaEsfeMmQg1oadfYLxylNEcBCLIvJ0TJmvfBlCKowgSVH0NsECQdZ8tgdqaL61a+jzE/YN2Ox+lvzlMqZ+mauQjXEzdDcb21xLxSU+MExKVN2v0ip/bu4Zwj+3jb4KH/cH0+fdbv05PuxsgblO1xfHcQq+LiBC3KA8M0MnjeIGUvT5QzSWVbsH1H2xEIWCzonCPJA1JdhSgg74g99gheFcKMB6VximNHOLh3N6c0nc65//1ahm/9CbfseIyD1T34MYlTN8MSd189jtHjBV3LFbSKg7UEHKmwplfFQZgyYkgAgiLWxCxWvTjJOCPUrZy4dVFHiktnns3bzrqIdet2cd+Bf2H+osXQPpvMRBOWJDUq9ClmSKYKrsC1oN7FysnqGJhZEzcl0hIZOhkYRQe7JJKTQMkkbRnReRbBuIlXLhJk+4jMCnZpDqlyRs2PhFjj+xWVtWDVO5iBKyYH2vyiIoBGkKNPINGqoYfveoylD2CFJUqGr4iT5fFxdm17jKagkcuPv5L5c2Zw35P383jfWvJokxFtkqhbN1MHC7Uwk7gnpmVCGm0fqxyEf/qnf+Kiiy5SBMQELPyi4vEWQPjVAoQHb/4Kc+fPU63Sjmlt/+Hy5AslPv+n/5ub/u3ff9EyvuH+/OgCBK1i0PbpsROferhjJZL6XXnFWQC1LoPJGc5szjrpMrzmdu596oeMB4M0nbiMOr8DqyQnfFuBDOXf4gaq+AQpmzU//D+qpU02Oer9x5f40k/9Hum188hnD2O6efAbyRam4cphSObWZplAwuvqwZI5umcrJ0BKEMnhyo5Dnq2IwKgwnu7Hz40TjVcIUiZGNWDo4C6Gj+zn7aedw5nLL+fww2u4eddjHPb3xPkzMSdNUc8mY6D1XjdFYaBGM1oy+4Wj7KRYs0HQHEXN/VZ7bwKEJ/9LH2NN5man8+HlVzASOGzY/TTFhhH667N05xZjlVxsw43NkRwlJ3StiKawxN8/+3/JVk3cUMjzkzkQr7RSA5lm/ts5X8QYMSimBghF5lipI1vowDZSwk/FD4S8GBBlwJYOuUQNS0e9Eqr1kvoqpEEBNZHlM+L0UueOMixjedvANk169m6hf+8e3t5+Lhf8j4+y/4c/4vZdT7C/sjuOAJiyRvoErz9ucuGSJGG1fjqI6zVxEJRRUuKelRhRJN2CeA6kSXhaYpKMIOqiFJd2rWblGZeydd927vrZv9Iwr4vWWQtI5duwgwy2LzwCIX1I3oL4kJvY9QaGa2BkTKgT8BB7k0toyYRc3YgwZeCWTSIxTSpYmEM2JclVcHswrApuqZtsIYfpiuGSzkEXgCBo0PYcZWohA0CjIssUEnjCQRDlY4BfF5DP9IInFsyyUaQJsmW233MPuUyOS094Nws6Orn3uXt54shaimFFHTbUgxDqTSWZzdUIinF/RxdT/Y4wODZJiqJUuP3227n88stfVbF4CyD8agHChjU3sfS4eb/0Gn3+T2/kG9++LeHv/9J/7/V+49EFCBu1l8nUV+JyFs9xX6lLKMS/U5xZnLv8UvxpXTz8zJ30mEdoPn4ejflOLKNJdTMlFMGQcap4+bsmD9z3Fd2xeBWvS37rM9RtmMV4roeQcSyzkUy+FTfKYMhG7wYqzj7KRKrrapa1jj+qSo6wWDqrBiyRFRLaVYq5QZXpEJV9zKykUhr09D3P8PYdnHPeuzl7xmoOP/4w/+/AGno98X2JrZDUVp+ICnXipO5nT5I69c+mMxyu/yNJc/zzV/GTvvJb1YhhqsxRqfTi7rUWi9RI4eqErLrakltoMSfTxQeWXEE5lWLDzo3stg9gLGimI1yEVUnh4GKKAZTlKBdDK20x3R/jpke+9ao+9/sv+CreeEQx209oj2NVM6QnWnGsjFoLrQapEmbkE0pnXFkBYlRDwsDXJMW4yS1ddQFxgT1CJMR6R7riET07NzJ0ZDerZ1zMxdddx+4f3c4dO9dwoLRPcxdUiuOL4Gz8NRMgOmXUIO8WgPCqOQgic7z1NoWqphLzdZjJSx6kRNEQ8xTcyOHiaWdx1slncTjl8W93f4PU3A7auxao1DGLrBhWKgKPLZKStIvpGoRZAyMnxRyiesllsFU0pulFOHkxURJkZasOROgJM9chGonwgjwVt19mBjhOFmM0S1bQu1wsI6jlb8v8KioLl9jE8GOJju/hi2mIgF0JSxEQYlUILI+yRG+mBtn+6H20pBu4/IQP0p1xuWfbfawd2EA5qhAYAcIyrnkdJJ7X6mbUdtCrAAAgAElEQVQVeFszxY7fo2dDx1oHQcCBRDZ/+tOfflUPzPDwMJ/61Kf4/ve//6r+3uv95mPZKGnDw99j6aKXex38vGv6+T/9agwQXl3Ber3X6KgChGeFgzC5r+mtLLaklX1HybonCV4K7scmccdF07ns+EtpnD2Dh56/nxeKe2g9bh4NpQ4suxXLcJRlshQI07UpzR/lyb//V6rpXz49MzPQzDmf+wSZHa3kM0dUhoxpZ1SEcKbcgitW9NJFkKmCrYtzGBjKZEf2Wd+TDoZB4FUJLV91NAxJJbSL+tduRMEaor9vM0N7dnLVOz/JMmcm+557ih8eeIj+oDc2XJ7aRNEgoXY6VdcsJmwr+31tlHT0RgzioJswFDUckX+UWdNLure1Kqvk99Cd6eTD8y/F6Wph0/bNbKxsx2jP0ZFdovIXbMURcLDExt+xSDkuV/c9xUe3PPBL3+Z9uTZ+59TricoRebef0BlX39sqp6mrTMdB1qhKJCRROZRKfoJwI+Xe8CS8SwqDSRhUNPHehkC8F6Qe2Z6qScW6CQ7vfobBg7u4ZNEHuOjqa9h8x03cuudReis9CtwkWRg1BV2sxKmV7Rg4xbPw16himAIQNDSsaX5iwJDESerrp+ZzcUiGGZmc33w6px9/Kt7KJfzbN/6EYmeKjvb5ZMxWXKtRtXSE1WmLnDEr0pJIAQPqIkyRIgrCkhtd5naegVW2lO+4LKDYMiMZDIct/GKJamqEwJCZQxXXaSAquzheA+lqmkiIkCmFo1XoiOQ/mEIS9OTGToI85CcQRm9A4MlXGaeSKmGYIYWwl/1bHmOa2cY1l3+Upp4St2y6i/Ujz+PFZBLdGIg3D03Z0eOXGpSaVOgqfHcMkhTFSvlv//Zv+fjHP/5LPzAidfziF7/IN7/5zV/677xR3ngsA4S//YtP89sfvUo5vv2i196DvXzuT77OT+5/4he99Q3350cTIDz77IYpLomJD8JLNPe1E3L8HzEHqz1s4QPHXU7HwgU8uWcdzw1uJNMxg6Z0BxZNOGYGK7KxDBcrZbHme/9IaebIq7ieEav+7CN0PHA8FaeH0PYwIpG/OZjSFfWyZKtNaj+NhOwtB50oUsVHpeR6cjrVLpCKP2BI+JAma1f8snLtE25EEI4weGQbE/sPcvVv/A+WVpp44cmnuGn33RSMsXib06m0Mflsis9L8uPo+bY+q+rT6VEDCFN8EPQ0Qe+wKg8iTs1Vv5tMOpIxUBTRmWrnvfMvpmnFUnZs3sKjvY9gZBvpbJ+HY7ci0nwZXTuWeO7YmFmDM0Z2cOWuJ1ksMcu/xOsPVv8+27w2pTLx02My19FdCUnP9LMqd8ER0JmRroFOUVSmh+KR4YUEao1i5CmwJ+XjeaGSZo5nxrTaLlWh7+B6+vbs5L3X/BanzTqfTXf8M/+672HGomE1YlDFR3nzJNzByYwgfcVerGR4bTJH8UG49bYXoWo9Y580HJtKUhR2rmhrVZM9glX1y7hoyWrMM8/jjhv/kAP1RWbNXEimXlQGjbiqg+DiuGksV0yPJLc8InQjgnQAabCzaYV6hTcgngfK/kHGGQK/RqDSXyCwhChYxggK2nfcrMeQPG9JiyzlcOw0ocx7xCVLCrMvuQ1CEhSmaBzmoQJTqkr2UzVKVOsG8a0iVjWgv+cw5bGDtEczueA9V5PddoQ7N9/Lc2Nb1WJoqU88MpjSSUkWoWZSEf+H6sgcgwBBng8xQTr33HNrj4oU0U984hM/99ERIqPwFY7F17EMEISU+JfX/zYtjfV8/IOXv6JkLlmTf7jpDj59/Y2vyMp+o6/b0QUI6/XmnKQCJiPbKcC/VhRrM2+5QhE5srx35vnMO/kUNu3fxYZ9j2M1NNLWOZOAHHZYh4uDJUXItdh+3WOEDWU1QpUGeHHuEIPL972IvzT12rdsa2fZVy4jtWcakVUUz2QMv0SUymIGDobv4FSzpKr1CCleir3hx6BA9k5fyIUSiKfZ/WEkRyXx3QsppI8QZiZUi9vPjzDQdxhryOeC9/43ZpTLbN6widt3/0g5zSamO9oYLlZpJVr7WlGWg3HCxNL9haMGEFQGz5TCp2ppkpcRA4Yp+Rm6t6HmELTbTVzedTbTV51N35Fe7n7uFrL1DbTPmYdhNqs8DakZjlhhGxZRnfy4ATOqo5x/YB3LBw9y3MjAz30knpl2HN+a914OpMWpVzoyZUyzoou+n9XdiZJ0tutBRuna0YhI/bmFIQ6KCe5StVSUdJ4aGVUz/RRTE9i+eP9UGO7bS9/BQ1z1G59jwWgXe9ffx/cP3EspGlfXQ3tVCBF1Uj+Q1KGasq52qJWP8Zp8EGKAUEMb8WwkkTomx2PVSNCfRCV5KYAQscCdyXtOeAfZky9mzfe/zvP+FhYuWEKxrRPLbyIt+eiGq4gaaopvS69F2JuGbnmlQjLtTarAC29ALmQUSfa2qb3Ne0ylJ/XcAqYM1kp5wqx8/yYs4SdEBk45Q8pogKzYMJmElSB+oMTAI3Y5lJmW6FsV6UdSu0pU7AmCVB4z9Nm/53m8oTyLO97GOddeTvDkJm5/5gGen3hBL0CiTlA//+T9M2mznNh2xNdPIcdjk4Pw0qdj9uzZ7Nu37y2A8B9U0tczrCmXy/Kl//lb/PdPXDPZF37JZ/1HAQhvqRh49tlnJ0m3tUAmfbFUImDChlOYYNKkRzbejOFwUcvJnHLuhew7MsKTP/sJDY0u9rzjKJIh5dVjB46yRZYtUg4jkUQhiyRNiNAzh9j+yccYOumVT6onfOtyZv5wGSWjhGVViHyfsFqEbKPqICib5gjqJqZhCMlbughyCPIUllByOdlrZRwqIEEIioEyefOoBKNEuSKBUaQyMcjB/btpLTVz6fs/Smc0wI/v+Rlreu9Thj0JCT1RrcmB65WaVFrpIJdJj1O/cP3RinuWGGYNymqTjan1KP6jmLxfU1rIh2gy6ziv7WROWHUpZSfk+w99jUWNHYwe14nhtZD2c2qk7Vjan0etkcydHQisiHnjPfz+5kdZNDb0ik/7V056H0/ljmdcRt2GhDpB4FSU/NSuCkAwVUcnV5qm1Hmie5U4b4l0Nn2LwC9jRUKU1O68Mk6QbA7pe1eMCYJMHswS+SO99B/aj1f0ef+f/AULn9/LMxu28YP9d6l4AHUJFAte1yONb+P6rP/0xesoB1ZFUvwXrr322l94JjCiKIp6enr4zEs7CFNdMRJgFj80eu40GRAhN0dTlOPaJe9k9tLjeWTPEFtf+H+0LZ5DqbUFt9KC62ew3Tj7gBKhXAyROlqCElGZ1/aMDsy6NIIdlOJAOggxadI86FApFSm7g4h9hZkfo1rvYNOuRggyiZDZT1a8rl1XozUJzQrE3MjH8VOq5ReKxDEwqKZLeJTwnXGN3sRtzPYo9b3Ars27ed/5n+OEk0/jyEO3c+eOn7JjdGesWtCIWU8rYoRQg2u1hk5MX9SoWySOb4YshrcAwi98nl73NMeW5kau/+xH+Z2PX/2KH/YtgACnnHIKykkxAfgvmsxoZZLmXk2pQIqsrcGChASfnFnA5WdeSZ/Zzv1Pf5/Gep9g2VyMSganmlNSRMd0VJqij7Z2l7y5UELuvZD9/+1Z9r33+Vdco6ZDXSz/0ruwt6XBrRL6BexiAb9JjJgkN0CbLrnDnWSyaZUVICNsP5DvVcKuWDi25DIEar8T86SKUaaaLhCKl4vjEUmoszdK767NdGcWcflln8Dcu45/XvM4O4vrlK18TU0YE9UTw6LJWXfCR4gLuMzYjyYHQdQgCZG0xjmIOwgJ4fNFQE7lLakDYCqyOaVhGReuuABz+Qp+cMtfEgQlrBNnkfU6sCp1KtFS+CLSXQkoaHGr6xMZjqKSLSyM8ZfP3cO00svlqH994nt5Jvc2RsyDGCmPKKjipaoYfgbXTyveQVRFq05SYsgkKjzwQx9xpDArESkzp7wjJP47tKWbXaHsjCpA6GfLRGZAfuAAPduepzWaxke+eBMzn7uH25/dxE/236VI9/rHj8cMcpiu0WpiJmGiqItBnG5kxFbL172auOdPf5bbJKzppY5ecRsuuTm0DEitgnYojEkhtmFz3YzLWHHiYraUDdY9dCd9syJa58zGjVpJS2ssJX4GAZGloW4kblNC5RHvA8sm29IEal4TIryGKDIxpXUiq37EpFIap2rKbCzEnhil2iKOS43q2kd+hFvJkfPbsNw0nl/FjwpUZDHwsUOJls4qLwa5qgIIxpzDasYjYEVpx3uO0Dd+kN4j+/n8b3+N5qiDnQ//iHsPPcqBib06h0FGLonEZ9KRIg62ShTTk0QeNWJ4CyD84sr6Or/jWB4xvOjSGQGfvPYyvnbDH70FEH7OPSUAYf1LSIq1t8aBbOoQ8FIEIduNWPJKxzQzi/eveD9eVyMPPHYH+8q9dJ+5ANfvwPQzOIo7JU1KT8c7y14pZnCByWjDELt/5wmK5/e/4ieUPXHlH15Dy9PT8CQTwKhCcZSguVkRH5XPQWSTGZ1OOi3uiQGe76kDT2CUMT2hhNdjiZpC+F1GRNEZwkuNKl8E+RJ+tUhlz14GRwdZedJqzln8LsrPP8P/fuouhtmjx7Nx40SPyXXBkU6s9v1PZs9TQMLRBgiiYogD7158jyc6/0TfHy9VDCISGeTx2Tm8e9n5cPqpPP2vP+Dh0WeZe/oy6pwZ2NUUju2ImA0jEn5GSTlUSpi3/LzihPjbux7mygPbcCW34SWvv1rxHp5pWMGEfUTxO0RV4qWKhKKPkOsuh1bPpS7fSdbNEZgBVb+EZ5QJpDPkOdhGDjtIqc6SrEneHqSSmYBQbJsjgkKBib699AwfZIGzlPd97K8xn72bH23dyNq++7S/ThIsPEVtmHDihDSv0khVdyEJFdS+PErF8KoAwmc+i8gca4YT0voXM4dEPlJrtWlQIEQR3frRTlvib3DdrLNZ3nEy8y8Y4MGbt3PToV10zFtIrrWDlJPTREHfUxakKqyCNG46p/TbZCyctIslshPfxPHladQ2GIF4GAyFFMxBwlAcJEK88hhGc1Z5k4dGgXS5mbpiqwIaysyo6msFs7J1FraopzoK8ucSierLoyYgwvYpZvIETp6RHZs5cGA3063p/M73bsa7cy1rn/4xD/Q/Tt4fVixUddEVw1nfNJOI7eXPurY6DRWj81jvIFiWhe9La+fnv+69914uueSS17nUv7Zv/2YACHNmT2fLU7dgyQjuFV5lz+Cr376T/+9//e1ru0iv8986mhyE9eunGiVNbRZMHSfEG2zyc6u9Tgq2xdx0Kx9ZfCVzVzlsfOp5vrdlAzOPXwotzaSsBkxRDEi0spwQbQc7EgfZHBOn9/Lcn4nE9OcTShf+4zuZfctSorBE5Ad4VoCRH8fKNalWtXRXm4vdhL6FlTbVexAOQpyOKydPu+DjWQ52Sj6yEBU9dXqt1OWpOiUqpV4OPL8OY9zg8k/+CYusHBNPbOCGbf+oDlc6wUqDApWWqAp14iCrL4je02LzPPmNUKc5Hq0Rg9QCmV0k41tNL5iUOepPMUkN1xJ9+YyBAlKzU/VcMescZp96Fube5/jrZ+7Hbu+kaeF0XKNFZWQEXiCWU0oKLwR3y6wnlU7zm9t/yjV7NiKl45Vef77iIzzdPo+KqguBhCoQpH2M0FVjAon4zoy3kwpTRFlHpTbKe0RMr5QneNheoFw3pf4pNYJ4+IRQzhaopMYpjPcxuOMFlWh89rt+g1NaV1B47nG+8fyP6SlvnWIBntxLuj79hy8hs4YxB+FVA4TbbtWXO6l6sVviS/W7tRaTEh0keZOwunE+q6efTdMl72T3xFbu/M7XMdobaZs/H9utx/RFsWBjkSaqGthycbINWFlp7ViK2CHZCypspMa4cJSphHiLi+2kZxS1uURpDJrqlIwyKz4LYpZkW2psofwOxNc6sDDNMmHgKoa3NA9lLhc6EWHVpGqP4dnjBE6IaVfp2bOegUOHOX/2O1n9Pz7F2I/u46Etj/L00BNUIxlVxIxZUVokdqPxQzI5B5tyz8pivEkAwubNmzn++OMpFoscOvRyhzHHcZg375fX4r/OteZl3/7NABBKPY/HfHIYGBpldEynlCY8857+cf7q/9zKTx966I12+X+pz3N0AYL2QZiqpU8K4oss06d+MtkPRSVgREyz6rmq4zSOO/0SelMBa37yHXotn8YZLWRaZuhgJ0kItFIqG0GM3Awvxfg5Q2z8s5txx7M4+YwiE2oKmwTQefjpCsf//Tvp/PFi5ccfRRImB/74BFamnWzYTKokaYFihKQTqYNQwoWkyAmA10F42kQvdo1FYu5LlOxRIkdkjyb5oR307NtGs93N5R/6n0wfHWTvc7v45ta/J5DrIofA2Cgo8XRRW91LCrTmHuh9MQw1EfxoAYTEB+FFa5SQSF+hDupAqdgxMIJcZHNhxymcvng10WnHc/+/founB7YwY8kC0q2digsgoyRLugZVB8s2SIUG1xzZyid2rFW3Q1+mWVyRY6A0CR7/fskVbM7OUoFJojqQmiMhgdBAXaUBp6QJpWZaIqUjAhUAJRwNGe9Y2PI9JadHxkCWjq32oyole4jI9hSJv5Tv4eCW9czLLOXi3/wsbbsO0bvvAF/92T9RDnUnXVMG9WFaH0ZjwBR39msTh+R6/WcAgowY9DeawliNncUUYpy6KAkfIZ62yx+1Rik+MPsdzF28inxrBw//9HvsCA6TaWumvnkmjiP60wxWaCoZELb4IYjExFEYxKraBEUfLyyTMuuUE1koGQ5eVc1zRNlQFqtQo4RXkgCTBtJRA6mJFjV6ihxp48nAQZtQiNrBM8eQbNNcuRk/NFTUczEzTFgJSUfNhJkxqlaJoDzAwW1baKaNd1zy2yycPpODa+7h5h2PsrewRaFEQZNqMpdocxMb53iBFNKuzWK0Pli15t4EHQRZfwEHN954I9dff/3LNvTvfve7fOxjH/ulNvo34pveDADh/ltuZPWZb+PA4T4+/8Wvc9c9j6lLHRop7Kgc2wi/Ea/+L/eZjjpAiIPpkk20djiSpNeE9BVvfKpVq16iqgpJmxarcgu44Li3k1l+Mjuff5ofPH0zbYtmkm5tJ5tuVVa70m62JE/GzCj5dX7xAJt+/x7m3XsSc289nao3hiUBdaFLcUEfowt20vWjU5U827OLVK0JAqtMNO5jZ9vIlBpxKlllfGRKEJTpqq6qjEl9ewIvMmnwGgiDLIGRp5AdJMDD8XIqc6Zq5tXXndi7ifH+EicuuZDTz76M1O6t3L9xPQ/13q72OOkYyDhFKRliHWFyCZK458nrleQ1xD4IR5mkqHUJU6KdleW19qyYHLnHirrEvkJgUgRntizmvO7TqD95Nfn8fr5++43YrU20d80g3Tgd28wIK0RxDiQgsNOb4Pe2PcCqgUPsqe/iT0/6IH1OgGmkSEfCLbCU+k2CluyyS8WZoCJATpIyAw871Uqm0IztpcGRcY74+SgBqOJ9BNY4ZcujudRBqMKgfEqpEXyniFNpAreC5xbxwzwTPTvo3bufU0+6iguv+ATG2vv52YFevrv1n/T6xC69Cr6oydOkJ4KyC4gJ8uq2jY0PVWZD4qT4ajsIt90yyUFIbHVrdpovSonSp+RJy0v1FKkW1OrUTC5dcjnhgoXsrfTy4EM3U0x7tM5fTDbdruQ/4ixoS5CJ6FxtcVV0cMUfYcKk4o8rJJWiGdfKEIQV/CCPGaSxgjS+XaLq5qmO9ippUV11Bm4pQ8WdUKjajnKxLFSMJ8rK2zodpqivtsqa4jsl5W1eCkYx3UZlOFKoHMYcO0LP/gO8/bSPserqD2DcfQ8bdm3gh/seoBCNKjSu5krSrqvxl6ZEjiakzoQUopCWmhLpSUxid/nL7YWv+K7XI4th6geR7y//vhlfbwaA0NqU5Y8/9wnWrvsZt9318JtumY46QEhslGPDH7WL1Wa5sZV6XIGULYzqqCfSboO5dgvv6jyDrhVvp7Kwhe9/40scNAaZMW8+ddPmkTLqZZqpTH0MUW9JVyFl03vlC+qkN+vm5VQYwQpaydoZ9ee+nycIfGyRx5mB2tc8cxh/ZIJU41zq8i2qOAR2gTTNSL9as98rVCRR0PBp9puoenWEVgHPHafCKIFhY5s5qpkCY73biQ4dxkh3csV7f58ZfsSRdc/wvefv5oC3U++fBKqLqzobRpLPEyvB4jsrMahWpVtOpnE65tGUOSZ22KoIxrL7mgfNS7sIavqQeAHoE+18p4WLO0+ne8kpRMsWcM9Nf8emwh665s4n2zWTFHU6MVjV0LT6HseP93Be/15+2nUq21M5ysEwRtRIvdOoCp8vEvvAx/HqCa2AipmnGo1ilvNYDd3UTbQrR1/fypM2W1Uwk6oUpqQGj+E7ZdrK7QRhStW6iiugYZjAtHEk7dGtkh/eDkP95MdNLnv/51mY62Rs7aP8eN8Gnhh4sCbn1HlaAuKSn30y3GrSrye+b+PJwGuUOWoOQqLzT0p+zTFYLcbUTG79TWOho+45RNBo2vzOvGtonTWPkTmdbFp3Dxt2rifd0UrjnIVYhiyIxoRyA8q4wLYayVmNeGV5GApEQsAJWnCMFGUmMMICYZAmHTYqD/KyJGdVD2Gkmqgfm6U4CeX6AZyoEatah2ep4AY8R6yRA1LVHG5Qr4gaJWsMzxSQUSWKSlQjj3zfHhiZoKthBue+7zM0lspU1z/Fozu38sDAg+KaGrci5TPHtqM1w4MpUZpTtmQ9ppE36xjONwNAeNNVnCk/0JsBIKhxQo3V/OZbraMLEDbEh5pXuE6JOCkBDkqwFQMDucaxsqo+dHhH80mcuuA0WL6EDXueYesz9zNcZ9PUPYtsU7eSu+l0HpkFCBktRTRf7NerZHZl8K0KqVIXGSelOo6VaFR5tjhhq9pbfbNE2e0Br4RrziVVrMNPjRG6IenyDHzGCEQmrgLnKmR8IULWY3hpNa4oIafTKr5T0WqGsR6G9+8jlTdZtfpKVq28AGvnJp7cuJF/P3gfRcbjUX9s/pYU5cmzejy+mLxumiOgW9yy7R0tgCAdZD3BTiTjkxK+SeOkZHPWR1QZJau3xwbAGSxW1y/mnHlnUZo5lxFjhMeevJOBoELD7G4yDR3YUUoXWMlIkEOd6ZK1WlSKcDUYw7PKuNVmMkaDUlX40jHwPeywSYUVVqmqNbKKJdz0LFKFBqqZYap2lYbqDKVk8ZyiWiMhkdphijqviTCylbyxZI3iWbI+ZXw7ojh+iEJPD81WHctOuoClx51G3aF97Ny4j387cDMj/pBeDTl0KtOo2PZfAdgkXCu+ZqrbEnPl1OFVG029+iyGROaoLuyUBZlKAtEwrsYL0U2MSbKvCj4xDD7QuopFnaswF85hxPB47JnbODjWT25OF83NYiYiTFFxBwsxwywpuwW3bFMy+vGdEDvMkvZalV1pxZygahawfJN00IJphJTr5OKP4wgxcaKTij2iELUbTVOSxkp6iIzXiG/4pFQOQlYUJkp3WrYGVIymzNf8qMjYyH78wTz+aJmL33ctC+e8A/PZJ+jdsY87Dz/KXm+XHiskJ4n4uUhGCTFJdHKzmSIUVqhR0MGbZMTw5is5kz/RmwMgvJlXCI4mQKj5ICSdv+TSJcZJcVqh9kRIDmwxaVE7LCmF1UmZbi6Zsxp3+gw4/kSe27iGn669jUxXOy0zZ+PajWpTtmVGGooXTCNpI0fojVMRMyILsqUZ2JFLiEfVGlPjglS1VXVbK84YkdVLNZUlne9ExPW+NYobtuAEzRQyB1W7XWTc4g9j+WmqsinJrx1JBzyieFmVyjj5ch/+kVFGJgY4df7ZnHH5R2joK1D82UZu2fEwPyts1cmPygI4aRMkpnBTUFPtcFS7aPqELB2E4OhxECT0CiGcJ94zyUdKugQvqUfql+IcqXJ14toktstRlvfMfifT5s0kXLiCFw49zROP/wg/l6FtxlyMtKyRgAtfhSlZZhOpMIfvT+jDpm2SKUtIVo5QOjXmhOKGWEE92aiOilmgmjmCURR5ZbfK4aimB8HKkit1UFb1qajWxjF8zLAOX1wVJbUYk1JK8heqisPRP7wHt1xk+NAQS+ct5eLrPk92/xD+5p9x85a1rJt4QuFM3ZmO469j8maNAqDOpnENT3wjEkfFeOygAMKrGjEogKA5CEk7R7SwltJWxouUCGOThagxVJK/o7sM06njvV2n0z7nBKpLF8DYMHfc+8/0WgEdM9tobehWBdsXtYLVokxFSkYRxyjiGSlcvwnXsyibZWxpu1keFhUMrxkrMijnhgjtiFSxWaZHqo1mVG3cShuhjBDSw1jlRrJhI3ghXmaEIBzHs1PY5PBNcWQs0L9jG5bvEXoVls07m9PP/wB1B3dR2bWbf3n+MXZWN1MVOWbcTtG2pS9WLyStxwTl1tpgakH0vOctgPDGL1xvAYQ3/hr9VwCEmj3tK/34Na391D+MI3VjqXc2snl322ms7D6e4fnzSS9oZ+P3b+KpkV1Y05qY2d4B4oAYRlSNFlyyBL4Ag6KSVpthPblqC2VjlDBUOkowRapYhxvWU04dIQpHINWBW67Dc4YVETXldSo3xbGmA4ps51aaVYxxOTuOFYxQzDrYFRdsi9CcYHx4P/7oCP39fczu6OKKT36FtrGQ0sZneGb7Bu7vf5SxYEx3oNSBJtn0ku5prKdLiNpTuFZKRhdnMched7RIiqZ0EGLiQ7KvJrwHvW5T8sZiV9+4EumTdFwc7dDkqsZlHD/zZIoz55CZ38mOx+7nwRceITu9jfq2LnJpsa4OKUc5MmaOKJQOc4FAuA6mS2Ohk6qMbMSDR07hZglCl2ypVSVkFlP92OU6HL+RIF2AQLwOWsl6jRTr+8X+iHS1lZSfUlJGozJOKe1hhOKFYBI6eQYP78LFZ+BwD7Nauzn7rI/TPXM20Qf9d6IAACAASURBVHPr2bNnD//v0B2M+mM6AlvxDZK5V9ItSGSNkwBh6lhGrZECf3EH4TUDhCmoOrnuesIgN3CNFqLWQssqYoctZVgkBESTkxtnceWsCwlnzaM0p4mtz/2E+554iJaW6WRmttNeP41qIAAhRxh4qh2Tlvl+JUs2aKUsjomMgbTK1ENTxI4kGdKmYgtAMBSC9owRCCYwrDbSpRYMZwwvPYYRNJPJt6h5TsEdoBoUVPPDdOowzRKju7fguQGj+0ZYsuJULrniYzijYGx6mp6DZf5h3zeo6nwydVETLKT6iwokJIg6RtvJZpIYSOlGXWyUdOzLHN/45eM/9wnfAgj/uev3q/jbRxcgSNyzVjHEc1V9EIil1TUuQk2OGO976vnWPjDJQeq0hpmc0XoG02bNYKx7MeP+eh5//BEOjQzhdrfT3TUXJ7DxozSO7VIOJ5TiiopNXbkN07AppnuxKkKwlsj7EkZUhxvlqDpjUB3HTDUrP5VARhBWmv+/vS//keQ8z3vq7ur7mOnZndlzltyldqnlIYuUKFpJLMewgSCyoyBAgkACEkQB8pOcn4LIgCTon4h+oiRAsAF6LQOGI/iMKVoUs0uRXC5FLpd778zsXD19VtddFXxXVXXP7M5wp+1ZOT2CQLK7uo7v++p7n/d9n/d5jagJ05FhV5cQRQUYTpXqHnjaFmxpAN23EOpVSFoEr78Mr72J1mYPqh/jP3z9W5iPj8Lb/Ajdj+/gz26+hiudd2k1VxTw58yoR9LaO7H3JwJ5Y4S4mHa3ocMycYCQMPDZKku1kXgHx0z6g1VfkClN1RdJIvyolsO/afwmjp9ZxOr8KXTVe3jtJ3+MruNCbRZw7NjTtOQxjHK0FJ4UwmuRhyA0oPt1GFIetnYfehDDjxVKgCfCe4Z3iAIwW2tBJSkIUoUXtRApecojMZwK3NISi/I4DWihDttowZFICWsPil6BpMRQ/Da6vfvoLw/Q727hv/znb2H2yGnEV2/BunYHf37zDVzuX4QrhzQFlUZ4MmWeIp0lwBttPcznk5AWeVUd+fqT6yB84/fxKucgiIVPdRAIghpDi8n3vKiGigGJt4sacxllKY+Xas/g/JEnIR8+AfncUbzxJxfw/q2/h1JvoHC4ilrxMCTCSZBkmoshRFBVqsLwcggVUl3g0jamqhvCV01oJEcUmvCjFgIlRk6W4ceEZ0D4BQHyLkkx2LCLHehhHcawBLtyHwgD+KRrl+RCxRDrKysoWCHWuptYWFjElz73bzEblaC2b2L94y5eXXoH99w34RE1LAoOGFlnREQqE8YRaRchOcp3Ds6yZWG3X3UdhH8MA3CQ15gChIMc/b1de7IAgeggZPwdwbHKcouYB5SkVek+QPdc7rry3izk86fzi/hnJ38dczN5tE6dg9tbwl/9xR+h5zvIHatjpr4AoEhbyhNNAsJqlyMTeb9KZd/juI+IlL8R60aaMKkqrVbwdAdSv4W4UIBMNshIo2WIWjAH3ddhFVcANYe8XUWkWgixhUArQJIDBLGNeLCB/noX1laH6gP8+699C3O+jvDWChSng9duXMPrrb9HP+4ipJUL3AfP9Fqgn3BDQz1SYZMyIjBMDoelUycFEEiKgbR7Fj5pQpzfYY7od9SxFY4ZuWk2wSz1LeNQVMLvnv5dzMxXES6eQtfZwv/5iz/Cmt2BcsTETPEETLMKRSJzFFHtAkkhY9ugsseu1iPUTShE74HoaUoRNKcKiZAP400oOaIUTCSTc5BJ5wutiHJ3FnZlBYEcwxzO0FYBikR4DTkEJP0sW3D6mxiut2F3enB9C//69/47zpWOI1rvIFq/g7+5eQNvtl7DAD1GBCUAiOcTRmySaNjE2yWM2yM2jbT07tEAAm3WlOEgCGS94+vLuQhJDp7n5Whoh6cgDL2Gp45+Buerh7EwewathRLu//RPcGnlA0SmjkKjAbNRhywXkCNsXPrgRRhBjiJ5iqSVIS0Z8WmNK/lYRzy8D18nPbzLUIgwBdEqj32Y0TxCrQPPHMC0mlTvAEoPhOMbxQ5Cz0J3awVOewjXstFozOI3f+s/4ZA+D/n6+7BXN/DXa9dxufU6fIUUoGRRqNC3TkkxbPPgo8NYOgwb8I9IioZTgqcAYW824MCOmgKEAxv6PV94ogDh0lus50IiKc+IiDsC+ZG9jhkgGkXgex0zoAqeXPg8nmoew5liGcHCaaxtXsXlK3+LDccCGkXUGwtQTJ1K8VJ53DgHIyhBVkklgoNYsqh8XOTrPI9uwtf7wOp9SI0mFIkQGWMEsJAPFqjcsltchxwWoAd5BIaFIPBouN8Je4iGPbQ31xD0HBj5Aj7zzG/g2XO/A/fjZZTb1/Dh8gb+ZuMNrDp3qAHLEqlFk0Bqh3iOWzg+NAPO6+yTyROaLxMUSkpSDAKQZJzlbYtmZI5ESpzNL2UjkN+GCuaaT+O52U/hiZkmyieexL3b7+D9q69j2e4A+SKqC/NQzTx0UtFANC+ImF9Yghoo8BUythaUmJTRa1QKWY5LiP0+ouEqvHoZOZTp74KoS1t/m04Jw/IabdCkhkXImgOPRgE8Oo9ur4t+ZxNh36UA68SxX8Nv/95/RfjONUirH+HORh+vbbyBu8ObbI4yAXya8qYGR6QYMhExYYjGHFkKEB41xXDhwoVtHcZ2ytEl+Z8MJ4GVVIg8FSdPEAalMYuj+VP4QnMBs8efgTan4YPlN/D+L6+i3x8g1yihUK8hVzRpXagRF2nrZtKOk4lyBLR7GWnoFGmkyYgCdes+goIOSWvQOmOP5IUiGRohjOQ6lPijO1XEhgc/tOG4HXhDgtA6cAYD+L6L+eZJfOGlL2Gh8SyMW9cxWL6Lny3dwsX2z+FKLk1rUPtOrX2qGMk2B06RFUQm4X3wSaFRB963fAoQ9rz/H+iBU4BwoMO/p4tPEiD84hKLIGT/RL6Wvr8ZmeUU+9P+sglBjHlCYn8g/1RQKJ7FrzeO4vihE6gcPYaN6A5+/tbfYWWjBbNSgl4roFysQlIJQc2EHlaofr+mkNC0R1s40zJDbUDL3gj5Wr6/DjQXoAU5RBFRiA1hBE34eofmu1W/SpUaCdveclsI/T68/gBWu4PAcaky4Av/4l/hqZMvwbx+B+bybVxeaeONzmXcc69TKWZGiOfgZ7v1pcZLPGrK2eZpBn68EO6ZZASBhN9HjKLoyTCa6U4r7Fh1edpGmc8R4y6QoIKKgrGIX2ss4tzsAkonjtFWzT+5+HdYW7oHJW9Cb1ZQqlYpcNNiUl5fhuERmX6SvgioCjARwYr0Ho1MS64LpbMMt9mEEZUoyCTaEzpqtPzUz/ehuiUqjxQqLmxCfhxuwh1YsNpb8HwPhqTjxc++jLOf+R0UV1xI197CRxsdvLbyDlaie9QmMfFe4iizrplpdyYxYRlCp1i/dDw4BYDS4Vjlw75JiskaEe6wqGZI2K1J66iM25xZMDyHRTAOiRA8XTiNFw+fhrawgOETTSzdeBcfXnodVhDCzJdRnasDuZjmgRTNhClXUYSBUDIRkpbNtOsVQc59NNbaWCtpGFQb0GBy5G9AkgJ4ug2ZyGZGJFdkYdDaQGy7cIc9eEMHchjg2OGT+OK//Hcoyiaw1IJ3bxlXVu/i552L6JOyljikCDlhL/NIApeeSKIEbJLGwgainiEJPkyrGPa0+x/wQVOAcMATsIfLTxYgvM3EZjJVR9Q8im61ybstqrZEtJCjikyOO4kc0oi2hhn9MF6cOYMj86fgP3kS6/YKPn7zf+PuRguFUgmVmQb0gkZV9HxVhSHXUI4LtCdNGBNtZLKRD1GUh9B6fcpqX65XIOmk74xMqyFAqh60NiJNoSRFNxjAGm4htofw7SG87hCe76JhFHH++S9i8fSL0PoetBsfYXNtiD9b+SnWoiXapoiCA+7cCBJgGhkQHA1idXnGhR4rqgSEXgSvYphwioGqHY3/JQ5ZGuFN+2ZQHcy0ClL8nD+gRM+nomkcxgvVs1hYOA7p5CLWS30svf6XuHrnBjSjgMrsLHI1A4Hv0WZYebWGAnFeZQ1eZFIpZ9IR09QtNDoOovYW7jYrkHJVaKR8kXQujnV4SgexGkCJcjQdbg/a8AYWYqsH2xrCdWzUSxW88GkyR+cR2xoK16/h9uoWfrZ2GTfda/AlMksp+YIFUrgK6Bg2YM4s/1DQ5HiWjAat9gMQLvzxhaT/Nns/MjrYfFEkeEHYxiTEzm6K5j2Y7ASPRrBKCFMy8c9rn8Z8fR7xoXnIcwbklbu4/Mtf4pq9BkkvoFgoQyrIKFTzUDUdvjtAqBdhRiX0/CHyoYNPWTEOb0Z4rxJivRSh7wcw9AJiiehaE84CUUhUgSF5sXVYrQ0MPQdh6OFQYw5nz38RczNnoVld6J1NxJsdfLCygovt99CLNhk4oE9CVMqYd8DQNdlMyMvJQjpCkGNk+fKmGMIxYTjvn06zpj3s4b+yh0wBwuM/dZMGCML47BQlpcHQJFnIrCfZA2hHAtEUKAkt8E2Qpyt0ScUTxhE8N3MGhfocgpNzOBRv4v/+9B3ctlexpYTIG1WopgqjqqNUbVDxHdsNoWs12ngu8Cw8FcQ4vDHEwMjjPdPCgLRsVnJQVI0URELVSMmciryvwLdjOM4Qg2EPfhAgJ8d4avF5LJ55EaZSRK69BrXTxe37m7i49jFW3A9oOWRSocYb7zGnh7XiY6WCabtgkjKl0voCPI2UhBJuAhFXAr75PyfT7plwECgflOtREE5c0pchATTp2FMPm3bSSxttpXw91ukwjgPKq9MlHcfVJp5vnkGtMo+tcydwwlnCh1du4aP7H2MdAXL5MrS8hlxFQ7FUQez7sAMy7jWEoQTfH+CkpuLcTRsDScWVuo+2ESKSVDpOZAxDhehXKNA8BbGvUnDQG/QQBh40WcK5Tz2Ho8eeR92YhdJZhdzpwFru4ycbV7BifwwPLk91EzVOtgYJGGI8mIw+B58L8bmYIxo04SCYrGmSYiDprVc+cbOmTJlj8sLQF4GTIjhLnxjJRF2RRzT4nbJ7ykTd0vdLgiLFOKI08FLxPCqLM4gWjiE8U4Tlt9G5dBPvvvk6hlCh5AtoVGsoVMvQDR1dZwn9ENBzBgqRhLzvAHaITVICWdIQeUUUcwTRMWVLe+gg9GNYQwdDf4DQdiCrEo7XjuDp57+IcuUkpI11GK07wBC4sd7CG8OraNnLFBzRAU5ai6ZPlHbGyqRSxpBawhgVEzLVQXj8rQ6/wylAePynapIAgeggCMPDUgtpeDZVkRXqfalXxrO9PLfNx2xsHyC/ryKH88YiFheOQz9zCM7CWWjyZdxvATf/+nWsdHuIFQ3Vag216gzUugYEDrp+G4GqQw9lFOCh0FaxrLUQRgqVqc8VStB1lZZv50MJ96xN5F0TXbsPz7Hgxw5mcw187sx5NJ75DaBlQ19bAtptWG0Hf96+jFXnNiW7saQB87i51ef/ZCWENEYgNnTBQ0hKP0e9d7I/EqI4OX5iQkljJMUkSpCJ2lJnVMwf7xORVJxllrTADOKfxIAbkoLPGmdwkigqHjkM52QT+oKLzQ9Xcf1nb+NeaxWxYqJcK6BenIVWKUCKbbS9DjxFRj7KIad1YKwo6BYteBq5FwM5tQxdVyB5MjQvRLtHKvIU9Ow+fNuCFzmoGzU8s/gsTr34JQRbNpTVO9AHXdgbHv5qcBs3u+8jlEipJevYSN1uOk2sIZNoykSrNUjYS0RaMuCIIaK06oO1N9pniiFb3cKAIkeQKQcvafEsGl1lonTJlIg6Wrb0WDMJJZJgqkV8YfY5HCoVoVQMeJWjkOvHYBUDrF/5U9y+dRVb3Zi+DKahI1BdqLIHSa2hWq7B7XdgxQNEBlnBORzJzcN1AljDPrw4QMH0UQti3F5vY1CMcP7Us1g8+1k80TgLa2kL8a0PEA9cbG308GF8F+91r9PaVhLuS0SgRK2vIMVkmMwCtSXRlZGym3RF8tgBI5BMqxgee+szBQiP/RRNXChJNKEbq9ymuvX0/SVVXIJ8LbxmbiBTIn3KnEtY4zJhKkgwQh3nCk/i9PwCcnkJdv4YpOZRqLUCNjfewr2Pfoo7yxYCX0ZBLVJtFhKO1tQi6tUmbQLU7m/C133oholyrgmV9KNxXDjE8dEClPIx4g0bK5GN5vxhPP3cS3h28QWsrcow7n6IaH0ZTt/D++1beN++hX48pJ0EmcMjxJJTZnXaGEmkFhgpWzwbLSPk4e3simGk+gkrKRKhJELMyxC/RyMIAthxT1oYQB5xGF/RiePLwkAUFmnQ8UT+BJ6bXYRaVBBXmvDKxxA18hhYV3H77b/E3ZUu4lhBTiaE0hChMoSi6qjXTgJeH5ZvwVVdSIqCitJALi7AdgewHIf2vygGFmQPWA4tlCs1nH3+Zbxw+vOIehq6H30As70Kpxfj1nANl3q/RDvoIiTNtzLcNrrKRLBEpAoyPBniIJMIDyvb5eGVLHmDp89YSvwRqxhevcCEkra9MGKkBeM3KyBCL8jYv/R++ctFvekMf4GRTNn/SuoMnswv4milgEpBQ1A6ApkwfKU2VnrXcfP2VWz1+pCcCIouw49Iq8wAsVFAFA8RqBGph4QWmjCkHHzXRuxHKKgyopB0RVNx+ImjOP3U5zBXfxb6Rhv9pftA7x4GloXN9S6u+NexYd+ng0oaQnEMk+Z2BOGSljgKogwTBEnIOhw87cR8TgACi9dNqxgec/szBQiP+QRhskqKv7j0Ni2ho1tpxlHecRQ4Q154ZKztcThaBcFiuYxYzcPwZJ9Q5TzOFT+FZrGIuZIKLTcDv3YShhliGK7h2p13cWd9DZEbIC8Z8BRCrPYhSTogBXBJF0BTJkV10OI8Qi9A4Pgo6uQuVNrXxmw2cPbTJFT9eVQiDdbNTbir7yF2A6wPBrjVXsYt/zYsn5RTyqxcW0Q5GRLizhG5/0QJKTE023gJ2waJNSMS+e9JkRRJFQNLGWRMyXarz64rjGXS8yZNj7CyTO7oispVauiYTZIjDU/mT+N4uYmZkgStUEdcP4F8PY9N6wY21q/ig1t3ELoh7fZINHj80EOo5qGAyFiTxoBk+lXogYmY6PrYARQEKKoGfElGrl7EqXPnceL4S5j1DVhLbdit24DVRqs3wN3OOq471zEIBjS5E5MiGR7f4Zlq9gGN5KTFNylRdqwUdQwcUHzLEub0Xx6JpEh0ENIwjigjZbOTRNF4yILmpyhiI4EqFiEQEQfx0rEOUhxA0NORxcl0BaDoqOuH8GThEA6ZecyYOfi1JuSZBeRKebTtNWxu3sCdpdsYDgbwuj14JAcWB/DIC0gGMNIZEZnk9MolLDROYnF2EXPNQ4jjBkJnFcP7d6H2h5ADD62hi3d7S1j278EjATb+MrCwCxtC0alM5N/Y3XMvgUt8JgBBbBzJO8Vnjy9iykGYRhAef8tDmrSWy+h2SefP/f39x6/+N/zhH/7p/k4y/fWOIzDZFMPbVEwnCa+LcriRDoF8Ixakt5F4e9pJMHXYBP8qZWrRPV0mjZLKOFs+gblcHo1CAVq+hrA+i9LsIQzDDjatVdy7eRnt7gBerwfP9yEHIRxSEqcwayGTttGqBDWnY7Yxh4XCE1g8dQR5/RDsoQu/exdhuwPTG8LqAbe9Di7bNzDw2sl4Mo6Y2M9HfHP+dOzeWQdHXiIowtTcqLIDMmzshFDPYsqTSjFQgJC6xPSCSTIkHWIG8jhfgh0jiKSpIiQ9TSY9wmYqM0+kZ6BcxfH8MRwzC5grlGGaZfhzh2A2j8Pz19B1N7F0+32sbbVht7sYejaMELA1EiImmr6kmR8DNVpORblUw6nmWRxrHEZpZgGBHcDrLMPfWIfp2+g7Ae72+/jIuYPNYJNL+ou4vBhjHkGhAGg0msJIo+kcsXkT/Sr4lAtSSTJl+4ogXEjDB5lcAzOInB2anZiR+hM2TXy20tzVyO/SpckOVGBqJTTVBhZKszhULKJo5mE0ZpAr1dCTdAxDUjBi496VnyOwBxgGPgaBQyWWUSqiVK4jL9fRLDQx15jH4UYekddD6/YywvV1eIGDjmtjw9rEUtzBmtdj7TqFuBMf+HRH4nUyQsubPzt9OhGS44g0YS8L8ZAEnbKIA51OmiOaNmt63G3eFCA87jM02QjCW28RJUXyenJDzz1Qbh4zHlHi+YwO0PiGLTzYrM3lhpQFXolxN1DNzWLeaGChUEA9V4BerSE/swDoClquBDey0Fq9AXt9CUPHgUWIbr4HxdCglkoo5RtoaE3M1I7hSK2ISjVG6+59DO5tILB66NpDtJwtbEg93PG24HhuWorJ1RBHIp7c8xNuXFbaJdt3Z1u1VsZZSvyrCXdzTCIIwqjwsRWONMvPM5uSOG3ZWRrJfQsqPz9AoDq+iYu+QoqcQ1WvYMFsYi5fQdMsQS6bKDeOwNd0dGMVpAXWxt2rcN0teKsdWDUJ9noPSj4HtVBGwZxFU6ugXDyMU0fnUS7GaK2swFraQDzooOvZ2OxsoBV3cStoYxi6iTVP+ilkn2NkjviiSjz2tDeSmKOsnUq4JDTAkKA6/OCVH+CrX/3qri+9FMdxvLKygt8nSooXLiTYks0JCx3QYE3GticoLpMbGrlShuTHjs00dRIPlnweU3EQVStjzqhjNlfBvFlFWS9CLtWRL1ehmTPoe21osoKuD4S6jSgIEQc5mtvL9WXotku7QYZOG07Qxdagi67bRT8cohMO0Akc+KJ+NNMHPkGeI/fFJoGux22fP2RMM+ApAQic6DPt5rjrWjzQA6YA4UCHf08Xn3QEgXjJVNEku6FxP0e89zvY++0ldJmac5ZiyHp74uQstE/+S5ENVPUymloVC8UGZvUy5FIFeqkJs1CCS9KYkYOhp2PoDyFLPQSyCVXTUJRUmP0Qru1CGqzCjh0M7BY2Bz30/AHNX3ciBw7dv1hpYop2MsM8tq+Jsjlx9JiDvvP8ZLATGydWtzXRCIJIMXCQlViTTEX9rvZIRD6EDeO9I5LUhXD4aISbZTUUxUBRLWM+10AjX8G8WoFWLkMp1GAUawgVEsWW4Q0jOLUYcb8N1yailnmYgYSiEyDwI4S9ZQSxg96wja1hHx2vi17Ux5Y3hENKTGkUK5NDGQ3qpOMugOyDbO6D3qDMRLLsC0sx/OD7jwIQMs2aaPiCSzduI7lmmZI8uDOysDhXgd6PCN0lD85zPxkSLH8nQaCCJhsoawVU9Vkc0ps4YpZRyGmQayUoRg5hqFO9BMgRoi0JrjpE0HWw0e9jyx6g69yHE65jGBD07SCKGMoUQh/svWABpqQaQywcwbHYYbCz5Bjx6/HDxueWSVRPOQh72v0P+KApQDjgCdjD5ScNEJJk7kh9P7uRLEDgn/Bcdxr1ZgHUtEEOC7qOWa5ET4WVqAmHiRxJOARlNY+yXkc9t4CTZgVFw4ReMiGXTMSRScnTSj5A7AD+0IPre7B7DjasAdpeC313CW7URz/0aOt6gU8YOEhTvOwZxgQP6EcP94CSnTKTw99pqli2lhm7iXIQRN+bkcj1GKly5IYyEQXxuRiHRNomO0fZ7sTboRTpt5AnNsmoo6E3sWA00DANmJUykCOKlyWAKCrmY0RWhMAJEbhDdPoDtG0bG3YLjr8KJ+hgEBFJZtL8T5ArRbpnB2OYPNOoGNVOY/+gORoHtySCIK786BwEQfjIEvBEOEZkELKlEzzHkRUcEc24swU0D3v/Jd6wmhlUNouypNFaVV2WQephZb0IRS1ClU3opNEJeVTPgi8RpUQHltdHFAcIY6I0RlpJixhA8mqwF5+3UBqtcc5EFPewUY1LUG/zMpKwJX/5piTFvYzqgR4zBQgHOvx7uvg/CEDg7ZyzPoJIHe7QIHC0Dj+7iScsrd0fhSjyjdplGYZiwogVttdpJmQtD0UxoUsKFIOVNQZ+F8PAhu848EIbgRwhjF1KMmRbP/+jofdMy+OMXsHud7fzETtqRXDAQXQFBIN+4gAhiYIkTDAGagSfgOMesbczzMNGIquGST8nEZxdI8KsuoNZD7azM+CjQJUNEI0LUh6paDlIWomSUDXNoGX8YRDQDpBO4GBo96g9IpV1pA0ACNlUpKC5HSWzJtpSZ+8/mca9Rgs4ABJzlGQfkuXA3WIRTXpkkiKpYhDeNTXWlAnICSn8shlingClQphiT2EpNnO7IlfWHCmLcMnEkYAgrVFhlyYTTiIEyY1kzr3DNbKLPBnMBBlncigPeYtoUJIwmBMWMGPHZktQyM+FSBLVy+aCU4/6corfffvb38Z3vvOd/Z5m+vsdRmAKEB7/ZTFxgCAayWRSBEmZn+AcjW1qEu+Yx/Ymto+xnwujktLl2Me773XCmDEPT5yLCLURL4dEHVQQ8V76bSaPzK1gKgw0Hg3IXHu7gd95vxspI+TGdnyvY3tvElDhw5Aa329+85v47ne/u+8FlZAUk5rStLtWUlJK7mOEayDaUzNnc082aY9zNDLeNHJEHFVifdgcpZUcaa4/+U2COkeHZXxeaBQqATG72ySxJhIKTFp/O1KRmGggcFD3iSMI30i6OTLUJMxutq4ySeHwOtisoNI4AmK/F366MOHkvzMsTT5WO6HT3VbXbr8ZHWgBe+jSHjt1msF64DlpUwyxEbCfp6Bk+yKkgCB51VkN8bSb424zerDfTwHCwY7/Xq4+SYBw6dIveEuVVCo42cNoa9zUCIoSuaT+n38v7plnGiDAA9sfhKnfwWX9BAZpZI/dJR2wlzEUxp1VOo42p9oGDpIHTJ2gcQ9c7GvMF2Z7+6QAAjHAQs1WBOOT64s5SrAZj+NmogcjKV8edRifIzZLu4YV9jq0Dzwuuf89nUk4wjsfzIiHo3oErI0Gi6w8eI4EFRN45ZVX8LWvfW3Xu0lIigIgsF9kkYuAinwQ6agLo5peMAnHZMGFQNYJMt71fjJBFV41kZji9e4nWQAABAVJREFU9FojZ8mEV7Iyk3tCjtk3nItspCpq6fLKnmsEOWcKg8TRLOPCAQIPaU0Bwl7m/WCPmQKEgx3/vVx90gCB1dgLYXT+BtPdNTUY2V1H8AsY14A5QPRdF6lXvnXuJYydbrHptVJmlLjqAzzIh0YGMiO5AxBJFGEz0YHxkHR2LpJ9LZP+HXXLifPDxvAfAiBsZ5GKweaOpgA6/A5YFD3KVDeMQgAmkS/mby+rbtQebp+jsXMIc8nBl3BUs2Al+4sdUzdUxGoUtCTWcEynKAWnPLUi0kkjkyjcWfJjJjOwD4AgJkAAghHzmGGHJDqKaUlj8mKNAwwejkqUu7KhtBHTyita2dOJWMYIXhnHL7vM8W6Rhgf9fBQIpEIdI6h0h0kQYinTCMJeX77H47gpQHg85uFhdzFZgPAWy2MnL7oIGYzvd9lSJnE8+Uy0eh3dyKkUPXGIeJn4KA9r3ODzKENCktzuyVLlwgc4WNvJ0ruHpHca3xEjkxjaMQVDvhsnzmOGqJ7I/k48gkBSChkARx9v3PUbB3b8e/pxFvpkQR9rF8Ci4zw6zJ975wgzj6A8zNF9wNA/iND+sHW+02+y9ii1jRnTK7gXifMu1L84d0PIDXAb/QgA4Rt49VWmpLi3v51wp/gsGyKhSSJu7rO/SUP7O0YssiG6T7ju9/wIyaIQQ54OeNLpOQvIOQPiQedPlmC2yoOHvKYphr2tqoM6agoQDmrk937dyQKES9ty1w+/k/H97kH/zVvBJyfLGv3x77bvJBmq4QNvZ9yA7LQfPchjfSBAyHyRPb84D7lGdk9MCOU7OEl/8AeTadZEo7lj/IL9z9FO9kh4nVmbJGyCmDMO5h4xHfHJbdJ4BCF98nFzSI+MeQNB/mVibxJygjDD7Lzf//73955iaLfb+NGPfoSLFy/u/W19jI9k+ZndU0vikNFlkSmBzACINOHBBpguXv727MX4//CHP9z3iP34xz8G+f/0b/IjYJomvve97+37xP/re6/gzTdZI6Dp32RH4Pjxo/jOt//Hvk9KiL43btzY93kelxPsRMUT+5W4x/GY7vZIaBoxSL8T3jXbIQUvbbfn/vKXv4yvfOUrux226/d7EfLZ9SSPwQECWmy/lTHxpswB293ndPQFDVbMe8IXzChd7maTvv71r+Pll1/edXQoB4G00ez1enBdoei06+/+aRww/pY87C3a5xPPzc3t8wzAYDCAZVn7Ps/0BNtHgAC+ZrO576HpdntwSJOW6d/ER0BVVTQa9X2fd2trC77v7/s8v1In+Efc6wqFAorF4r6HZ21tbd/n+JU9wXh25JOFIHZ9bBIxJU7Rbn8UIOx20PT76QhMR2A6AtMRmI7AdAT+/xqB/wfRqXcpv7nZIwAAAABJRU5ErkJggg==;clipPath=inset(10.34% 62.67% 3.45% 20.67%);" vertex="1" parent="1">
          <mxGeometry x="742.5" width="129.95" height="130" as="geometry" />
        </mxCell>
      </root>
    </mxGraphModel>
  </diagram>
</mxfile>
